<svg width="360" height="300" viewBox="0 50 360 300" fill="none" xmlns="http://www.w3.org/2000/svg">
<path d="M310.127 254.243C313.643 240.522 314.285 226.223 312.014 212.242C309.742 198.261 304.605 184.901 296.926 172.999C292.944 166.919 288.163 161.12 281.87 157.464C275.578 153.809 267.537 152.578 260.955 155.678C253.469 159.205 249.441 167.215 245.056 174.23C240.671 181.245 234.142 188.381 225.874 188.062C220.949 187.872 216.571 185.022 212.596 182.104C171.883 152.274 142.866 106.043 96.4988 86.108C86.2388 81.6924 74.17 78.7968 64.1304 83.6988C53.1256 89.072 48.1172 102.159 47 114.357C45.2292 133.357 50.4504 152.517 59.388 169.351C68.3256 186.185 80.8656 200.853 94.348 214.335C129.232 249.295 172.628 277.689 221.268 285.866C237.562 288.602 254.51 289.005 270.425 284.536C286.339 280.068 301.152 270.347 309.626 256.15C309.557 257.366 310.127 254.243 310.127 254.243Z" fill="#404099"/>
<g opacity="0.9">
<path opacity="0.9" d="M310.127 254.243C313.643 240.522 314.285 226.223 312.014 212.242C309.742 198.261 304.605 184.901 296.926 172.999C292.944 166.919 288.163 161.12 281.87 157.464C275.578 153.809 267.537 152.578 260.955 155.678C253.469 159.205 249.441 167.215 245.056 174.23C240.671 181.245 234.142 188.381 225.874 188.062C220.949 187.872 216.571 185.022 212.596 182.104C171.883 152.274 142.866 106.043 96.4988 86.108C86.2388 81.6924 74.17 78.7968 64.1304 83.6988C53.1256 89.072 48.1172 102.159 47 114.357C45.2292 133.357 50.4504 152.517 59.388 169.351C68.3256 186.185 80.8656 200.853 94.348 214.335C129.232 249.295 172.628 277.689 221.268 285.866C237.562 288.602 254.51 289.005 270.425 284.536C286.339 280.068 301.152 270.347 309.626 256.15C309.557 257.366 310.127 254.243 310.127 254.243Z" fill="white"/>
</g>
<path d="M180 324.528C261.383 324.528 327.356 320.676 327.356 315.924C327.356 311.173 261.383 307.321 180 307.321C98.6173 307.321 32.6436 311.173 32.6436 315.924C32.6436 320.676 98.6173 324.528 180 324.528Z" fill="#F5F5F5"/>
<path d="M254.48 279.178C254.48 279.178 257.52 279.878 258.934 283.662C260.347 287.447 264.649 289.796 267.423 289.659C268.54 289.606 269.589 290.13 270.82 290.844L271.892 291.46C271.846 291.088 271.808 290.7 271.785 290.297C271.489 290.069 271.192 289.818 270.904 289.537C270.842 289.47 270.776 289.407 270.706 289.347C267.362 286.132 267.271 282.75 263.372 279.71C259.473 276.67 254.48 279.178 254.48 279.178Z" fill="#404099"/>
<path d="M286.932 275.819C285.942 276.302 285.08 277.013 284.42 277.895C283.759 278.776 283.317 279.802 283.132 280.888C282.273 284.833 278.336 287.766 275.532 288.017C274.422 288.124 273.457 288.777 272.34 289.674C272.028 289.91 271.709 290.168 271.367 290.434C271.367 290.054 271.367 289.674 271.306 289.264C271.572 288.99 271.823 288.709 272.066 288.405C272.12 288.329 272.18 288.26 272.234 288.192C275.091 284.536 274.711 281.177 278.139 277.613C281.566 274.048 286.932 275.819 286.932 275.819Z" fill="#404099"/>
<path d="M272.401 289.674C272.492 291.79 272.272 293.907 271.747 295.959C269.87 303.255 269.68 300.557 269.68 300.557C269.68 300.557 271.489 293.717 271.428 290.442C271.428 290.062 271.428 289.682 271.367 289.271C271.257 287.819 270.963 286.386 270.493 285.008C268.51 279.277 264.55 277.506 262.984 271.328C261.419 265.149 266.845 260.794 266.845 260.794C266.845 260.794 266.085 264.655 269.764 268.196C273.442 271.738 273.936 277.894 272.37 281.025C271.458 282.849 272.036 285.137 272.302 288.177C272.348 288.671 272.378 289.165 272.401 289.674Z" fill="#404099"/>
<path d="M275.76 320.811H263.6C262.973 320.811 262.367 320.584 261.895 320.172C261.423 319.76 261.116 319.19 261.031 318.569L257.794 294.546H281.544L278.298 318.569C278.215 319.185 277.912 319.751 277.446 320.162C276.98 320.574 276.382 320.804 275.76 320.811Z" fill="#404099"/>
<path d="M283.527 294.462V298.878H280.966L278.306 318.562C278.225 319.183 277.92 319.753 277.448 320.166C276.977 320.578 276.371 320.805 275.745 320.804H263.6C262.974 320.802 262.37 320.574 261.9 320.162C261.429 319.75 261.123 319.181 261.039 318.562L258.379 298.878H255.43V294.462H283.527Z" fill="#404099"/>
<path opacity="0.5" d="M283.527 294.462V298.878H280.966L278.306 318.562C278.225 319.183 277.92 319.753 277.448 320.166C276.977 320.578 276.371 320.805 275.745 320.804H263.6C262.974 320.802 262.37 320.574 261.9 320.162C261.429 319.75 261.123 319.181 261.039 318.562L258.379 298.878H255.43V294.462H283.527Z" fill="black"/>
<path d="M139.302 244.636C139.229 245.366 138.891 246.043 138.352 246.539C137.812 247.035 137.109 247.315 136.376 247.327C136.031 247.333 135.689 247.266 135.373 247.13C135.056 246.994 134.772 246.792 134.54 246.537C134.308 246.282 134.132 245.981 134.026 245.653C133.919 245.326 133.883 244.979 133.921 244.636C134.005 243.911 134.346 243.241 134.884 242.747C135.421 242.253 136.118 241.969 136.847 241.946C137.192 241.94 137.534 242.007 137.85 242.143C138.167 242.279 138.451 242.481 138.683 242.736C138.915 242.99 139.091 243.292 139.198 243.619C139.304 243.947 139.34 244.294 139.302 244.636Z" fill="#404099"/>
<path d="M141.065 242.805C140.989 242.801 140.915 242.782 140.847 242.748C140.779 242.714 140.719 242.666 140.671 242.607C140.623 242.548 140.588 242.48 140.568 242.407C140.548 242.333 140.544 242.257 140.556 242.182C140.693 240.662 139.12 239.423 136.976 239.423C134.833 239.423 132.994 241.262 132.918 242.182C132.907 242.343 132.838 242.496 132.724 242.61C132.609 242.725 132.457 242.794 132.295 242.805C132.219 242.801 132.145 242.782 132.077 242.748C132.009 242.714 131.949 242.666 131.901 242.607C131.853 242.548 131.818 242.48 131.798 242.407C131.778 242.333 131.774 242.257 131.786 242.182C131.945 240.373 134.423 238.169 137.106 238.169C139.788 238.169 141.901 239.932 141.704 242.182C141.693 242.346 141.621 242.5 141.503 242.615C141.386 242.73 141.23 242.798 141.065 242.805Z" fill="#404099"/>
<path d="M142.562 239.278C142.487 239.275 142.412 239.256 142.344 239.222C142.276 239.188 142.216 239.14 142.168 239.081C142.12 239.022 142.085 238.954 142.065 238.88C142.046 238.807 142.041 238.73 142.053 238.655C142.182 237.135 140.016 235.896 137.22 235.896C134.286 235.896 131.976 237.827 131.9 238.655C131.889 238.817 131.82 238.969 131.705 239.084C131.591 239.199 131.438 239.268 131.276 239.278C131.201 239.275 131.126 239.256 131.058 239.222C130.99 239.188 130.93 239.14 130.882 239.081C130.834 239.022 130.799 238.954 130.779 238.88C130.76 238.807 130.755 238.73 130.767 238.655C130.927 236.846 133.982 234.642 137.326 234.642C140.86 234.642 143.406 236.368 143.178 238.655C143.168 238.816 143.1 238.967 142.986 239.082C142.873 239.196 142.723 239.266 142.562 239.278Z" fill="#404099"/>
<path d="M144.029 236.056C143.953 236.053 143.877 236.033 143.809 235.999C143.74 235.964 143.68 235.916 143.632 235.856C143.584 235.796 143.549 235.727 143.529 235.653C143.51 235.578 143.507 235.501 143.52 235.425C143.634 234.095 141.24 232.674 137.44 232.674C133.64 232.674 130.934 234.718 130.874 235.425C130.866 235.588 130.8 235.742 130.686 235.858C130.573 235.975 130.42 236.045 130.258 236.056C130.181 236.053 130.106 236.033 130.037 235.999C129.968 235.964 129.907 235.916 129.859 235.856C129.81 235.797 129.774 235.727 129.754 235.653C129.734 235.579 129.729 235.501 129.741 235.425C129.901 233.624 133.541 231.42 137.554 231.42C141.871 231.42 144.865 233.107 144.66 235.425C144.651 235.59 144.582 235.745 144.465 235.861C144.349 235.978 144.194 236.047 144.029 236.056Z" fill="#404099"/>
<path d="M274.696 206.69H72.9464L84.1336 78.7892H285.883L274.696 206.69Z" fill="#404099"/>
<path d="M271.96 216.699H73.106C71.7982 216.722 70.5006 216.466 69.2994 215.948C68.0982 215.431 67.021 214.663 66.1395 213.697C65.258 212.73 64.5924 211.587 64.187 210.344C63.7816 209.1 63.6458 207.785 63.7884 206.484L74.9072 79.3896C75.1922 76.6224 76.4792 74.055 78.5258 72.1708C80.5723 70.2867 83.2372 69.2158 86.0184 69.16H284.827C286.135 69.1371 287.432 69.393 288.633 69.9106C289.835 70.4282 290.912 71.1957 291.793 72.1621C292.675 73.1284 293.34 74.2714 293.746 75.515C294.151 76.7586 294.287 78.0742 294.144 79.3744L283.026 206.484C282.738 209.241 281.456 211.799 279.419 213.679C277.383 215.559 274.731 216.632 271.96 216.699Z" fill="#263238"/>
<path d="M271.952 206.69H81.3824L92.5772 78.7892H283.14L271.952 206.69Z" fill="#404099"/>
<path d="M271.914 206.735H81.3672L92.5544 78.8424H283.102L271.914 206.735Z" fill="white"/>
<path d="M281.688 95.0532H91.1332L92.5544 78.8424H283.102L281.688 95.0532Z" fill="#404099"/>
<path d="M177.693 138.025C180.107 135.714 180.348 132.05 178.232 129.839C176.116 127.629 172.444 127.71 170.031 130.02C167.617 132.331 167.376 135.996 169.492 138.206C171.608 140.416 175.28 140.335 177.693 138.025Z" fill="#404099"/>
<path d="M102.117 162.014C104.523 159.709 104.762 156.054 102.65 153.851C100.539 151.648 96.8773 151.731 94.4717 154.036C92.0661 156.341 91.8276 159.996 93.9389 162.199C96.0502 164.402 99.7119 164.319 102.117 162.014Z" fill="#263238"/>
<path d="M160.156 170.126C159.995 171.694 159.265 173.149 158.104 174.216C156.944 175.283 155.432 175.888 153.856 175.917C153.115 175.93 152.379 175.785 151.698 175.492C151.017 175.198 150.406 174.763 149.906 174.215C149.407 173.667 149.029 173.019 148.8 172.314C148.57 171.609 148.493 170.863 148.574 170.126C148.735 168.558 149.465 167.103 150.626 166.036C151.787 164.969 153.298 164.364 154.874 164.335C155.616 164.322 156.352 164.467 157.033 164.76C157.714 165.054 158.324 165.489 158.824 166.037C159.324 166.585 159.701 167.233 159.931 167.938C160.161 168.643 160.237 169.389 160.156 170.126Z" fill="#404099"/>
<path d="M98.49 124.473L99.0296 123.462C99.4808 123.762 100.008 123.928 100.55 123.941C101.12 123.941 101.355 123.781 101.378 123.546C101.446 122.786 98.6344 123.333 98.794 121.532C98.87 120.665 99.6376 119.951 101.074 119.951C101.676 119.941 102.271 120.087 102.799 120.376L102.29 121.402C101.892 121.165 101.439 121.034 100.975 121.022C100.398 121.022 100.17 121.22 100.147 121.463C100.086 122.223 102.89 121.646 102.738 123.439C102.662 124.29 101.887 125.012 100.458 125.012C99.7637 125.028 99.0795 124.841 98.49 124.473Z" fill="#263238"/>
<path d="M121.662 124.914L121.868 122.337L120.439 124.435H119.823L118.759 122.406L118.539 124.914H117.27L117.68 120.08H118.812L120.272 122.892L122.24 120.08H123.372L122.962 124.944L121.662 124.914Z" fill="#263238"/>
<path d="M137.729 121.144H136.209L136.308 120.05H140.662L140.571 121.144H139.051L138.717 124.944H137.341L137.729 121.144Z" fill="#263238"/>
<path d="M162.581 120.08L160.582 124.944H159.108L158.439 121.988L157.2 124.914H155.726L154.57 120.05H155.992L156.698 123.158L157.998 120.05H159.26L159.966 123.181L161.266 120.05L162.581 120.08Z" fill="#263238"/>
<path d="M174.064 121.144H172.544L172.643 120.05H176.998L176.96 121.144H175.44L175.106 124.944H173.73L174.064 121.144Z" fill="#263238"/>
<path d="M192.57 121.114L192.479 122.185H194.63L194.531 123.249H192.388L192.244 124.914H190.868L191.294 120.05H195.094L194.995 121.114H192.57Z" fill="#263238"/>
<path d="M208.728 124.473L209.275 123.462C209.737 123.769 210.278 123.935 210.833 123.941C211.403 123.941 211.639 123.781 211.662 123.546C211.73 122.786 208.918 123.333 209.07 121.532C209.146 120.665 209.921 119.951 211.35 119.951C211.952 119.941 212.547 120.087 213.075 120.376L212.566 121.402C212.167 121.166 211.715 121.035 211.251 121.022C210.674 121.022 210.446 121.22 210.423 121.463C210.362 122.223 213.166 121.646 213.007 123.439C212.938 124.29 212.163 125.012 210.727 125.012C210.022 125.031 209.327 124.844 208.728 124.473Z" fill="#263238"/>
<path d="M137.577 132.027L137.151 136.891H135.776L136.11 133.091H135.206L135.297 132.027H137.577Z" fill="#263238"/>
<path d="M157.086 135.797L156.987 136.891H153.187L153.263 136.025L155.232 134.322C155.657 133.965 155.733 133.745 155.748 133.562C155.764 133.38 155.581 133.061 155.163 133.061C154.986 133.06 154.81 133.103 154.653 133.185C154.495 133.267 154.36 133.386 154.259 133.532L153.286 132.962C153.525 132.632 153.843 132.367 154.211 132.19C154.578 132.014 154.984 131.932 155.391 131.951C156.508 131.951 157.23 132.529 157.147 133.433C157.106 133.741 157 134.036 156.834 134.298C156.669 134.56 156.449 134.784 156.189 134.953L155.194 135.797H157.086Z" fill="#263238"/>
<path d="M175.28 135.364C175.204 136.192 174.52 136.982 173 136.982C172.352 136.996 171.713 136.831 171.154 136.504L171.746 135.47C172.133 135.736 172.592 135.877 173.061 135.873C173.525 135.873 173.821 135.69 173.874 135.364C173.928 135.037 173.7 134.892 173.175 134.892H172.598L172.674 134.026L173.624 133.091H171.716L171.815 132.027H175.326L175.25 132.886L174.148 133.973C174.314 133.989 174.475 134.038 174.622 134.117C174.769 134.195 174.899 134.303 175.004 134.432C175.11 134.561 175.188 134.71 175.236 134.87C175.283 135.03 175.298 135.198 175.28 135.364Z" fill="#263238"/>
<path d="M194.235 135.956H193.475L193.391 136.891H192.054L192.13 135.956H189.561L189.644 135.06L192.092 132.02H193.513L191.286 134.862H192.274L192.342 134.034H193.68L193.604 134.862H194.364L194.235 135.956Z" fill="#263238"/>
<path d="M211.692 135.326C211.616 136.192 210.894 136.982 209.412 136.982C208.766 136.997 208.129 136.831 207.573 136.504L208.158 135.47C208.544 135.736 209.004 135.877 209.473 135.873C209.936 135.873 210.233 135.683 210.294 135.364C210.354 135.044 210.134 134.87 209.389 134.87H208.12L208.606 132.027H211.707L211.616 133.091H209.64L209.518 133.798H209.845C211.266 133.798 211.768 134.467 211.692 135.326Z" fill="#263238"/>
<path d="M100.74 147.303C100.675 147.791 100.425 148.235 100.041 148.544C99.658 148.852 99.1704 149.001 98.68 148.96C97.3196 148.96 96.4988 148.139 96.6356 146.566C96.6414 146.205 96.7194 145.848 96.8652 145.518C97.0109 145.187 97.2214 144.889 97.4842 144.641C97.747 144.393 98.0568 144.2 98.3953 144.074C98.7339 143.948 99.0942 143.891 99.4552 143.906C99.9451 143.887 100.43 144.008 100.854 144.256L100.268 145.244C100.012 145.068 99.7052 144.98 99.3944 144.993C99.0699 144.975 98.7511 145.083 98.5036 145.294C98.2562 145.504 98.099 145.802 98.0644 146.125C98.3883 145.877 98.7891 145.751 99.1968 145.768C99.404 145.747 99.6133 145.772 99.8096 145.841C100.006 145.911 100.184 146.023 100.332 146.17C100.48 146.317 100.593 146.495 100.663 146.691C100.734 146.887 100.76 147.096 100.74 147.303ZM99.402 147.364C99.412 147.281 99.4029 147.197 99.3754 147.118C99.3479 147.039 99.3027 146.968 99.2433 146.909C99.1838 146.85 99.1118 146.806 99.0326 146.78C98.9534 146.753 98.8692 146.745 98.7864 146.756C98.6094 146.743 98.4344 146.801 98.2994 146.916C98.1643 147.031 98.0799 147.195 98.0644 147.372C98.0264 147.729 98.2696 147.98 98.6876 147.98C98.7779 147.991 98.8695 147.984 98.957 147.959C99.0445 147.934 99.126 147.892 99.1964 147.834C99.2669 147.776 99.3248 147.705 99.3667 147.624C99.4086 147.543 99.4335 147.455 99.44 147.364H99.402Z" fill="#263238"/>
<path d="M119.299 144.005L119.223 144.864L117.163 148.861H115.643L117.612 145.061H116.335L116.266 145.821H115.096L115.256 143.982L119.299 144.005Z" fill="#263238"/>
<path d="M138.337 147.44C138.261 148.375 137.349 148.96 136.057 148.96C134.765 148.96 133.997 148.367 134.081 147.44C134.099 147.202 134.178 146.972 134.312 146.774C134.445 146.575 134.627 146.415 134.841 146.308C134.688 146.198 134.567 146.049 134.491 145.876C134.414 145.704 134.386 145.514 134.408 145.327C134.484 144.468 135.32 143.914 136.467 143.914C137.615 143.914 138.36 144.468 138.284 145.327C138.264 145.526 138.199 145.718 138.094 145.888C137.988 146.058 137.845 146.202 137.676 146.308C137.89 146.404 138.068 146.565 138.187 146.768C138.305 146.971 138.358 147.206 138.337 147.44ZM136.961 147.402C136.961 147.022 136.718 146.794 136.285 146.794C136.104 146.775 135.922 146.828 135.78 146.942C135.637 147.056 135.546 147.221 135.525 147.402C135.525 147.774 135.76 148.002 136.201 148.002C136.382 148.02 136.563 147.966 136.704 147.852C136.846 147.739 136.938 147.575 136.961 147.394V147.402ZM135.829 145.388C135.829 145.707 136.011 145.897 136.361 145.897C136.436 145.906 136.512 145.899 136.584 145.878C136.656 145.857 136.724 145.822 136.783 145.774C136.841 145.727 136.89 145.668 136.926 145.602C136.962 145.536 136.984 145.463 136.992 145.388C136.992 145.069 136.794 144.879 136.452 144.879C136.303 144.864 136.154 144.908 136.038 145.002C135.921 145.096 135.846 145.232 135.829 145.38V145.388Z" fill="#263238"/>
<path d="M156.44 146.3C156.434 146.662 156.356 147.019 156.21 147.35C156.064 147.681 155.852 147.98 155.589 148.228C155.325 148.476 155.014 148.668 154.675 148.794C154.336 148.92 153.974 148.976 153.613 148.96C153.125 148.978 152.643 148.857 152.222 148.61L152.807 147.622C153.064 147.798 153.37 147.886 153.681 147.873C154.003 147.887 154.318 147.779 154.563 147.57C154.808 147.362 154.966 147.068 155.004 146.748C154.68 146.99 154.283 147.114 153.879 147.098C153.675 147.115 153.47 147.088 153.277 147.018C153.085 146.947 152.91 146.836 152.766 146.691C152.621 146.546 152.509 146.372 152.439 146.18C152.369 145.987 152.342 145.782 152.359 145.578C152.423 145.093 152.671 144.651 153.051 144.343C153.432 144.035 153.915 143.884 154.403 143.921C155.764 143.906 156.584 144.727 156.44 146.3ZM155.019 145.494C155.019 145.137 154.814 144.886 154.396 144.886C154.219 144.874 154.045 144.932 153.911 145.047C153.778 145.162 153.695 145.326 153.681 145.502C153.671 145.585 153.68 145.669 153.708 145.748C153.735 145.827 153.781 145.898 153.84 145.957C153.899 146.016 153.971 146.06 154.051 146.086C154.13 146.113 154.214 146.121 154.297 146.11C154.475 146.125 154.652 146.068 154.789 145.953C154.926 145.837 155.011 145.673 155.026 145.494H155.019Z" fill="#263238"/>
<path d="M172.864 144.005L172.438 148.861H171.062L171.397 145.061H170.492L170.584 144.005H172.864Z" fill="#263238"/>
<path d="M173.38 146.429C173.517 144.826 174.505 143.906 175.752 143.906C176.998 143.906 177.804 144.826 177.667 146.429C177.53 148.033 176.542 148.96 175.303 148.96C174.064 148.96 173.244 148.04 173.38 146.429ZM176.284 146.429C176.375 145.411 176.086 145.031 175.653 145.031C175.22 145.031 174.855 145.411 174.764 146.429C174.672 147.448 174.961 147.835 175.402 147.835C175.843 147.835 176.2 147.44 176.284 146.429Z" fill="#263238"/>
<path d="M191.028 144.005L190.602 148.861H189.226L189.561 145.061H188.656L188.755 144.005H191.028Z" fill="#263238"/>
<path d="M193.847 144.005L193.422 148.861H192.046L192.38 145.061H191.476L191.567 144.005H193.847Z" fill="#263238"/>
<path d="M209.199 144.005L208.774 148.861H207.398L207.732 145.061H206.828L206.919 144.005H209.199Z" fill="#263238"/>
<path d="M213.356 147.774L213.258 148.861H209.458L209.534 148.002L211.502 146.3C211.928 145.943 212.004 145.715 212.019 145.54C212.019 145.228 211.852 145.038 211.434 145.038C211.256 145.038 211.081 145.08 210.923 145.162C210.766 145.244 210.63 145.364 210.529 145.51L209.556 144.94C209.796 144.61 210.114 144.344 210.481 144.168C210.849 143.991 211.254 143.909 211.662 143.929C212.779 143.929 213.501 144.506 213.417 145.403C213.377 145.711 213.271 146.006 213.105 146.268C212.94 146.531 212.72 146.754 212.46 146.923L211.464 147.774H213.356Z" fill="#263238"/>
<path d="M97.92 155.975L97.4944 160.839H96.1188L96.4532 157.039H95.5488L95.64 155.975H97.92Z" fill="white"/>
<path d="M102.085 159.319C102.016 160.14 101.325 160.938 99.8048 160.938C99.1556 160.954 98.5151 160.785 97.958 160.451L98.5508 159.418C98.935 159.682 99.3913 159.823 99.858 159.82C100.329 159.82 100.618 159.646 100.679 159.319C100.74 158.992 100.504 158.84 99.972 158.84H99.44L99.516 157.974L100.466 157.039H98.528L98.6192 155.975H102.138L102.062 156.834L100.96 157.92C101.126 157.936 101.288 157.986 101.435 158.065C101.582 158.144 101.712 158.252 101.817 158.383C101.922 158.513 101.999 158.663 102.045 158.824C102.091 158.984 102.105 159.153 102.085 159.319Z" fill="white"/>
<path d="M116.388 155.975L115.962 160.839H114.587L114.914 157.039H114.017L114.108 155.975H116.388Z" fill="#263238"/>
<path d="M121.358 159.904H120.598L120.515 160.839H119.2L119.276 159.904H116.707L116.783 159.007L119.23 155.967H120.659L118.44 158.84H119.42L119.496 158.012H120.796L120.72 158.84H121.48L121.358 159.904Z" fill="#263238"/>
<path d="M135.479 155.975L135.054 160.839H133.678L134.012 157.039H133.108L133.199 155.975H135.479Z" fill="#263238"/>
<path d="M139.72 159.273C139.644 160.14 138.922 160.938 137.44 160.938C136.793 160.955 136.155 160.786 135.601 160.451L136.186 159.418C136.57 159.682 137.027 159.823 137.493 159.82C137.964 159.82 138.253 159.638 138.322 159.311C138.39 158.984 138.2 158.84 137.44 158.84H136.118L136.612 155.998H139.72L139.621 157.062H137.668L137.539 157.768H137.866C139.317 157.746 139.819 158.414 139.72 159.273Z" fill="#263238"/>
<path d="M153.643 155.975L153.218 160.839H151.88L152.207 157.039H151.272L151.371 155.975H153.643Z" fill="#263238"/>
<path d="M158.249 159.273C158.184 159.76 157.936 160.204 157.554 160.514C157.172 160.823 156.687 160.975 156.197 160.938C154.836 160.938 154.016 160.117 154.152 158.536C154.158 158.175 154.236 157.818 154.382 157.488C154.528 157.157 154.738 156.859 155.001 156.611C155.264 156.363 155.574 156.17 155.912 156.044C156.251 155.918 156.611 155.861 156.972 155.876C157.463 155.859 157.948 155.983 158.37 156.233L157.785 157.221C157.53 157.043 157.222 156.954 156.911 156.97C156.587 156.953 156.268 157.061 156.02 157.271C155.773 157.482 155.616 157.78 155.581 158.103C155.904 157.853 156.305 157.723 156.714 157.738C156.92 157.719 157.128 157.746 157.322 157.817C157.517 157.887 157.694 158 157.841 158.146C157.987 158.293 158.099 158.47 158.17 158.664C158.241 158.859 158.267 159.067 158.249 159.273ZM156.911 159.334C156.921 159.251 156.912 159.167 156.885 159.088C156.857 159.009 156.812 158.938 156.752 158.879C156.693 158.82 156.621 158.776 156.542 158.75C156.463 158.723 156.378 158.715 156.296 158.726C156.113 158.707 155.931 158.761 155.788 158.876C155.646 158.992 155.555 159.159 155.536 159.342C155.525 159.426 155.535 159.512 155.563 159.592C155.591 159.673 155.638 159.746 155.699 159.805C155.76 159.865 155.834 159.909 155.915 159.936C155.996 159.962 156.082 159.969 156.166 159.957C156.257 159.968 156.348 159.96 156.435 159.934C156.522 159.908 156.603 159.864 156.673 159.806C156.743 159.747 156.8 159.676 156.841 159.594C156.882 159.513 156.906 159.425 156.911 159.334Z" fill="#263238"/>
<path d="M171.815 155.975L171.389 160.839H170.014L170.348 157.039H169.444L169.535 155.975H171.815Z" fill="#263238"/>
<path d="M176.496 155.975L176.42 156.834L174.361 160.839H172.841L174.809 157.039H173.532L173.464 157.799H172.294L172.453 155.96L176.496 155.975Z" fill="#263238"/>
<path d="M189.979 155.975L189.561 160.839H188.185L188.512 157.039H187.6L187.699 155.975H189.979Z" fill="#263238"/>
<path d="M194.607 159.402C194.531 160.337 193.619 160.922 192.327 160.922C191.035 160.922 190.268 160.322 190.351 159.402C190.371 159.165 190.452 158.936 190.585 158.738C190.718 158.54 190.899 158.379 191.111 158.27C190.959 158.161 190.838 158.014 190.762 157.843C190.686 157.672 190.657 157.483 190.678 157.297C190.754 156.431 191.59 155.876 192.738 155.876C193.885 155.876 194.63 156.431 194.554 157.297C194.533 157.495 194.468 157.685 194.362 157.854C194.257 158.022 194.115 158.165 193.946 158.27C194.159 158.368 194.337 158.529 194.456 158.732C194.574 158.934 194.627 159.169 194.607 159.402ZM193.232 159.364C193.232 158.992 192.988 158.764 192.555 158.764C192.375 158.745 192.195 158.797 192.053 158.909C191.91 159.021 191.818 159.185 191.795 159.364C191.795 159.737 192.031 159.972 192.472 159.972C192.652 159.988 192.832 159.933 192.973 159.82C193.114 159.707 193.207 159.544 193.232 159.364ZM192.099 157.358C192.099 157.677 192.282 157.867 192.631 157.867C192.706 157.876 192.782 157.869 192.854 157.848C192.927 157.827 192.994 157.792 193.053 157.744C193.112 157.697 193.16 157.638 193.196 157.572C193.232 157.506 193.254 157.433 193.262 157.358C193.262 157.031 193.064 156.841 192.722 156.841C192.648 156.834 192.572 156.841 192.5 156.864C192.428 156.886 192.361 156.922 192.303 156.97C192.245 157.018 192.197 157.077 192.162 157.143C192.127 157.21 192.106 157.283 192.099 157.358Z" fill="#263238"/>
<path d="M208.12 155.975L207.694 160.839H206.319L206.653 157.039H205.749L205.84 155.975H208.12Z" fill="#263238"/>
<path d="M212.718 158.27C212.713 158.633 212.636 158.99 212.49 159.322C212.344 159.654 212.133 159.954 211.869 160.203C211.606 160.451 211.295 160.645 210.955 160.771C210.615 160.897 210.253 160.954 209.891 160.938C209.403 160.953 208.92 160.829 208.5 160.58L209.085 159.592C209.34 159.772 209.648 159.86 209.959 159.843C210.281 159.859 210.597 159.751 210.843 159.542C211.088 159.333 211.245 159.039 211.282 158.718C210.959 158.963 210.562 159.089 210.157 159.076C209.953 159.092 209.748 159.063 209.557 158.993C209.365 158.922 209.191 158.81 209.046 158.666C208.902 158.521 208.791 158.347 208.72 158.156C208.649 157.964 208.621 157.759 208.637 157.556C208.7 157.069 208.947 156.625 209.327 156.316C209.707 156.006 210.192 155.854 210.681 155.891C212.034 155.876 212.855 156.697 212.718 158.27ZM211.297 157.472C211.335 157.107 211.092 156.856 210.674 156.856C210.497 156.844 210.323 156.902 210.189 157.017C210.056 157.132 209.973 157.296 209.959 157.472C209.948 157.555 209.956 157.64 209.983 157.72C210.01 157.8 210.055 157.873 210.115 157.932C210.174 157.992 210.247 158.037 210.326 158.064C210.406 158.091 210.491 158.099 210.575 158.088C210.752 158.1 210.927 158.043 211.062 157.928C211.197 157.812 211.281 157.649 211.297 157.472Z" fill="#263238"/>
<path d="M98.2012 171.76L98.11 172.847H94.31L94.386 171.988L96.4 170.24C96.8256 169.875 96.9016 169.655 96.9168 169.48C96.932 169.305 96.7496 168.978 96.3316 168.978C96.1539 168.978 95.9787 169.02 95.8212 169.102C95.6636 169.184 95.5284 169.304 95.4272 169.45L94.4544 168.88C94.6942 168.55 95.0121 168.285 95.3795 168.109C95.747 167.932 96.1525 167.85 96.5596 167.869C97.6768 167.869 98.3988 168.446 98.3152 169.343C98.2746 169.651 98.168 169.946 98.0027 170.208C97.8374 170.47 97.6173 170.694 97.3576 170.863L96.324 171.76H98.2012Z" fill="#263238"/>
<path d="M98.718 170.377C98.8548 168.773 99.8428 167.854 101.089 167.854C102.336 167.854 103.141 168.773 103.004 170.377C102.868 171.98 101.88 172.908 100.641 172.908C99.402 172.908 98.5812 171.98 98.718 170.377ZM101.621 170.377C101.712 169.358 101.424 168.978 100.99 168.978C100.557 168.978 100.23 169.358 100.101 170.377C99.972 171.395 100.299 171.783 100.74 171.783C101.18 171.783 101.53 171.403 101.621 170.377Z" fill="#263238"/>
<path d="M116.684 171.76L116.586 172.847H112.786L112.862 171.988L114.83 170.286C115.248 169.921 115.324 169.7 115.339 169.526C115.354 169.351 115.18 169.024 114.762 169.024C114.583 169.022 114.406 169.064 114.247 169.146C114.088 169.228 113.952 169.348 113.85 169.495L112.877 168.925C113.117 168.596 113.435 168.332 113.802 168.155C114.17 167.979 114.575 167.896 114.982 167.914C116.099 167.914 116.821 168.492 116.745 169.389C116.703 169.697 116.595 169.992 116.428 170.254C116.262 170.516 116.041 170.739 115.78 170.909L114.792 171.76H116.684Z" fill="#263238"/>
<path d="M119.504 167.96L119.078 172.824H117.68L118.007 169.024H117.11L117.201 167.96H119.504Z" fill="#263238"/>
<path d="M135.776 171.76L135.677 172.847H131.877L131.953 171.988L133.921 170.286C134.347 169.921 134.423 169.7 134.438 169.526C134.453 169.351 134.271 169.024 133.853 169.024C133.675 169.023 133.5 169.066 133.342 169.148C133.185 169.23 133.05 169.349 132.948 169.495L131.976 168.925C132.215 168.596 132.533 168.331 132.901 168.154C133.268 167.978 133.674 167.895 134.081 167.914C135.198 167.914 135.92 168.492 135.836 169.389C135.796 169.696 135.689 169.991 135.524 170.254C135.359 170.516 135.139 170.739 134.879 170.909L133.898 171.76H135.776Z" fill="#263238"/>
<path d="M139.94 171.76L139.842 172.847H136.042L136.118 171.988L138.086 170.286C138.504 169.921 138.58 169.7 138.603 169.526C138.626 169.351 138.436 169.024 138.018 169.024C137.839 169.024 137.663 169.067 137.504 169.149C137.346 169.231 137.209 169.349 137.106 169.495L136.14 168.925C136.379 168.596 136.695 168.331 137.061 168.154C137.428 167.978 137.832 167.895 138.238 167.914C139.363 167.914 140.077 168.492 140.001 169.389C139.96 169.697 139.853 169.993 139.686 170.255C139.519 170.518 139.298 170.741 139.036 170.909L138.048 171.76H139.94Z" fill="#263238"/>
<path d="M153.94 171.76L153.848 172.847H150.048L150.124 171.988L152.108 170.24C152.526 169.875 152.602 169.655 152.617 169.48C152.632 169.305 152.458 168.978 152.04 168.978C151.861 168.976 151.684 169.018 151.525 169.1C151.366 169.183 151.23 169.302 151.128 169.45L150.155 168.88C150.395 168.551 150.713 168.286 151.08 168.11C151.448 167.933 151.853 167.851 152.26 167.869C153.377 167.869 154.099 168.446 154.023 169.343C153.981 169.651 153.873 169.946 153.706 170.208C153.539 170.471 153.318 170.694 153.058 170.863L152.07 171.714L153.94 171.76Z" fill="#263238"/>
<path d="M158.127 171.289C158.059 172.117 157.367 172.908 155.847 172.908C155.199 172.922 154.56 172.757 154 172.429L154.593 171.395C154.977 171.66 155.434 171.801 155.9 171.798C156.372 171.798 156.66 171.616 156.721 171.289C156.782 170.962 156.546 170.818 156.014 170.818H155.437L155.513 169.951L156.463 169.009H154.548L154.639 167.945H158.158L158.082 168.811L156.98 169.89C157.148 169.905 157.311 169.952 157.46 170.031C157.61 170.109 157.742 170.217 157.849 170.347C157.956 170.478 158.036 170.628 158.083 170.79C158.131 170.952 158.146 171.121 158.127 171.289Z" fill="#263238"/>
<path d="M172.111 171.76L172.012 172.847H168.212L168.288 171.988L170.272 170.24C170.698 169.875 170.774 169.655 170.789 169.48C170.804 169.305 170.622 168.978 170.204 168.978C170.026 168.978 169.851 169.02 169.693 169.102C169.536 169.184 169.4 169.304 169.299 169.45L168.326 168.88C168.566 168.55 168.884 168.284 169.251 168.108C169.619 167.931 170.024 167.849 170.432 167.869C171.549 167.869 172.271 168.446 172.187 169.343C172.147 169.651 172.04 169.946 171.875 170.208C171.709 170.47 171.489 170.694 171.23 170.863L170.234 171.76H172.111Z" fill="#263238"/>
<path d="M177.051 171.882H176.291L176.208 172.809H174.908L174.992 171.882H172.4L172.476 170.985L174.923 167.945H176.344L174.118 170.787H175.106L175.174 169.966H176.474L176.405 170.787H177.127L177.051 171.882Z" fill="#263238"/>
<path d="M190.275 171.76L190.184 172.847H186.384L186.46 171.988L188.428 170.286C188.846 169.921 188.922 169.7 188.938 169.526C188.953 169.351 188.778 169.024 188.36 169.024C188.181 169.022 188.004 169.064 187.845 169.146C187.686 169.228 187.55 169.348 187.448 169.495L186.475 168.925C186.715 168.596 187.033 168.332 187.401 168.155C187.768 167.979 188.173 167.896 188.58 167.914C189.698 167.914 190.42 168.492 190.344 169.389C190.301 169.697 190.193 169.992 190.026 170.254C189.86 170.516 189.639 170.739 189.378 170.909L188.39 171.76H190.275Z" fill="#263238"/>
<path d="M194.546 171.251C194.47 172.117 193.748 172.908 192.266 172.908C191.621 172.923 190.983 172.757 190.427 172.429L191.012 171.395C191.397 171.66 191.853 171.801 192.32 171.798C192.791 171.798 193.08 171.608 193.148 171.281C193.216 170.954 192.988 170.787 192.244 170.787H190.921L191.4 167.96H194.501L194.402 169.024H192.449L192.32 169.738H192.646C194.121 169.723 194.622 170.384 194.546 171.251Z" fill="#263238"/>
<path d="M208.447 171.76L208.348 172.847H204.548L204.624 171.988L206.6 170.24C207.026 169.875 207.094 169.655 207.117 169.48C207.14 169.305 206.95 168.978 206.532 168.978C206.354 168.978 206.179 169.02 206.021 169.102C205.864 169.184 205.728 169.304 205.627 169.45L204.654 168.88C204.894 168.55 205.212 168.284 205.579 168.108C205.947 167.931 206.352 167.849 206.76 167.869C207.877 167.869 208.599 168.446 208.515 169.343C208.475 169.651 208.368 169.946 208.203 170.208C208.037 170.47 207.817 170.694 207.558 170.863L206.6 171.76H208.447Z" fill="#263238"/>
<path d="M213.045 171.251C212.98 171.737 212.731 172.18 212.349 172.489C211.968 172.797 211.482 172.947 210.993 172.908C209.632 172.908 208.812 172.087 208.948 170.514C208.954 170.152 209.032 169.796 209.178 169.465C209.324 169.135 209.534 168.837 209.797 168.589C210.06 168.341 210.37 168.148 210.708 168.022C211.047 167.896 211.407 167.838 211.768 167.854C212.258 167.835 212.743 167.956 213.166 168.203L212.581 169.191C212.325 169.015 212.018 168.927 211.707 168.94C211.383 168.923 211.064 169.031 210.816 169.241C210.569 169.452 210.412 169.75 210.377 170.073C210.702 169.826 211.102 169.7 211.51 169.716C211.716 169.696 211.925 169.722 212.12 169.792C212.315 169.862 212.493 169.974 212.64 170.121C212.786 170.268 212.899 170.445 212.969 170.64C213.039 170.836 213.065 171.044 213.045 171.251ZM211.707 171.312C211.719 171.228 211.71 171.143 211.683 171.063C211.656 170.983 211.611 170.911 211.552 170.851C211.492 170.792 211.42 170.747 211.34 170.72C211.26 170.693 211.175 170.685 211.092 170.696C211 170.684 210.908 170.692 210.819 170.717C210.731 170.742 210.649 170.786 210.577 170.844C210.506 170.902 210.448 170.975 210.406 171.056C210.363 171.138 210.338 171.227 210.332 171.319C210.332 171.676 210.537 171.927 210.955 171.927C211.045 171.939 211.137 171.932 211.224 171.907C211.312 171.882 211.393 171.839 211.464 171.782C211.534 171.724 211.592 171.652 211.634 171.572C211.676 171.491 211.701 171.402 211.707 171.312Z" fill="#263238"/>
<path d="M97.16 183.692L97.0688 184.786H93.2688L93.36 183.92L95.3284 182.225C95.7464 181.86 95.8224 181.64 95.8376 181.465C95.8528 181.29 95.6704 180.971 95.26 180.971C95.0808 180.968 94.9036 181.009 94.7444 181.091C94.5852 181.174 94.4489 181.294 94.348 181.442L93.36 180.88C93.5985 180.549 93.9159 180.282 94.2835 180.104C94.6511 179.926 95.0573 179.843 95.4652 179.862C96.5824 179.862 97.3044 180.439 97.2208 181.344C97.1817 181.651 97.0757 181.947 96.9103 182.21C96.7448 182.472 96.524 182.695 96.2632 182.864L95.2676 183.707L97.16 183.692Z" fill="#263238"/>
<path d="M101.834 179.922L101.758 180.781L99.6908 184.786H98.1708L100.139 180.986H98.8624L98.794 181.746H97.6236L97.7832 179.907L101.834 179.922Z" fill="#263238"/>
<path d="M115.636 183.692L115.537 184.786H111.737L111.813 183.92L113.781 182.225C114.199 181.86 114.275 181.64 114.298 181.465C114.321 181.29 114.131 180.971 113.713 180.971C113.534 180.969 113.357 181.011 113.198 181.093C113.039 181.175 112.903 181.295 112.801 181.442L111.836 180.872C112.072 180.541 112.388 180.273 112.754 180.095C113.121 179.917 113.526 179.834 113.933 179.854C115.058 179.854 115.772 180.432 115.696 181.336C115.654 181.644 115.546 181.939 115.379 182.201C115.213 182.463 114.992 182.687 114.731 182.856L113.743 183.7L115.636 183.692Z" fill="#263238"/>
<path d="M120.264 183.358C120.18 184.285 119.276 184.878 117.984 184.878C116.692 184.878 115.924 184.277 116 183.358C116.02 183.12 116.1 182.891 116.233 182.692C116.366 182.494 116.548 182.333 116.76 182.225C116.607 182.116 116.485 181.967 116.409 181.795C116.333 181.622 116.305 181.432 116.327 181.245C116.396 180.378 117.239 179.824 118.387 179.824C119.534 179.824 120.272 180.378 120.203 181.245C120.183 181.444 120.118 181.635 120.012 181.805C119.907 181.975 119.764 182.119 119.595 182.225C119.81 182.322 119.99 182.482 120.109 182.685C120.229 182.888 120.283 183.123 120.264 183.358ZM118.888 183.312C118.888 182.94 118.645 182.712 118.212 182.712C118.032 182.692 117.851 182.744 117.709 182.857C117.567 182.969 117.475 183.132 117.452 183.312C117.452 183.684 117.688 183.92 118.128 183.92C118.309 183.935 118.488 183.881 118.63 183.768C118.771 183.655 118.864 183.491 118.888 183.312ZM117.756 181.306C117.756 181.625 117.938 181.815 118.288 181.815C118.363 181.823 118.439 181.817 118.511 181.796C118.584 181.775 118.651 181.739 118.71 181.692C118.768 181.645 118.817 181.586 118.853 181.52C118.889 181.453 118.911 181.381 118.919 181.306C118.919 180.979 118.714 180.789 118.379 180.789C118.304 180.781 118.229 180.789 118.157 180.811C118.085 180.833 118.018 180.869 117.96 180.917C117.902 180.965 117.854 181.024 117.819 181.091C117.784 181.158 117.763 181.231 117.756 181.306Z" fill="#263238"/>
<path d="M134.727 183.692L134.636 184.786H130.836L130.904 183.92L132.88 182.225C133.298 181.86 133.374 181.64 133.389 181.465C133.404 181.29 133.222 180.971 132.812 180.971C132.632 180.968 132.455 181.009 132.296 181.091C132.137 181.174 132.001 181.294 131.9 181.442L130.927 180.872C131.165 180.541 131.483 180.274 131.85 180.096C132.218 179.919 132.624 179.835 133.032 179.854C134.149 179.854 134.871 180.432 134.788 181.336C134.748 181.644 134.642 181.939 134.477 182.202C134.312 182.465 134.091 182.688 133.83 182.856L132.88 183.692H134.727Z" fill="#263238"/>
<path d="M139.302 182.225C139.296 182.587 139.218 182.944 139.072 183.275C138.926 183.606 138.714 183.905 138.451 184.153C138.187 184.401 137.876 184.594 137.537 184.719C137.198 184.845 136.836 184.902 136.475 184.885C135.987 184.901 135.504 184.777 135.084 184.528L135.669 183.54C135.924 183.72 136.232 183.808 136.543 183.791C136.865 183.806 137.181 183.699 137.427 183.49C137.672 183.281 137.829 182.986 137.866 182.666C137.542 182.909 137.145 183.034 136.741 183.023C136.537 183.041 136.332 183.013 136.139 182.943C135.947 182.873 135.772 182.761 135.628 182.616C135.483 182.472 135.371 182.297 135.301 182.105C135.231 181.912 135.203 181.707 135.221 181.503C135.284 181.017 135.531 180.573 135.911 180.263C136.291 179.954 136.776 179.802 137.265 179.839C138.618 179.824 139.439 180.644 139.302 182.225ZM137.881 181.42C137.891 181.336 137.881 181.251 137.854 181.171C137.826 181.091 137.78 181.019 137.72 180.959C137.66 180.9 137.587 180.855 137.507 180.828C137.427 180.801 137.341 180.793 137.258 180.804C137.081 180.791 136.907 180.849 136.773 180.964C136.64 181.08 136.557 181.243 136.543 181.42C136.531 181.503 136.537 181.588 136.563 181.667C136.589 181.747 136.634 181.82 136.693 181.88C136.752 181.94 136.824 181.985 136.904 182.012C136.983 182.039 137.068 182.047 137.151 182.035C137.329 182.048 137.505 181.991 137.641 181.876C137.777 181.761 137.863 181.597 137.881 181.42Z" fill="#263238"/>
<path d="M152.921 183.266C152.845 184.087 152.123 184.885 150.641 184.885C149.993 184.898 149.354 184.732 148.794 184.406L149.387 183.365C149.774 183.632 150.233 183.772 150.702 183.768C151.166 183.768 151.462 183.593 151.515 183.266C151.568 182.94 151.34 182.795 150.816 182.795H150.238L150.314 181.921L151.264 180.986H149.349L149.44 179.922H152.952L152.876 180.781L151.774 181.868C151.942 181.882 152.105 181.93 152.254 182.008C152.404 182.087 152.536 182.194 152.643 182.325C152.75 182.455 152.83 182.606 152.877 182.767C152.925 182.929 152.94 183.099 152.921 183.266Z" fill="#263238"/>
<path d="M153.446 182.354C153.59 180.751 154.57 179.824 155.817 179.824C157.063 179.824 157.869 180.751 157.732 182.354C157.595 183.958 156.607 184.885 155.368 184.885C154.13 184.885 153.309 183.958 153.446 182.354ZM156.349 182.354C156.44 181.336 156.151 180.948 155.718 180.948C155.285 180.948 154.92 181.336 154.829 182.354C154.738 183.373 155.026 183.76 155.467 183.76C155.908 183.76 156.258 183.373 156.349 182.354Z" fill="#263238"/>
<path d="M102.632 102.205L100.063 104.819L102.146 107.707L102.632 102.205Z" fill="#263238"/>
<path d="M215.424 102.205L217.529 104.819L214.937 107.707L215.424 102.205Z" fill="#263238"/>
<path d="M181.702 107.707H135.593L136.072 102.205H182.181L181.702 107.707Z" fill="#263238"/>
<path d="M271.914 206.735H219.588L229.362 95.0532H281.688L271.914 206.735Z" fill="#404099"/>
<g opacity="0.3">
<path opacity="0.3" d="M271.914 206.735H219.588L229.362 95.0532H281.688L271.914 206.735Z" fill="black"/>
</g>
<g opacity="0.8">
<path opacity="0.8" d="M238.52 139.84H233.428C233.135 139.846 232.843 139.789 232.573 139.674C232.303 139.559 232.06 139.389 231.861 139.173C231.661 138.958 231.51 138.703 231.416 138.425C231.321 138.147 231.287 137.852 231.315 137.56L232.942 119.016C233.01 118.396 233.303 117.822 233.765 117.402C234.226 116.982 234.826 116.745 235.45 116.736H240.549C240.842 116.732 241.133 116.789 241.403 116.904C241.672 117.019 241.914 117.19 242.114 117.405C242.313 117.62 242.465 117.875 242.559 118.152C242.654 118.43 242.689 118.724 242.662 119.016L241.043 137.56C240.973 138.182 240.678 138.757 240.213 139.177C239.748 139.597 239.146 139.833 238.52 139.84Z" fill="white"/>
</g>
<path d="M238.52 130.059C238.444 130.887 237.76 131.678 236.24 131.678C235.592 131.692 234.953 131.526 234.393 131.199L234.986 130.165C235.372 130.432 235.832 130.572 236.301 130.568C236.764 130.568 237.061 130.386 237.114 130.059C237.167 129.732 236.939 129.588 236.415 129.588H235.837L235.913 128.721L236.863 127.779H234.94L235.039 126.715H238.55L238.474 127.581L237.372 128.66C237.54 128.675 237.704 128.722 237.853 128.801C238.003 128.879 238.135 128.987 238.242 129.117C238.349 129.248 238.428 129.398 238.476 129.56C238.524 129.722 238.539 129.891 238.52 130.059Z" fill="#263238"/>
<path d="M270.098 139.84H245.193C244.899 139.846 244.608 139.789 244.338 139.674C244.068 139.559 243.825 139.389 243.626 139.173C243.426 138.958 243.274 138.703 243.18 138.425C243.086 138.147 243.052 137.852 243.08 137.56L244.699 119.016C244.771 118.396 245.065 117.822 245.528 117.403C245.991 116.984 246.59 116.747 247.214 116.736H272.127C272.42 116.731 272.711 116.789 272.98 116.904C273.249 117.019 273.491 117.19 273.689 117.405C273.888 117.621 274.039 117.875 274.133 118.153C274.226 118.43 274.26 118.724 274.232 119.016L272.614 137.56C272.542 138.18 272.247 138.754 271.784 139.173C271.322 139.592 270.722 139.829 270.098 139.84Z" fill="#404099"/>
<path d="M267.628 168.028H242.723C242.43 168.033 242.139 167.976 241.869 167.86C241.6 167.745 241.358 167.574 241.158 167.359C240.959 167.144 240.807 166.89 240.713 166.612C240.618 166.335 240.583 166.04 240.61 165.748L242.236 147.204C242.308 146.584 242.603 146.011 243.066 145.591C243.528 145.172 244.128 144.935 244.752 144.924H269.68C269.973 144.92 270.264 144.977 270.533 145.093C270.803 145.208 271.045 145.379 271.244 145.594C271.444 145.809 271.596 146.063 271.69 146.341C271.784 146.618 271.819 146.912 271.793 147.204L270.166 165.748C270.094 166.373 269.796 166.949 269.329 167.369C268.861 167.789 268.256 168.023 267.628 168.028Z" fill="#263238"/>
<path d="M265.166 196.224H240.253C239.96 196.229 239.669 196.172 239.4 196.056C239.131 195.941 238.889 195.77 238.691 195.555C238.492 195.34 238.341 195.085 238.247 194.808C238.154 194.53 238.12 194.236 238.148 193.944L239.766 175.4C239.838 174.78 240.133 174.207 240.596 173.787C241.058 173.368 241.658 173.131 242.282 173.12H267.187C267.481 173.115 267.772 173.171 268.042 173.286C268.312 173.401 268.555 173.572 268.754 173.787C268.954 174.002 269.106 174.257 269.2 174.535C269.294 174.813 269.328 175.108 269.3 175.4L267.674 193.944C267.605 194.565 267.313 195.139 266.851 195.559C266.389 195.978 265.79 196.215 265.166 196.224Z" fill="#404099"/>
<g opacity="0.8">
<path opacity="0.8" d="M236.065 168.028H230.966C230.673 168.033 230.382 167.976 230.113 167.86C229.844 167.745 229.602 167.574 229.403 167.359C229.205 167.144 229.054 166.889 228.96 166.612C228.867 166.334 228.833 166.04 228.86 165.748L230.479 147.204C230.551 146.584 230.846 146.011 231.308 145.591C231.771 145.172 232.37 144.935 232.995 144.924H238.094C238.387 144.92 238.678 144.977 238.947 145.093C239.216 145.208 239.458 145.379 239.657 145.594C239.855 145.809 240.006 146.064 240.1 146.341C240.193 146.619 240.227 146.913 240.2 147.204L238.581 165.748C238.509 166.369 238.214 166.942 237.752 167.361C237.289 167.781 236.69 168.018 236.065 168.028Z" fill="white"/>
</g>
<path d="M233.474 153.376L233.048 158.24H231.68L232.014 154.44H231.11L231.201 153.376H233.474Z" fill="#263238"/>
<path d="M237.654 156.72C237.585 157.548 236.894 158.338 235.374 158.338C234.726 158.353 234.086 158.187 233.527 157.86L234.112 156.826C234.501 157.087 234.958 157.227 235.427 157.229C235.89 157.229 236.187 157.046 236.24 156.72C236.293 156.393 236.073 156.248 235.541 156.248H234.963L235.039 155.382L235.989 154.44H234.074L234.165 153.376H237.684L237.608 154.242L236.506 155.321C236.674 155.334 236.839 155.381 236.988 155.46C237.138 155.538 237.271 155.645 237.378 155.776C237.485 155.906 237.565 156.057 237.612 156.22C237.659 156.382 237.674 156.552 237.654 156.72Z" fill="#263238"/>
<g opacity="0.8">
<path opacity="0.8" d="M233.595 196.224H228.503C228.21 196.23 227.918 196.174 227.648 196.059C227.378 195.944 227.135 195.773 226.936 195.558C226.736 195.342 226.585 195.087 226.491 194.809C226.397 194.531 226.363 194.237 226.39 193.944L228.009 175.4C228.081 174.78 228.376 174.207 228.838 173.787C229.301 173.368 229.9 173.131 230.525 173.12H235.624C235.918 173.116 236.208 173.173 236.478 173.289C236.747 173.404 236.99 173.575 237.189 173.79C237.388 174.005 237.54 174.259 237.634 174.537C237.729 174.814 237.764 175.108 237.737 175.4L236.111 193.944C236.039 194.565 235.744 195.138 235.282 195.557C234.819 195.977 234.22 196.214 233.595 196.224Z" fill="white"/>
</g>
<path d="M270.782 108.095H239.333L239.85 102.205H271.291L270.782 108.095Z" fill="white"/>
<path d="M161.76 87.2328C161.841 86.3769 162.247 85.5846 162.895 85.0191C163.542 84.4536 164.382 84.1579 165.241 84.1928C165.704 84.1645 166.167 84.2502 166.59 84.4423C167.013 84.6344 167.382 84.9271 167.665 85.2948L166.525 86.2524C166.38 86.0387 166.183 85.8643 165.954 85.745C165.724 85.6256 165.469 85.5649 165.21 85.5684C164.754 85.5581 164.312 85.7276 163.979 86.0404C163.646 86.3531 163.45 86.7841 163.432 87.2404C163.394 87.4521 163.404 87.6697 163.462 87.8769C163.52 88.0841 163.624 88.2754 163.767 88.4364C163.91 88.5973 164.087 88.7238 164.286 88.8063C164.484 88.8888 164.699 88.925 164.914 88.9124C165.19 88.9086 165.463 88.8448 165.712 88.7254C165.961 88.606 166.182 88.4338 166.358 88.2208L167.323 89.1784C166.992 89.5393 166.587 89.8245 166.136 90.0147C165.685 90.2049 165.198 90.2955 164.709 90.2804C164.304 90.3162 163.896 90.2611 163.515 90.1192C163.135 89.9772 162.79 89.7519 162.508 89.4598C162.225 89.1677 162.011 88.8162 161.882 88.4309C161.752 88.0456 161.711 87.6363 161.76 87.2328Z" fill="white"/>
<path d="M171.883 89.0188H169.413L168.851 90.1588H167.164L170.257 84.3068H171.891L173.966 90.1588H172.248L171.883 89.0188ZM171.511 87.7952L170.918 85.9256L170.006 87.7952H171.511Z" fill="white"/>
<path d="M174.946 84.3068H176.603L176.208 88.8668H178.997L178.883 90.1816H174.437L174.946 84.3068Z" fill="white"/>
<path d="M184.347 88.8744L184.233 90.1588H179.536L180.046 84.3068H184.606L184.492 85.5836H181.543L181.459 86.5716H184.058L183.952 87.8028H181.353L181.254 88.8744H184.347Z" fill="white"/>
<path d="M191.233 84.3068L190.724 90.1588H189.356L187.076 87.0352L186.802 90.1588H185.183L185.692 84.3068H187.06L189.34 87.4228L189.614 84.3068H191.233Z" fill="white"/>
<path d="M192.403 84.3068H195.2C197.138 84.3068 198.369 85.4316 198.24 87.2328C198.111 89.034 196.652 90.1588 194.714 90.1588H191.947L192.403 84.3068ZM194.683 88.8668C194.908 88.8833 195.134 88.8546 195.347 88.7824C195.561 88.7103 195.757 88.5961 195.926 88.4466C196.095 88.2971 196.231 88.1154 196.329 87.9122C196.426 87.7089 196.481 87.4883 196.492 87.2632C196.527 87.0516 196.513 86.8348 196.451 86.6296C196.388 86.4244 196.279 86.2365 196.132 86.0805C195.985 85.9245 195.803 85.8046 195.602 85.7303C195.401 85.656 195.185 85.6292 194.972 85.652H193.931L193.65 88.8668H194.683Z" fill="white"/>
<path d="M202.732 89.0188H200.262L199.699 90.1588H198.012L201.105 84.3068H202.739L204.814 90.1588H203.096L202.732 89.0188ZM202.359 87.7952L201.766 85.9256L200.854 87.7952H202.359Z" fill="white"/>
<path d="M207.976 88.6008H207.079L206.942 90.1208H205.285L205.794 84.2688H208.47C210.066 84.2688 211 85.0896 210.879 86.4348C210.853 86.8335 210.717 87.2172 210.487 87.5432C210.256 87.8693 209.939 88.1249 209.572 88.2816L210.674 90.1208H208.88L207.976 88.6008ZM208.257 85.6064H207.36L207.208 87.324H208.12C208.812 87.324 209.176 87.0048 209.222 86.4728C209.268 85.9408 208.941 85.6064 208.257 85.6064Z" fill="white"/>
<path d="M101.72 89.1404H100.96C100.805 89.1434 100.651 89.1134 100.508 89.0524C100.366 88.9913 100.238 88.9007 100.133 88.7864C100.028 88.6721 99.9484 88.5369 99.8997 88.3896C99.851 88.2423 99.8342 88.0863 99.8504 87.932L99.9188 87.172C99.9522 86.8446 100.104 86.5408 100.347 86.3182C100.589 86.0955 100.905 85.9693 101.234 85.9636H101.994C102.149 85.9606 102.303 85.9906 102.445 86.0516C102.588 86.1127 102.716 86.2033 102.821 86.3176C102.926 86.4319 103.005 86.5671 103.054 86.7144C103.103 86.8617 103.119 87.0177 103.103 87.172L103.035 87.932C103.001 88.2594 102.849 88.5631 102.607 88.7858C102.365 89.0085 102.049 89.1347 101.72 89.1404Z" fill="white"/>
<path d="M106.508 89.1404H105.748C105.593 89.1435 105.439 89.1136 105.297 89.0525C105.155 88.9914 105.027 88.9006 104.923 88.7861C104.819 88.6717 104.74 88.5363 104.692 88.389C104.644 88.2417 104.629 88.0859 104.646 87.932L104.714 87.172C104.748 86.8446 104.9 86.5408 105.142 86.3182C105.385 86.0955 105.7 85.9693 106.029 85.9636H106.789C106.944 85.9605 107.098 85.9904 107.24 86.0515C107.382 86.1126 107.51 86.2034 107.614 86.3179C107.719 86.4323 107.797 86.5677 107.845 86.715C107.893 86.8623 107.909 87.0181 107.891 87.172L107.83 87.932C107.795 88.26 107.641 88.5639 107.398 88.7864C107.154 89.009 106.838 89.1349 106.508 89.1404Z" fill="white"/>
<path d="M111.273 89.1404H110.513C110.358 89.1435 110.205 89.1136 110.062 89.0525C109.92 88.9914 109.792 88.9006 109.688 88.7861C109.584 88.6717 109.505 88.5363 109.457 88.389C109.41 88.2417 109.394 88.0859 109.411 87.932L109.48 87.172C109.511 86.8453 109.662 86.5416 109.903 86.3188C110.144 86.0959 110.459 85.9695 110.787 85.9636H111.547C111.702 85.9605 111.855 85.9904 111.998 86.0515C112.14 86.1126 112.268 86.2034 112.372 86.3179C112.476 86.4323 112.555 86.5677 112.603 86.715C112.65 86.8623 112.666 87.0181 112.649 87.172L112.58 87.932C112.549 88.2587 112.398 88.5624 112.157 88.7852C111.916 89.0081 111.601 89.1345 111.273 89.1404Z" fill="white"/>
<path d="M231.619 186.77L231.52 187.857H227.72L227.796 186.998L229.765 185.296C230.183 184.931 230.259 184.71 230.282 184.536C230.282 184.216 230.114 184.034 229.696 184.034C229.518 184.033 229.341 184.076 229.183 184.158C229.024 184.24 228.887 184.359 228.784 184.505L227.819 183.935C228.056 183.603 228.371 183.336 228.738 183.158C229.104 182.98 229.51 182.897 229.917 182.917C231.034 182.917 231.756 183.494 231.68 184.399C231.638 184.707 231.529 185.002 231.363 185.264C231.196 185.526 230.975 185.749 230.715 185.919L229.727 186.77H231.619Z" fill="#263238"/>
<path d="M235.807 186.337C235.731 187.165 235.009 187.956 233.527 187.956C232.879 187.97 232.24 187.804 231.68 187.477L232.273 186.443C232.661 186.707 233.119 186.847 233.588 186.846C234.051 186.846 234.348 186.664 234.401 186.337C234.454 186.01 234.226 185.866 233.702 185.866H233.124L233.2 184.992L234.15 184.057H232.227L232.326 182.993H235.837L235.761 183.859L234.659 184.938C234.827 184.953 234.991 185 235.14 185.079C235.289 185.157 235.421 185.265 235.528 185.395C235.635 185.526 235.715 185.676 235.763 185.838C235.811 186 235.826 186.169 235.807 186.337Z" fill="#263238"/>
<path d="M268.897 126.137H248.362L248.43 125.377H268.966L268.897 126.137Z" fill="white"/>
<path d="M258.326 129.565H248.066L248.126 128.805H258.394L258.326 129.565Z" fill="white"/>
<path d="M263.965 182.491H243.43L243.498 181.731H264.033L263.965 182.491Z" fill="white"/>
<path d="M253.401 185.926H243.133L243.194 185.166H253.462L253.401 185.926Z" fill="white"/>
<path d="M266.45 154.128H245.915L245.976 153.368H266.511L266.45 154.128Z" fill="white"/>
<path d="M255.878 157.556H245.611L245.679 156.796H255.947L255.878 157.556Z" fill="white"/>
<path d="M269.095 120.627C269.543 119.548 269.254 118.765 270.318 118.765C271.382 118.765 270.843 119.525 271.223 120.627C271.42 121.167 270.706 121.068 270.121 121.068C269.536 121.068 268.859 121.182 269.095 120.627Z" fill="white"/>
<path d="M270.288 119.115C270.243 119.115 270.199 119.106 270.158 119.088C270.118 119.07 270.081 119.044 270.051 119.011C270.021 118.978 269.998 118.939 269.984 118.897C269.97 118.854 269.965 118.81 269.969 118.765C269.98 118.671 270.024 118.584 270.094 118.52C270.164 118.456 270.254 118.419 270.349 118.416C270.394 118.414 270.439 118.422 270.48 118.44C270.521 118.457 270.559 118.484 270.589 118.517C270.619 118.55 270.642 118.59 270.656 118.632C270.669 118.675 270.674 118.721 270.668 118.765C270.66 118.861 270.617 118.95 270.547 119.014C270.476 119.079 270.384 119.115 270.288 119.115ZM270.334 118.598C270.288 118.599 270.245 118.617 270.211 118.648C270.178 118.678 270.157 118.72 270.151 118.765C270.149 118.786 270.151 118.808 270.158 118.828C270.165 118.848 270.176 118.867 270.19 118.883C270.204 118.898 270.222 118.911 270.241 118.92C270.261 118.928 270.282 118.933 270.303 118.932C270.349 118.931 270.392 118.913 270.425 118.883C270.459 118.852 270.48 118.81 270.486 118.765C270.488 118.744 270.485 118.723 270.479 118.702C270.472 118.682 270.461 118.664 270.447 118.648C270.433 118.632 270.415 118.619 270.396 118.611C270.376 118.602 270.355 118.598 270.334 118.598Z" fill="white"/>
<path d="M266.64 148.96C267.088 147.881 266.8 147.106 267.864 147.106C268.928 147.106 268.388 147.866 268.768 148.96C268.966 149.5 268.251 149.408 267.666 149.408C267.081 149.408 266.382 149.5 266.64 148.96Z" fill="white"/>
<path d="M267.81 147.44C267.766 147.44 267.722 147.431 267.681 147.413C267.64 147.395 267.603 147.369 267.573 147.336C267.543 147.303 267.52 147.264 267.506 147.222C267.492 147.18 267.487 147.135 267.491 147.09C267.501 146.996 267.544 146.908 267.615 146.843C267.685 146.779 267.776 146.742 267.871 146.741C267.916 146.739 267.961 146.748 268.002 146.765C268.044 146.783 268.081 146.809 268.111 146.842C268.142 146.875 268.164 146.915 268.178 146.958C268.192 147 268.196 147.046 268.19 147.09C268.181 147.185 268.137 147.273 268.067 147.338C267.997 147.402 267.906 147.439 267.81 147.44ZM267.856 146.923C267.811 146.925 267.767 146.942 267.734 146.973C267.7 147.004 267.679 147.045 267.674 147.09C267.671 147.112 267.674 147.133 267.68 147.153C267.687 147.173 267.698 147.192 267.712 147.208C267.727 147.224 267.744 147.236 267.764 147.245C267.783 147.253 267.804 147.258 267.826 147.258C267.871 147.256 267.914 147.238 267.948 147.208C267.981 147.177 268.003 147.135 268.008 147.09C268.011 147.069 268.01 147.046 268.004 147.025C267.998 147.004 267.987 146.984 267.972 146.968C267.958 146.951 267.94 146.938 267.92 146.929C267.9 146.92 267.878 146.915 267.856 146.916V146.923Z" fill="white"/>
<path d="M264.14 177.255C264.588 176.176 264.299 175.393 265.363 175.393C266.427 175.393 265.888 176.153 266.268 177.255C266.465 177.787 265.751 177.696 265.166 177.696C264.58 177.696 263.904 177.84 264.14 177.255Z" fill="white"/>
<path d="M265.333 175.742C265.288 175.743 265.244 175.733 265.203 175.716C265.162 175.698 265.126 175.671 265.096 175.638C265.066 175.605 265.043 175.567 265.029 175.524C265.014 175.482 265.009 175.437 265.014 175.393C265.024 175.299 265.069 175.212 265.139 175.147C265.208 175.083 265.299 175.046 265.394 175.043C265.439 175.042 265.483 175.05 265.525 175.068C265.566 175.085 265.603 175.111 265.634 175.145C265.664 175.178 265.687 175.217 265.7 175.26C265.714 175.303 265.718 175.348 265.713 175.393C265.703 175.488 265.66 175.576 265.589 175.64C265.519 175.705 265.428 175.741 265.333 175.742ZM265.378 175.226C265.333 175.227 265.29 175.245 265.256 175.275C265.223 175.306 265.201 175.348 265.196 175.393C265.194 175.414 265.196 175.435 265.203 175.456C265.21 175.476 265.22 175.494 265.235 175.51C265.249 175.526 265.267 175.539 265.286 175.547C265.306 175.556 265.327 175.56 265.348 175.56C265.394 175.56 265.438 175.543 265.472 175.512C265.506 175.481 265.527 175.438 265.53 175.393C265.533 175.372 265.53 175.35 265.523 175.33C265.517 175.31 265.506 175.291 265.492 175.275C265.477 175.26 265.46 175.247 265.44 175.238C265.421 175.23 265.4 175.225 265.378 175.226Z" fill="white"/>
<path opacity="0.2" d="M109.198 69.2436L69.7924 216.63H83.0544L122.027 69.2436H109.198Z" fill="white"/>
<path opacity="0.2" d="M129.658 69.2436L90.2516 216.63H116.548L155.52 69.2436H129.658Z" fill="white"/>
<path opacity="0.4" d="M84.0609 141.406C84.7754 138.379 82.9006 135.346 79.8736 134.631C76.8465 133.917 73.8134 135.792 73.0989 138.819C72.3845 141.846 74.2592 144.879 77.2863 145.593C80.3134 146.308 83.3465 144.433 84.0609 141.406Z" fill="white"/>
<path opacity="0.4" d="M285.967 140.121C285.967 140.679 285.801 141.225 285.491 141.688C285.181 142.152 284.74 142.514 284.224 142.727C283.709 142.94 283.142 142.995 282.594 142.886C282.047 142.777 281.545 142.507 281.151 142.112C280.757 141.717 280.489 141.214 280.381 140.667C280.273 140.119 280.33 139.552 280.544 139.037C280.759 138.522 281.122 138.082 281.586 137.773C282.051 137.464 282.597 137.3 283.155 137.302C283.525 137.302 283.891 137.375 284.233 137.516C284.574 137.658 284.885 137.866 285.146 138.128C285.407 138.39 285.614 138.701 285.755 139.043C285.896 139.385 285.968 139.751 285.967 140.121Z" fill="white"/>
<path d="M246.652 90.212C246.624 90.4809 246.499 90.7305 246.301 90.9138C246.102 91.0971 245.843 91.2016 245.573 91.2076C245.446 91.2095 245.319 91.1842 245.203 91.1336C245.086 91.0829 244.981 91.0081 244.896 90.9139C244.81 90.8197 244.746 90.7084 244.707 90.5874C244.667 90.4664 244.654 90.3384 244.668 90.212C244.696 89.9438 244.822 89.6951 245.02 89.5131C245.219 89.331 245.478 89.2281 245.748 89.224C245.874 89.221 246 89.2453 246.117 89.295C246.234 89.3448 246.339 89.419 246.424 89.5126C246.51 89.6061 246.575 89.717 246.614 89.8376C246.653 89.9583 246.666 90.0859 246.652 90.212Z" fill="white"/>
<path d="M247.746 87.2632L247.268 88.0764C246.719 87.8392 246.125 87.7226 245.527 87.7344C244.986 87.7331 244.451 87.8525 243.962 88.084L243.574 87.2708C244.228 86.9674 244.94 86.8102 245.66 86.8102C246.381 86.8102 247.093 86.9674 247.746 87.2708V87.2632Z" fill="white"/>
<path d="M249.092 84.968L248.605 85.7888C247.696 85.3615 246.699 85.1532 245.694 85.1808C244.722 85.1814 243.763 85.405 242.89 85.8344L242.51 85.0288C243.525 84.5242 244.644 84.264 245.778 84.2688C246.923 84.2335 248.059 84.4733 249.092 84.968Z" fill="white"/>
<path d="M250.444 82.6348L249.958 83.4784C248.685 82.8558 247.277 82.5631 245.862 82.6272C244.452 82.6144 243.06 82.932 241.796 83.5544L241.423 82.7944C242.828 82.0966 244.376 81.735 245.945 81.738C247.496 81.6627 249.041 81.9707 250.444 82.6348Z" fill="white"/>
<path d="M263.874 91.3672C263.248 91.3772 262.627 91.2542 262.053 91.0063C261.479 90.7584 260.963 90.3913 260.542 89.9292C260.12 89.4672 259.801 88.9208 259.606 88.3262C259.412 87.7316 259.346 87.1025 259.412 86.4804C259.549 85.1567 260.166 83.929 261.146 83.0288C262.126 82.1286 263.402 81.6181 264.732 81.5936V81.8064C263.461 81.8297 262.242 82.3182 261.307 83.1795C260.371 84.0408 259.784 85.2152 259.656 86.4804C259.591 87.0752 259.653 87.6771 259.839 88.2459C260.025 88.8147 260.329 89.3375 260.733 89.7796C261.136 90.2217 261.628 90.5729 262.178 90.8099C262.727 91.047 263.321 91.1644 263.919 91.1544L263.874 91.3672Z" fill="white"/>
<path d="M264.048 91.5572H263.858C263.207 91.5723 262.56 91.4476 261.961 91.1917C261.362 90.9357 260.825 90.5544 260.386 90.0733C259.946 89.5923 259.615 89.0227 259.415 88.4029C259.214 87.7832 259.148 87.1276 259.222 86.4804C259.367 85.1063 260.008 83.8321 261.025 82.8972C262.042 81.9624 263.366 81.4312 264.748 81.4036H264.938L264.884 81.9964H264.694C263.475 82.0198 262.306 82.4887 261.408 83.3148C260.511 84.1409 259.947 85.2669 259.823 86.4804C259.76 87.051 259.82 87.6285 259.998 88.1743C260.175 88.7202 260.467 89.2219 260.854 89.6461C261.241 90.0703 261.714 90.4072 262.241 90.6346C262.768 90.8619 263.338 90.9743 263.912 90.9644H264.102L264.048 91.5572Z" fill="white"/>
<path d="M263.874 91.3672V91.1544C265.145 91.1311 266.364 90.6426 267.299 89.7813C268.235 88.92 268.822 87.7456 268.95 86.4804C269.015 85.8855 268.953 85.2837 268.767 84.7149C268.581 84.1461 268.277 83.6233 267.873 83.1812C267.47 82.7391 266.977 82.3879 266.428 82.1509C265.879 81.9138 265.285 81.7964 264.687 81.8064V81.5936C265.312 81.5822 265.933 81.7043 266.508 81.9519C267.083 82.1995 267.598 82.5667 268.019 83.0292C268.441 83.4917 268.759 84.0387 268.952 84.6339C269.146 85.229 269.21 85.8585 269.14 86.4804C269.006 87.7958 268.397 89.0172 267.428 89.9166C266.459 90.8159 265.195 91.3316 263.874 91.3672Z" fill="white"/>
<path d="M263.858 91.5572H263.668L263.722 90.9644H263.912C265.131 90.941 266.3 90.4721 267.197 89.646C268.095 88.8199 268.659 87.6939 268.783 86.4804C268.846 85.9098 268.786 85.3323 268.608 84.7865C268.431 84.2406 268.139 83.7389 267.752 83.3147C267.365 82.8905 266.892 82.5536 266.365 82.3263C265.838 82.0989 265.268 81.9865 264.694 81.9964H264.504L264.558 81.4036H264.748C265.398 81.3896 266.044 81.5151 266.642 81.7715C267.241 82.028 267.777 82.4095 268.215 82.8904C268.654 83.3713 268.984 83.9405 269.184 84.5597C269.385 85.1789 269.45 85.8338 269.376 86.4804C269.235 87.8545 268.596 89.1295 267.58 90.0648C266.563 91.0001 265.239 91.531 263.858 91.5572Z" fill="white"/>
<path d="M266.8 86.4804H266.587C266.724 84.8996 266.108 82.7792 264.656 81.7912L264.786 81.6088C266.298 82.6424 266.944 84.8388 266.8 86.4804Z" fill="white"/>
<path d="M266.974 86.64H266.382V86.45C266.511 84.93 265.918 82.8704 264.52 81.89L264.375 81.7912L264.74 81.2896L264.884 81.3884C266.45 82.4524 267.164 84.7248 266.974 86.4196V86.64Z" fill="white"/>
<path d="M263.95 91.2L263.843 91.0176C264.613 90.4807 265.257 89.7836 265.732 88.9742C266.207 88.1648 266.501 87.2622 266.594 86.3284H266.815C266.715 87.2986 266.408 88.236 265.913 89.0766C265.419 89.9173 264.749 90.6415 263.95 91.2Z" fill="white"/>
<path d="M263.866 91.466L263.592 90.9644L263.76 90.8656C264.505 90.3427 265.127 89.6641 265.584 88.8767C266.041 88.0893 266.321 87.212 266.404 86.3056V86.1156H266.997V86.3056C266.894 87.3088 266.574 88.2777 266.062 89.1461C265.549 90.0145 264.854 90.7618 264.026 91.3368L263.866 91.466Z" fill="white"/>
<path d="M262.019 86.4804H261.806C261.904 85.5098 262.211 84.5719 262.706 83.731C263.2 82.8901 263.871 82.1662 264.672 81.6088L264.77 81.7912C264.002 82.3296 263.359 83.027 262.884 83.8362C262.409 84.6453 262.114 85.5471 262.019 86.4804Z" fill="white"/>
<path d="M262.194 86.64H261.601V86.45C261.703 85.4473 262.021 84.4786 262.533 83.6102C263.044 82.7418 263.738 81.9942 264.565 81.4188L264.732 81.32L265.014 81.8216L264.846 81.9204C264.101 82.4433 263.477 83.1218 263.019 83.9091C262.561 84.6963 262.28 85.5737 262.194 86.4804V86.64Z" fill="white"/>
<path d="M263.828 91.2C262.308 90.1664 261.677 87.97 261.814 86.3284H262.034C261.898 87.9092 262.513 90.0296 263.965 91.0176L263.828 91.2Z" fill="white"/>
<path d="M263.866 91.466L263.714 91.3672C262.148 90.3032 261.48 88.0308 261.624 86.336V86.146H262.217V86.336C262.08 87.856 262.673 89.9156 264.071 90.896L264.223 90.9948L263.866 91.466Z" fill="white"/>
<path d="M263.988 91.2608H263.775L264.611 81.7H264.831L263.988 91.2608Z" fill="white"/>
<path d="M264.162 91.4508H263.57L264.444 81.51H265.036L264.162 91.4508Z" fill="white"/>
<path d="M268.563 84.0408H260.469L260.492 83.828H268.578L268.563 84.0408Z" fill="white"/>
<path d="M268.738 84.2308H260.264L260.317 83.638H268.783L268.738 84.2308Z" fill="white"/>
<path d="M269.064 86.6704H259.511L259.526 86.4576H269.08L269.064 86.6704Z" fill="white"/>
<path d="M269.239 86.8604H259.298L259.352 86.2676H269.292L269.239 86.8604Z" fill="white"/>
<path d="M267.993 89.2924H260.119L260.134 89.0796H268.016L267.993 89.2924Z" fill="white"/>
<path d="M268.168 89.4824H259.906L259.96 88.8896H268.221L268.168 89.4824Z" fill="white"/>
<path d="M178.13 312.193L183.534 307.709L169.9 294.766L164.078 299.736L178.13 312.193Z" fill="#CB7A63"/>
<path d="M187.927 305.976C187.309 305.79 186.646 305.822 186.05 306.067C185.685 306.174 185.29 306.295 184.97 306.424C184.651 306.554 184.461 306.614 184.264 306.698L183.656 306.964C183.623 306.976 183.594 306.998 183.574 307.026C183.554 307.055 183.542 307.089 183.542 307.124C183.533 307.148 183.533 307.175 183.542 307.2C183.569 307.24 183.609 307.269 183.656 307.283C184.424 307.487 185.211 307.62 186.004 307.678C186.391 307.731 186.784 307.702 187.159 307.595H187.212C187.427 307.526 187.633 307.434 187.828 307.321C187.952 307.22 188.049 307.091 188.111 306.944C188.173 306.797 188.199 306.637 188.185 306.478C188.189 306.379 188.167 306.281 188.121 306.193C188.076 306.105 188.009 306.031 187.927 305.976ZM187.851 306.47C187.868 306.577 187.855 306.688 187.813 306.788C187.771 306.889 187.703 306.976 187.615 307.04C187.434 307.174 187.222 307.26 187 307.291C186.694 307.347 186.382 307.362 186.072 307.336C185.59 307.312 185.11 307.254 184.636 307.162L184.279 307.086C184.922 306.778 185.598 306.544 186.293 306.386C186.663 306.297 187.039 306.233 187.418 306.196C187.532 306.193 187.645 306.222 187.744 306.28C187.777 306.3 187.803 306.328 187.822 306.361C187.84 306.395 187.85 306.432 187.851 306.47Z" fill="#404099"/>
<path d="M185.442 303.126C185.268 303.154 185.102 303.218 184.954 303.313C184.806 303.409 184.68 303.534 184.583 303.681C184.522 303.771 184.471 303.868 184.431 303.97C184.134 304.848 184.076 305.79 184.264 306.698V306.736C184.268 306.767 184.281 306.797 184.301 306.821C184.321 306.845 184.348 306.863 184.378 306.873C184.394 306.88 184.413 306.884 184.431 306.884C184.449 306.884 184.467 306.88 184.484 306.873C184.511 306.869 184.535 306.856 184.552 306.835C184.699 306.705 184.836 306.565 184.963 306.417C185.203 306.131 185.419 305.826 185.609 305.505C186.08 304.745 186.414 303.878 186.209 303.43C186.133 303.24 185.936 303.042 185.442 303.126ZM185.898 303.574C186.027 303.871 185.768 304.547 185.388 305.216C185.157 305.625 184.882 306.007 184.568 306.356C184.463 305.669 184.499 304.969 184.674 304.296C184.718 304.15 184.785 304.012 184.872 303.886C184.995 303.699 185.181 303.562 185.396 303.498H185.502C185.822 303.422 185.882 303.544 185.898 303.574Z" fill="#404099"/>
<path d="M182.835 307.382L176.04 310.84C175.911 310.901 175.807 311.007 175.748 311.138C175.69 311.269 175.68 311.417 175.721 311.554L177.728 317.916C177.776 318.067 177.853 318.206 177.956 318.327C178.059 318.447 178.185 318.546 178.327 318.617C178.469 318.687 178.623 318.729 178.781 318.739C178.94 318.749 179.098 318.728 179.248 318.676L179.369 318.63C191.005 314.534 194.569 311.638 195.793 310.977C199.258 309.084 197.313 306.63 196.013 306.934C190.207 308.324 188.261 307.967 185.746 307.321C184.784 307.11 183.787 307.131 182.835 307.382Z" fill="#263238"/>
<path opacity="0.2" d="M169.9 294.774L176.808 300.892L170.986 305.862L164.078 299.744L169.9 294.774Z" fill="black"/>
<path d="M167.756 305.816L176.436 297.806L174.528 294.447L164.481 303.073L167.756 305.816Z" fill="#404099"/>
<path d="M173.16 295.64L171.997 296.643L170.264 298.163L169.223 299.052L166.183 301.652L165.598 302.153C165.598 302.153 153.225 295.184 146.34 289.233C141.62 285.152 141.194 283.64 140.693 284.02C134.043 289.081 114.359 306.576 103.194 315.681C102.837 315.727 102.472 315.757 102.108 315.788C96.1492 316.221 91.4677 315.575 87.8197 314.184C87.7817 309.343 91.9161 298.042 92.2581 296.947C92.2581 296.947 108.72 280.577 135.403 266.73C135.662 266.6 135.935 266.486 136.209 266.372C136.482 266.258 136.9 266.076 137.25 265.954C138.556 265.433 139.936 265.12 141.339 265.027C142.521 264.98 143.701 265.166 144.812 265.574C145.447 265.798 146.065 266.07 146.659 266.388C147.181 266.66 147.688 266.959 148.179 267.284C149 267.809 149.798 268.394 150.558 268.972C152.26 270.286 165.15 286.885 172.081 294.546C172.484 294.88 172.826 295.283 173.16 295.64Z" fill="#404099"/>
<g opacity="0.6">
<path opacity="0.6" d="M173.16 295.64L171.997 296.643L170.264 298.163L169.223 299.052L166.183 301.652L165.598 302.153C165.598 302.153 153.225 295.184 146.34 289.233C141.62 285.152 141.194 283.64 140.693 284.02C134.043 289.081 114.359 306.576 103.194 315.681C102.837 315.727 102.472 315.757 102.108 315.788C96.1492 316.221 91.4677 315.575 87.8197 314.184C87.7817 309.343 91.9161 298.042 92.2581 296.947C92.2581 296.947 108.72 280.577 135.403 266.73C135.662 266.6 135.935 266.486 136.209 266.372C136.482 266.258 136.9 266.076 137.25 265.954C138.556 265.433 139.936 265.12 141.339 265.027C142.521 264.98 143.701 265.166 144.812 265.574C145.447 265.798 146.065 266.07 146.659 266.388C147.181 266.66 147.688 266.959 148.179 267.284C149 267.809 149.798 268.394 150.558 268.972C152.26 270.286 165.15 286.885 172.081 294.546C172.484 294.88 172.826 295.283 173.16 295.64Z" fill="black"/>
</g>
<path d="M181.246 315.598L187.106 309.882L175.767 295.64L168.684 299.82L181.246 315.598Z" fill="#CB7A63"/>
<path d="M193.087 308.127C192.434 307.899 191.104 308.628 190.047 309.274L189.371 309.723L189.264 309.799L188.808 310.126C188.775 310.145 188.748 310.174 188.733 310.21C188.718 310.246 188.715 310.286 188.725 310.323C188.734 310.361 188.756 310.394 188.786 310.419C188.816 310.444 188.853 310.458 188.892 310.46C189.592 310.487 190.293 310.464 190.99 310.392L191.446 310.338C191.951 310.302 192.438 310.134 192.859 309.852C193.007 309.754 193.147 309.645 193.277 309.525C193.387 309.393 193.462 309.235 193.495 309.067C193.529 308.898 193.519 308.724 193.467 308.56C193.441 308.464 193.393 308.375 193.327 308.3C193.261 308.225 193.179 308.166 193.087 308.127ZM193.087 308.666C193.126 308.776 193.136 308.895 193.115 309.01C193.093 309.124 193.042 309.231 192.966 309.32C192.652 309.631 192.247 309.833 191.81 309.898C191.296 310.018 190.772 310.089 190.245 310.11C190.002 310.11 189.743 310.11 189.485 310.11L189.736 309.913L189.918 309.784C190.733 309.211 191.63 308.765 192.578 308.461C192.695 308.427 192.819 308.427 192.935 308.461C192.986 308.468 193.032 308.492 193.067 308.53C193.102 308.567 193.122 308.615 193.125 308.666H193.087Z" fill="#404099"/>
<path d="M189.834 305.71C189.663 305.778 189.506 305.881 189.376 306.011C189.245 306.142 189.142 306.298 189.074 306.47C188.596 307.64 189.302 309.434 189.424 309.715C189.437 309.746 189.458 309.773 189.485 309.793C189.511 309.813 189.543 309.825 189.576 309.829C189.613 309.84 189.653 309.84 189.69 309.829C189.703 309.828 189.716 309.823 189.727 309.815C189.737 309.807 189.746 309.796 189.751 309.784C189.873 309.622 189.98 309.449 190.07 309.267C190.632 308.21 191.157 306.447 190.701 305.839C190.579 305.672 190.328 305.52 189.834 305.71ZM189.644 309.29C189.439 308.689 189.074 307.42 189.409 306.63C189.494 306.404 189.659 306.217 189.872 306.105L189.971 306.052C190.298 305.923 190.382 306.052 190.412 306.052C190.739 306.523 190.237 308.317 189.644 309.32V309.29Z" fill="#404099"/>
<path opacity="0.2" d="M175.174 294.766L180.509 301.598L173.289 305.619L167.87 298.969L175.174 294.766Z" fill="black"/>
<path d="M179.65 297.821L178.168 298.657L175.622 300.094L173.342 301.37L170.994 302.693L170.12 303.24L169.558 302.83L169.079 302.48C168.516 302.062 167.741 301.477 166.799 300.762C162.079 297.031 153.681 289.704 151.181 283.039C149.562 284.97 147.677 287.432 145.412 290.054C127.796 310.506 108.978 324.923 83.138 318.714C71.9128 316.016 72.3384 300.474 72.3384 300.474C72.3384 294.599 76.6932 288.557 76.6932 288.557L111.068 291.224C115.826 285.448 125.356 276.404 135.107 270.704C135.335 270.56 135.57 270.423 135.806 270.302C136.042 270.18 136.391 269.967 136.68 269.808C139.619 268.143 142.761 266.866 146.028 266.008C146.697 265.848 147.358 265.704 148.004 265.612C148.674 265.51 149.349 265.444 150.026 265.415C154.646 265.202 158.659 266.935 161.38 271.533L179.141 297.13L179.65 297.821Z" fill="#404099"/>
<path opacity="0.5" d="M179.65 297.821L178.168 298.657L175.622 300.094L173.342 301.37L170.994 302.693L170.12 303.24L169.558 302.83L169.079 302.48C168.516 302.062 167.741 301.477 166.799 300.762C162.079 297.031 153.681 289.704 151.181 283.039C149.562 284.97 147.677 287.432 145.412 290.054C127.796 310.506 108.978 324.923 83.138 318.714C71.9128 316.016 72.3384 300.474 72.3384 300.474C72.3384 294.599 76.6932 288.557 76.6932 288.557L111.068 291.224C115.826 285.448 125.356 276.404 135.107 270.704C135.335 270.56 135.57 270.423 135.806 270.302C136.042 270.18 136.391 269.967 136.68 269.808C139.619 268.143 142.761 266.866 146.028 266.008C146.697 265.848 147.358 265.704 148.004 265.612C148.674 265.51 149.349 265.444 150.026 265.415C154.646 265.202 158.659 266.935 161.38 271.533L179.141 297.13L179.65 297.821Z" fill="black"/>
<path d="M168.661 304.836L180.015 299.159L179.042 295.123L166.1 301.028L168.661 304.836Z" fill="#404099"/>
<path d="M186.65 309.267L178.822 311.638C178.674 311.68 178.545 311.773 178.459 311.901C178.372 312.029 178.334 312.184 178.351 312.337L179.301 319.436C179.359 319.767 179.543 320.063 179.816 320.26C180.088 320.457 180.427 320.541 180.76 320.492H180.897C193.969 318.311 198.286 315.932 199.692 315.43C203.712 314.07 202.101 311.114 200.68 311.197C194.273 311.592 192.282 310.855 189.743 309.677C188.762 309.288 187.699 309.147 186.65 309.267Z" fill="#263238"/>
<path d="M147.366 272.156H123.046C122.886 272.159 122.727 272.128 122.58 272.065C122.433 272.002 122.302 271.908 122.194 271.791C122.086 271.673 122.004 271.533 121.955 271.381C121.905 271.229 121.888 271.068 121.906 270.91L123.258 255.36C123.292 255.022 123.448 254.709 123.698 254.479C123.947 254.25 124.272 254.119 124.611 254.114H148.931C149.091 254.11 149.25 254.141 149.397 254.204C149.543 254.267 149.675 254.361 149.783 254.479C149.891 254.597 149.972 254.737 150.022 254.888C150.072 255.04 150.089 255.201 150.071 255.36L148.711 270.917C148.674 271.251 148.518 271.561 148.27 271.789C148.023 272.017 147.702 272.147 147.366 272.156Z" fill="#263238"/>
<path opacity="0.9" d="M147.373 270.932H124.049L125.424 255.276H148.741L147.373 270.932Z" fill="white"/>
<path opacity="0.4" d="M124.391 262.443C124.391 262.58 124.35 262.714 124.274 262.828C124.197 262.942 124.089 263.031 123.962 263.083C123.835 263.135 123.696 263.148 123.561 263.121C123.427 263.094 123.304 263.027 123.208 262.929C123.111 262.832 123.046 262.708 123.02 262.573C122.994 262.439 123.009 262.299 123.062 262.173C123.116 262.047 123.206 261.939 123.321 261.864C123.435 261.789 123.57 261.75 123.707 261.752C123.797 261.752 123.887 261.77 123.97 261.804C124.054 261.839 124.13 261.89 124.193 261.955C124.257 262.019 124.307 262.095 124.341 262.179C124.375 262.263 124.392 262.353 124.391 262.443Z" fill="black"/>
<path opacity="0.4" d="M149.144 262.094C149.144 262.161 149.124 262.227 149.086 262.284C149.049 262.34 148.995 262.384 148.933 262.41C148.87 262.435 148.802 262.442 148.735 262.429C148.669 262.416 148.608 262.383 148.56 262.335C148.512 262.288 148.48 262.227 148.467 262.16C148.453 262.094 148.46 262.025 148.486 261.963C148.512 261.9 148.556 261.847 148.612 261.809C148.668 261.772 148.734 261.752 148.802 261.752C148.893 261.752 148.98 261.788 149.044 261.852C149.108 261.916 149.144 262.003 149.144 262.094Z" fill="black"/>
<path d="M89.9704 227.24C90.8368 231.998 89.5752 238.374 86.2236 241.498C90.0236 248.718 95.7008 255.71 101.028 261.866C108.568 249.766 102.1 241.9 102.1 241.9C96.818 240.57 96.9776 238.427 97.9428 234.764L89.9704 227.24Z" fill="#CB7A63"/>
<path d="M86.4744 239.438C87.0276 238.216 87.975 237.215 89.1648 236.596C90.32 235.919 101.325 237.188 104.023 238.48C105.621 239.219 106.894 240.517 107.602 242.128L86.4744 239.438Z" fill="#404099"/>
<path d="M117.475 223.288L122.369 225.568C122.768 226.847 122.907 228.194 122.78 229.528C122.498 231.2 121.746 231.754 118.98 230.599C116.517 227.483 117.475 223.288 117.475 223.288Z" fill="#CB7A63"/>
<path d="M120.72 220.195L121.267 221.365L122.24 221.92C122.492 222.075 122.688 222.305 122.801 222.578C122.914 222.851 122.939 223.152 122.871 223.44L122.362 225.538L117.475 223.258L118.402 221.411C119.253 220.111 119.922 219.739 120.636 220.081L120.72 220.195Z" fill="#CB7A63"/>
<path d="M115.529 250.739C118.334 244.591 119.512 241.71 122.567 230.333L118.508 229.877C114.442 240.753 109.776 245.366 109.776 245.366C109.776 245.366 86.8848 241.513 84.0424 242.858C79.4368 245.032 81.8992 249.782 84.8024 250.982C87.7056 252.183 104.099 254.881 111.684 253.946C112.546 253.786 113.352 253.407 114.026 252.846C114.699 252.284 115.217 251.559 115.529 250.739Z" fill="#CB7A63"/>
<g opacity="0.2">
<path opacity="0.2" d="M133.161 225.158L133.146 225.173L133.138 225.165L133.161 225.158Z" fill="black"/>
</g>
<path d="M115.871 250.846C120.477 265.734 105.148 267.877 109.031 291.825L76.7236 288.519C78.5096 276.176 82.568 279.399 79.718 255.39C79.4748 253.361 79.376 247.6 82.1272 242.721C83.1875 240.81 84.8766 239.325 86.9076 238.518C89.446 237.538 99.8276 239.864 104.54 240.798C109.784 240.715 115.149 248.968 115.871 250.846Z" fill="#404099"/>
<path d="M109.1 222.216C108.796 222.764 108.856 223.326 109.198 223.516C109.54 223.706 110.057 223.44 110.354 222.908C110.65 222.376 110.597 221.798 110.255 221.608C109.913 221.418 109.388 221.692 109.1 222.216Z" fill="#263238"/>
<path d="M110.08 221.555L111.547 221.89C111.547 221.89 110.354 222.52 110.08 221.555Z" fill="#263238"/>
<path d="M109.191 223.334C109.472 224.779 109.953 226.178 110.62 227.491C110.277 227.65 109.903 227.732 109.525 227.732C109.147 227.732 108.774 227.65 108.431 227.491L109.191 223.334Z" fill="#A02724"/>
<path d="M111.41 218.416C111.467 218.395 111.518 218.359 111.558 218.313C111.598 218.266 111.625 218.21 111.638 218.15C111.656 218.058 111.636 217.962 111.584 217.883C111.531 217.805 111.449 217.751 111.357 217.732C110.807 217.616 110.237 217.633 109.694 217.783C109.152 217.932 108.654 218.209 108.241 218.591C108.2 218.62 108.166 218.657 108.141 218.7C108.116 218.742 108.099 218.79 108.093 218.839C108.087 218.888 108.092 218.938 108.106 218.986C108.12 219.033 108.145 219.077 108.177 219.115C108.209 219.153 108.249 219.183 108.294 219.205C108.339 219.226 108.388 219.238 108.437 219.239C108.487 219.241 108.536 219.232 108.582 219.213C108.628 219.195 108.67 219.166 108.704 219.131L108.75 219.085C109.082 218.79 109.478 218.577 109.907 218.463C110.336 218.35 110.786 218.339 111.22 218.432C111.283 218.446 111.35 218.441 111.41 218.416Z" fill="#263238"/>
<path d="M89.6512 216.912C88.7772 224.276 88.2452 227.377 91.2472 231.785C95.7616 238.412 105.018 237.865 108.066 230.926C110.817 224.656 111.79 213.666 105.186 209.471C103.734 208.537 102.067 207.989 100.344 207.881C98.6204 207.773 96.8982 208.108 95.3409 208.854C93.7837 209.6 92.4433 210.732 91.4474 212.142C90.4514 213.553 89.8331 215.195 89.6512 216.912Z" fill="#CB7A63"/>
<path d="M108.248 230.485C107.702 229.982 107.3 229.342 107.086 228.631C107.078 228.592 107.086 228.551 107.107 228.518C107.128 228.484 107.161 228.459 107.2 228.448C107.238 228.441 107.277 228.448 107.311 228.467C107.345 228.487 107.37 228.518 107.382 228.555C107.575 229.167 107.914 229.723 108.37 230.174L108.248 230.485Z" fill="#263238"/>
<path d="M113.667 214.51C113.683 215.272 113.412 216.011 112.908 216.583C112.404 217.154 111.704 217.516 110.946 217.596C109.958 220.271 107.222 224.352 104.821 222.809C106.219 222.764 108.773 219.594 106.614 217.117C105.034 215.308 102.89 210.558 106.614 209.395C109.495 208.498 113.66 211.592 113.667 214.51Z" fill="#263238"/>
<path d="M107.215 211.508C106.174 207.199 99.9644 203.84 95.5336 203.976C91.1028 204.113 87.0293 206.538 83.784 209.555C82.0968 211.12 80.5236 212.944 79.9232 215.171C79.3228 217.398 79.9232 220.073 81.8688 221.327C74.8008 228.296 80.06 231.124 81.1088 230.645C81.2608 232.393 80.0676 233.426 78.4641 234.574C77.0353 235.592 76.6781 236.801 76.1841 238.48C75.6901 240.16 76.1841 242.28 77.7041 243.04C77.5952 242.78 77.5422 242.5 77.5485 242.218C77.5548 241.936 77.6203 241.659 77.7406 241.404C77.861 241.149 78.0336 240.922 78.2472 240.737C78.4609 240.553 78.7108 240.416 78.9809 240.335C78.6035 241.211 78.4994 242.18 78.6823 243.116C78.8652 244.052 79.3265 244.911 80.0058 245.581C80.6851 246.25 81.5507 246.699 82.4893 246.868C83.4279 247.037 84.3958 246.919 85.266 246.529C84.5668 246.354 83.5864 245.67 83.4724 244.956C85.4793 245.815 87.6072 246.359 89.7804 246.567C91.9616 246.65 94.2873 245.944 95.6325 244.226C95.7161 242.98 97.4033 241.733 98.6725 241.779C99.2988 241.82 99.8876 242.092 100.324 242.543C100.761 242.994 101.015 243.591 101.036 244.218C102.419 243.914 102.989 242.387 103.065 240.981C103.095 240.231 102.867 239.493 102.419 238.891C102.165 238.592 101.852 238.347 101.501 238.17C101.15 237.994 100.767 237.89 100.375 237.865C99.7007 237.668 99.1304 237.215 98.7864 236.603C98.6557 236.259 98.6184 235.887 98.6785 235.523C98.7386 235.16 98.8938 234.82 99.1284 234.536C104.623 226.693 102.032 221.814 102.396 220.856C102.761 219.898 104.524 221.13 104.524 221.13C106.12 219.116 107.8 214.016 107.215 211.508Z" fill="#263238"/>
<path d="M99.06 222.285C98.9237 223.992 99.4703 225.684 100.58 226.989C102.062 228.714 104.061 227.688 104.692 225.636C105.269 223.79 105.186 220.666 103.172 219.693C101.158 218.72 99.2424 220.202 99.06 222.285Z" fill="#CB7A63"/>
<path d="M76.7236 286.026L75.6064 288.853C75.4696 289.066 75.7204 289.317 76.0852 289.355L109.358 292.775C109.647 292.775 109.905 292.684 109.943 292.501L109.502 289.332C109.548 289.142 109.305 288.944 108.986 288.914L77.286 285.874C77.1871 285.849 77.0835 285.851 76.9851 285.877C76.8868 285.904 76.7968 285.955 76.7236 286.026Z" fill="#404099"/>
<path d="M105.862 292.691H104.98C104.806 292.691 104.669 292.6 104.684 292.494L105.148 288.694C105.148 288.587 105.315 288.496 105.49 288.496H106.371C106.546 288.496 106.683 288.587 106.668 288.701L106.204 292.501C106.189 292.6 106.037 292.691 105.862 292.691Z" fill="#263238"/>
<path d="M93.968 291.338H93.0864C92.9192 291.338 92.7824 291.24 92.7976 291.133L93.2612 287.333C93.2612 287.227 93.4284 287.143 93.6032 287.143H94.4848C94.652 287.143 94.7964 287.234 94.7736 287.356L94.3176 291.118C94.3024 291.262 94.12 291.338 93.968 291.338Z" fill="#404099"/>
<path d="M93.968 291.338H93.0864C92.9192 291.338 92.7824 291.24 92.7976 291.133L93.2612 287.333C93.2612 287.227 93.4284 287.143 93.6032 287.143H94.4848C94.652 287.143 94.7964 287.234 94.7736 287.356L94.3176 291.118C94.3024 291.262 94.12 291.338 93.968 291.338Z" fill="#263238"/>
<path opacity="0.2" d="M101.902 249.774C101.902 249.774 99.706 253.095 103.544 263.097L105.163 267.178C105.695 268.531 110.62 266.547 112.292 264.358C112.292 264.358 104.16 257.959 101.902 249.774Z" fill="black"/>
<path d="M139.948 269.8L145.937 266.205L145.891 271.685C145.891 271.685 141.331 275.432 139.31 272.445C139.31 272.46 138.633 270.362 139.948 269.8Z" fill="#CB7A63"/>
<path d="M150.17 267.961L149.919 269.952C149.883 270.253 149.752 270.534 149.544 270.754C149.336 270.975 149.062 271.122 148.764 271.176L145.868 271.685L145.914 266.205L148.825 266.388C149.009 266.393 149.19 266.436 149.358 266.512C149.526 266.588 149.678 266.697 149.803 266.832C149.929 266.967 150.027 267.125 150.091 267.298C150.155 267.471 150.185 267.655 150.178 267.839C150.179 267.88 150.176 267.921 150.17 267.961Z" fill="#CB7A63"/>
<path d="M112.398 273.326C114.42 276.944 117.498 280.166 121.434 281.451C126.07 282.971 136.741 276.944 141.59 273.136C141.59 271.267 141.187 270.765 139.386 270.271C139.386 270.271 134.225 273.136 125.06 274.071C122.096 274.375 120.553 271.191 118.584 266.593C117.604 264.313 113.804 250.542 112.504 248.398C110.452 244.956 103.194 246.316 105.011 254.197C105.794 257.534 110.749 270.37 112.398 273.326Z" fill="#CB7A63"/>
<path d="M113.394 245.86C117.771 251.028 119.154 259.373 119.154 259.373L106.706 264.951C106.706 264.951 99.7593 252.031 101.796 248.079C103.392 245.039 105.862 243.2 108.78 243.39C109.676 243.469 110.547 243.729 111.34 244.153C112.132 244.578 112.831 245.158 113.394 245.86Z" fill="#404099"/>
<path d="M80.858 290.138L79.9764 290.046C79.8092 290.008 79.68 289.932 79.7028 289.818L80.4628 286.102C80.4628 285.988 80.6452 285.92 80.82 285.935L81.7016 286.026C81.8688 286.026 81.998 286.148 81.9752 286.254L81.2152 289.978C81.1866 290.045 81.1339 290.098 81.0678 290.127C81.0016 290.157 80.9267 290.161 80.858 290.138Z" fill="#263238"/>
<path d="M77.3244 285.469L77.251 286.226L108.954 289.301L109.027 288.544L77.3244 285.469Z" fill="#263238"/>
</svg>
