<svg width="360" height="300" viewBox="0 100 360 250" fill="none" xmlns="http://www.w3.org/2000/svg">
<path d="M23.706 295.055L62.7776 294.872L101.857 294.804L180 294.675L258.143 294.804L297.222 294.865L336.294 295.055L297.222 295.237L258.143 295.306L180 295.435L101.857 295.306L62.7776 295.237L23.706 295.055Z" fill="#263238"/>
<path d="M180 342.912C255.607 342.912 316.899 337.56 316.899 330.957C316.899 324.355 255.607 319.002 180 319.002C104.393 319.002 43.1012 324.355 43.1012 330.957C43.1012 337.56 104.393 342.912 180 342.912Z" fill="#EBEBEB"/>
<path d="M204.107 236.687L202.146 248.474L188.831 320.378H186.68L196.363 248.474L197.799 236.687H204.107Z" fill="#C7C7C7"/>
<path d="M197.799 236.687H204.107L202.146 248.474H196.363L197.799 236.687Z" fill="#A6A6A6"/>
<path d="M245.922 320.378H243.772L230.456 248.474L228.496 236.687H234.811L236.24 248.474L245.922 320.378Z" fill="#C7C7C7"/>
<path d="M234.811 236.687L236.24 248.474H230.456L228.496 236.687H234.811Z" fill="#A6A6A6"/>
<path d="M285.853 320.378H283.71L270.394 248.474L268.433 236.687H274.742L276.17 248.474L285.853 320.378Z" fill="#C7C7C7"/>
<path d="M276.17 248.474H270.394L268.433 236.687H274.742L276.17 248.474Z" fill="#A6A6A6"/>
<path d="M282.456 242.227H184.887V231.944H221.412L233.686 145.327H278.732L282.456 242.227Z" fill="#C7C7C7"/>
<path d="M276.771 231.944H184.887V242.227H277.136L276.771 231.944Z" fill="#DBDBDB"/>
<path d="M282.456 242.227H277.136L273.67 145.327H278.732L282.456 242.227Z" fill="#DBDBDB"/>
<path d="M183.207 333.822C185.092 334.005 236.521 321.7 238.14 320.028C238.338 319.838 237.319 315.164 235.86 308.796V308.666C234.933 304.631 219.9 271.951 219.9 271.951L186.566 281.284L201.766 311.6C201.766 311.6 195.496 316.16 190.123 320.439C186.802 323.084 183.944 325.455 183.336 326.222C181.68 328.259 181.322 333.64 183.207 333.822Z" fill="#D3766A"/>
<path d="M183.207 333.822C185.092 334.005 236.521 321.662 238.14 320.028C238.338 319.838 237.319 315.172 235.86 308.796V308.674C235.518 307.154 233.208 301.675 230.449 295.382C224.969 296.864 205.3 302.222 198.164 304.411L201.759 311.6C201.759 311.6 195.489 316.16 190.108 320.439C186.794 323.084 183.929 325.462 183.321 326.23C181.68 328.259 181.315 333.64 183.207 333.822Z" fill="white"/>
<path d="M183.04 334.066C184.978 334.233 236.445 321.792 238.102 320.074C238.74 319.428 237.593 311.304 234.766 302.7L201.599 310.764C201.599 310.764 184.666 324.193 183.04 326.276C181.414 328.358 181.094 333.898 183.04 334.066Z" fill="#404099"/>
<path d="M183.276 331.831C191.856 329.551 226.656 321.077 235.305 319.451C235.381 319.451 235.389 319.489 235.305 319.504C226.854 321.974 191.985 330.144 183.298 331.976C183.131 332.014 183.093 331.877 183.276 331.831Z" fill="#263238"/>
<path d="M185.905 323.623C186.858 323.366 187.854 323.309 188.83 323.457C189.806 323.604 190.741 323.954 191.575 324.482C193.082 325.417 194.171 326.898 194.615 328.616C194.615 328.67 194.531 328.692 194.508 328.616C193.794 326.991 192.573 325.64 191.028 324.765C189.483 323.89 187.697 323.538 185.936 323.76C185.86 323.76 185.837 323.638 185.905 323.623Z" fill="#263238"/>
<path d="M199.099 312.284C202.542 311.402 206.836 311.653 209.67 313.956C209.777 314.047 209.67 314.199 209.534 314.176C206.133 313.321 202.65 312.835 199.144 312.725C199.094 312.718 199.047 312.694 199.011 312.658C198.976 312.621 198.954 312.573 198.948 312.522C198.943 312.471 198.955 312.42 198.982 312.377C199.01 312.334 199.051 312.301 199.099 312.284Z" fill="#263238"/>
<path d="M196.72 313.971C200.163 313.089 204.464 313.34 207.292 315.643C207.398 315.734 207.292 315.886 207.155 315.856C203.739 315 200.24 314.516 196.72 314.412C196.671 314.399 196.628 314.37 196.598 314.331C196.567 314.291 196.55 314.242 196.55 314.192C196.55 314.141 196.567 314.092 196.598 314.052C196.628 314.013 196.671 313.984 196.72 313.971Z" fill="#263238"/>
<path d="M194.273 315.651C197.716 314.769 202.01 315.02 204.837 317.323C204.951 317.414 204.837 317.566 204.708 317.543C201.304 316.688 197.818 316.201 194.311 316.092C194.252 316.097 194.194 316.078 194.149 316.041C194.104 316.003 194.076 315.949 194.071 315.89C194.066 315.832 194.085 315.774 194.122 315.729C194.16 315.684 194.214 315.656 194.273 315.651Z" fill="#263238"/>
<path d="M191.856 317.338C195.299 316.456 199.593 316.707 202.428 319.01C202.534 319.101 202.428 319.253 202.291 319.223C198.889 318.373 195.406 317.889 191.902 317.779C191.851 317.772 191.804 317.748 191.768 317.712C191.733 317.675 191.711 317.627 191.705 317.576C191.7 317.525 191.712 317.474 191.739 317.431C191.767 317.388 191.808 317.355 191.856 317.338Z" fill="#263238"/>
<path d="M231.133 311.79C235.009 310.863 236.453 316.89 232.569 317.817C228.686 318.744 227.249 312.717 231.133 311.79Z" fill="#263238"/>
<path d="M194.638 308.97C197.085 310.924 200.292 311.752 203.157 312.854C203.223 312.873 203.291 312.877 203.358 312.864C203.425 312.852 203.488 312.823 203.543 312.782C203.597 312.74 203.64 312.687 203.67 312.625C203.699 312.564 203.714 312.496 203.712 312.428C203.773 312.428 203.818 312.375 203.796 312.299C202.775 309.193 200.956 306.41 198.521 304.228C197.085 302.989 194.539 302.1 193.14 303.977C191.742 305.854 193.209 307.8 194.638 308.97ZM193.786 306.151C193.224 302.305 197.313 304.372 198.346 305.33C198.998 305.966 199.607 306.644 200.17 307.359C201.356 308.826 202.321 310.399 203.355 312.003C201.972 311.372 200.558 310.863 199.16 310.285C197.48 309.601 194.098 308.264 193.786 306.151Z" fill="#263238"/>
<path d="M215.522 307.131C214.709 304.942 212.019 305.079 210.286 305.87C207.338 307.28 204.812 309.439 202.96 312.132C202.95 312.144 202.944 312.158 202.941 312.172C202.938 312.187 202.939 312.202 202.944 312.216C202.948 312.231 202.956 312.244 202.967 312.254C202.978 312.265 202.991 312.272 203.005 312.276C202.983 312.342 202.978 312.411 202.988 312.479C202.998 312.546 203.025 312.611 203.065 312.666C203.105 312.722 203.157 312.767 203.218 312.799C203.279 312.83 203.347 312.846 203.416 312.846C206.456 312.588 209.792 312.694 212.688 311.509C214.375 310.84 216.298 309.206 215.522 307.131ZM207.983 311.509C206.463 311.668 204.943 311.76 203.476 311.972C204.87 310.712 206.326 309.522 207.839 308.408C208.577 307.879 209.352 307.401 210.157 306.979C211.411 306.348 215.91 305.512 214.291 309.039C213.44 310.984 209.777 311.311 207.983 311.509Z" fill="#263238"/>
<path d="M197.928 308.826L233.648 298.118C233.648 298.118 204.214 236.778 205.141 233.654C205.764 231.572 249.897 231.428 262.832 219.815C276.216 207.792 265.789 184.178 265.789 184.178L228.64 183.988C228.64 183.988 229.278 191.733 227.88 192.941C226.945 193.701 176.2 198.208 166.502 216.858C157.702 233.784 197.928 308.826 197.928 308.826Z" fill="#263238"/>
<path d="M205.126 233.654C204.966 234.179 205.68 236.383 206.988 239.681L180.319 272.445C170.812 250.762 161.874 225.766 166.518 216.858C176.2 198.208 226.953 193.739 227.88 192.941C229.294 191.74 228.64 183.988 228.64 183.988L252.2 184.11L213.06 232.188C208.371 232.704 205.285 233.107 205.126 233.654Z" fill="#263238"/>
<path d="M197.039 301.272C197.983 300.841 198.955 300.478 199.95 300.185C200.976 299.835 202.01 299.486 203.043 299.151C205.08 298.498 207.132 297.867 209.192 297.289C213.334 296.111 217.491 294.964 221.663 293.9C223.844 293.352 228.503 292.144 228.8 292.19C228.936 292.19 228.967 292.44 228.845 292.486C224.81 293.93 220.706 295.169 216.609 296.415C212.513 297.662 208.424 298.9 204.274 299.942C203.127 300.238 201.994 300.489 200.816 300.77C199.612 301.11 198.386 301.364 197.146 301.53C197.024 301.568 196.91 301.34 197.039 301.272Z" fill="#455A64"/>
<path d="M263.782 191.246C263.668 190.008 263.532 188.776 263.387 187.538C263.387 187.393 263.152 187.393 263.167 187.538C263.661 192.554 264.17 197.691 263.243 202.692C262.399 207.309 260.072 211.525 256.616 214.7C249.259 221.54 238.961 223.584 229.37 225.218C223.882 226.153 218.357 226.868 212.809 227.415C210.088 227.681 207.368 227.894 204.647 228.068C201.926 228.243 199.243 228.258 196.545 228.41C195.694 228.456 194.934 228.851 195.063 229.824C195.204 230.417 195.421 230.989 195.709 231.526L196.583 233.495C197.662 235.942 198.752 238.389 199.851 240.836C202.106 245.873 204.386 250.896 206.691 255.907C211.302 265.853 216.085 275.718 221.04 285.502L222.887 289.142C222.932 289.218 223.046 289.142 223.008 289.066C218.271 279.161 213.595 269.227 208.979 259.266C206.699 254.319 204.419 249.386 202.139 244.424L198.764 236.983C198.21 235.737 197.647 234.498 197.092 233.252C196.819 232.636 196.538 232.013 196.264 231.39C195.99 230.766 195.192 229.634 195.77 229.11C196.158 228.79 196.963 228.897 197.427 228.889L199.578 228.813C200.946 228.768 202.306 228.714 203.666 228.646C206.423 228.509 209.181 228.322 211.943 228.084C217.331 227.612 222.712 226.928 228.055 226.07C237.585 224.55 247.952 222.809 255.574 216.41C258.985 213.64 261.526 209.946 262.893 205.77C264.36 201.096 264.231 196.08 263.782 191.246Z" fill="#455A64"/>
<path d="M104.76 286.809C106.105 288.146 153.56 311.471 155.87 311.212C156.144 311.212 158.34 306.949 161.258 301.089L161.312 300.975C163.174 297.266 180.061 266.084 180.061 266.084L150.535 251.134L133.176 281.481C133.176 281.481 125.455 280.98 118.569 280.866C114.328 280.782 110.612 280.79 109.654 280.995C107.124 281.55 103.4 285.479 104.76 286.809Z" fill="#D3766A"/>
<path d="M104.76 286.809C106.105 288.146 153.56 311.471 155.878 311.212C156.144 311.212 158.34 306.949 161.258 301.089L161.312 300.975L161.714 300.215C161.806 300.025 161.904 299.843 162.011 299.653L162.452 298.817C163.744 296.377 165.856 292.433 168.174 288.116L138.071 272.916L133.176 281.474C133.176 281.474 125.455 280.972 118.569 280.858C114.328 280.782 110.604 280.782 109.654 280.987C107.124 281.55 103.392 285.479 104.76 286.809Z" fill="white"/>
<path d="M104.456 286.892C105.847 288.26 153.423 311.486 155.802 311.212C156.698 311.121 161 304.129 164.306 295.701L133.64 280.774C133.64 280.774 112.033 280.326 109.457 280.888C106.88 281.451 103.065 285.524 104.456 286.892Z" fill="#404099"/>
<path d="M106.067 285.319C114.138 289.02 146.347 304.699 154.046 308.97C154.107 308.97 154.084 309.046 154.046 309.016C145.937 305.52 113.88 289.56 106.006 285.448C105.839 285.365 105.9 285.243 106.067 285.319Z" fill="#263238"/>
<path d="M113.333 280.676C114.226 281.087 115.025 281.679 115.679 282.414C116.333 283.149 116.828 284.011 117.133 284.947C117.691 286.632 117.585 288.467 116.836 290.077C116.83 290.09 116.819 290.1 116.806 290.105C116.792 290.11 116.777 290.109 116.764 290.103C116.751 290.097 116.741 290.086 116.736 290.073C116.731 290.059 116.732 290.044 116.738 290.031C117.238 288.32 117.17 286.493 116.544 284.824C115.918 283.155 114.767 281.734 113.264 280.774C113.226 280.736 113.264 280.645 113.333 280.676Z" fill="#263238"/>
<path d="M130.722 280.356C133.936 281.876 137.09 284.802 137.797 288.382C137.797 288.519 137.63 288.557 137.554 288.466C135.48 285.638 133.108 283.041 130.478 280.721C130.436 280.686 130.409 280.637 130.401 280.583C130.393 280.53 130.405 280.475 130.436 280.429C130.466 280.384 130.512 280.351 130.565 280.338C130.617 280.324 130.673 280.331 130.722 280.356Z" fill="#263238"/>
<path d="M127.788 280.113C131.003 281.633 134.157 284.559 134.864 288.139C134.864 288.276 134.696 288.314 134.62 288.222C132.549 285.397 130.183 282.801 127.56 280.478C127.524 280.443 127.502 280.397 127.496 280.347C127.49 280.297 127.501 280.247 127.528 280.204C127.554 280.162 127.595 280.13 127.642 280.113C127.689 280.096 127.741 280.097 127.788 280.113Z" fill="#263238"/>
<path d="M124.854 279.87C128.069 281.39 131.223 284.316 131.93 287.896C131.93 288.032 131.763 288.07 131.687 287.979C129.613 285.151 127.241 282.555 124.611 280.235C124.569 280.2 124.542 280.151 124.534 280.097C124.526 280.043 124.538 279.988 124.568 279.943C124.599 279.897 124.645 279.865 124.697 279.851C124.75 279.838 124.806 279.845 124.854 279.87Z" fill="#263238"/>
<path d="M121.921 279.627C125.136 281.147 128.29 284.073 128.996 287.652C128.996 287.789 128.829 287.827 128.753 287.736C126.678 284.91 124.306 282.313 121.678 279.992C121.636 279.957 121.608 279.908 121.6 279.854C121.592 279.8 121.605 279.745 121.635 279.7C121.665 279.654 121.711 279.622 121.764 279.608C121.817 279.595 121.873 279.601 121.921 279.627Z" fill="#263238"/>
<path d="M155.68 300.398C159.252 302.161 156.531 307.716 152.944 305.961C149.357 304.205 152.131 298.634 155.68 300.398Z" fill="#263238"/>
<path d="M129.407 274.953C130.038 277.993 131.983 280.698 133.488 283.381C133.528 283.436 133.581 283.481 133.642 283.512C133.702 283.543 133.77 283.559 133.838 283.559C133.906 283.559 133.973 283.543 134.034 283.512C134.094 283.481 134.147 283.436 134.187 283.381C134.199 283.391 134.213 283.397 134.227 283.4C134.242 283.402 134.257 283.401 134.272 283.397C134.286 283.392 134.299 283.384 134.309 283.374C134.32 283.363 134.327 283.35 134.332 283.336C135.525 280.293 135.899 276.992 135.418 273.76C135.099 271.882 133.701 269.58 131.436 270.127C129.285 270.674 129.034 273.167 129.407 274.953ZM130.547 272.24C132.561 268.918 134.392 273.121 134.567 274.52C134.666 275.423 134.704 276.332 134.681 277.24C134.607 279.117 134.437 280.99 134.172 282.849C133.511 281.489 132.743 280.197 132.036 278.859C131.193 277.256 129.437 274.071 130.547 272.24Z" fill="#263238"/>
<path d="M146.659 286.862C147.419 284.658 145.268 283.062 143.436 282.545C140.264 281.751 136.938 281.804 133.792 282.697C133.778 282.702 133.765 282.71 133.755 282.72C133.744 282.73 133.736 282.743 133.731 282.757C133.726 282.771 133.724 282.785 133.725 282.8C133.727 282.815 133.731 282.829 133.739 282.842C133.681 282.878 133.633 282.928 133.598 282.986C133.563 283.045 133.542 283.111 133.538 283.18C133.534 283.248 133.545 283.316 133.572 283.379C133.599 283.442 133.641 283.497 133.693 283.541C136.216 285.296 138.694 287.485 141.681 288.42C143.429 288.96 145.937 288.944 146.659 286.862ZM138.063 285.418C136.802 284.582 135.586 283.693 134.263 282.91C136.139 282.811 138.019 282.811 139.895 282.91C140.802 282.972 141.704 283.099 142.593 283.29C143.961 283.602 147.966 285.828 144.47 287.508C142.57 288.473 139.568 286.414 138.063 285.418Z" fill="#263238"/>
<path d="M133.313 276.572L168.919 294.363C168.919 294.363 196.72 237.88 199.76 234.224C203.826 229.368 256.76 236.223 269.254 220.544C282.174 204.334 271.101 184.201 271.101 184.201H230.821C230.821 184.201 230.7 188.67 233.025 195.206C233.025 195.206 186.946 192.462 173.905 205.132C163.873 214.852 133.313 276.572 133.313 276.572Z" fill="#263238"/>
<path d="M240.344 199.257C238.29 197.828 236.159 196.514 233.96 195.32C232.414 194.503 230.789 193.844 229.111 193.352C227.933 193.07 227.416 192.987 228.518 193.504L231.482 194.91C231.27 194.91 231.064 194.91 230.859 194.91C230.099 194.91 229.278 194.841 228.48 194.826C226.96 194.78 225.38 194.826 223.837 194.78C220.69 194.78 217.574 195.062 214.436 195.221C214.36 195.221 214.36 195.35 214.436 195.35C217.567 195.244 220.706 195.411 223.844 195.404C225.364 195.404 226.938 195.442 228.488 195.464L230.768 195.51C231.411 195.544 232.055 195.544 232.698 195.51L233.557 195.92C235.837 196.992 238.117 198.117 240.306 199.356C240.336 199.386 240.405 199.302 240.344 199.257Z" fill="#455A64"/>
<path d="M229.841 182.674C230.251 184.581 230.601 186.474 231.08 188.381C231.3 189.248 231.513 190.122 231.84 190.965C232.09 191.68 232.478 192.485 233.284 192.675C234.218 192.888 234.507 192.098 234.462 191.322C234.416 190.547 234.211 189.582 234.066 188.731C233.907 187.743 233.74 186.755 233.595 185.767C233.527 185.273 233.443 184.779 233.382 184.247C233.382 184.125 233.306 183.175 233.246 182.909C233.242 182.921 233.235 182.931 233.226 182.937C233.216 182.944 233.204 182.948 233.192 182.947C233.178 182.947 233.163 182.942 233.152 182.932C233.141 182.922 233.133 182.909 233.132 182.894C233.132 182.826 233.132 182.81 233.185 182.757C233.196 182.747 233.211 182.741 233.227 182.741C233.242 182.741 233.257 182.747 233.268 182.757C233.451 182.856 233.451 183.107 233.504 183.289C233.641 183.768 233.778 184.247 233.899 184.733C234.135 185.645 234.355 186.557 234.553 187.469C234.75 188.381 234.948 189.301 235.138 190.22C235.35 190.899 235.389 191.62 235.252 192.318C235.156 192.649 234.957 192.94 234.683 193.15C234.41 193.359 234.076 193.475 233.732 193.481L233.823 193.663C233.899 193.853 233.952 194.051 234.013 194.248C234.082 194.443 234.14 194.641 234.188 194.841C234.211 194.939 234.226 195.038 234.234 195.138C234.234 195.244 234.234 195.35 234.234 195.464C234.236 195.5 234.226 195.535 234.205 195.565C234.185 195.594 234.155 195.616 234.121 195.626C234.087 195.637 234.05 195.636 234.017 195.623C233.984 195.61 233.956 195.586 233.937 195.556C233.892 195.457 233.823 195.381 233.77 195.29C233.717 195.186 233.676 195.076 233.648 194.963C233.588 194.773 233.542 194.583 233.496 194.393C233.451 194.203 233.405 194.005 233.375 193.808C233.344 193.61 233.375 193.58 233.375 193.466C232.982 193.416 232.611 193.258 232.303 193.01C231.784 192.54 231.412 191.93 231.232 191.254C230.973 190.456 230.783 189.635 230.593 188.822C230.079 186.829 229.743 184.794 229.59 182.742C229.491 182.522 229.795 182.453 229.841 182.674Z" fill="#455A64"/>
<path d="M249.274 188.092C249.411 189.035 249.487 189.977 249.669 190.912C249.852 191.847 250.072 192.744 250.338 193.64C250.588 194.502 250.959 195.323 251.44 196.08C251.933 196.801 252.527 197.449 253.203 198.003C254.489 199.111 255.947 200.001 257.52 200.64C258.315 200.955 259.127 201.224 259.952 201.446C260.385 201.552 260.826 201.643 261.259 201.719C261.626 201.743 261.985 201.838 262.316 202C262.345 202.022 262.369 202.052 262.384 202.086C262.399 202.12 262.405 202.157 262.401 202.194C262.397 202.231 262.384 202.266 262.362 202.296C262.34 202.326 262.311 202.35 262.278 202.365C261.635 202.537 260.959 202.537 260.317 202.365C259.615 202.274 258.921 202.129 258.242 201.932C256.864 201.518 255.552 200.912 254.343 200.131C253.12 199.382 252.033 198.432 251.128 197.319C250.291 196.147 249.73 194.801 249.487 193.382C249.113 191.648 248.98 189.87 249.092 188.1C249.091 188.088 249.093 188.076 249.097 188.065C249.101 188.054 249.108 188.043 249.116 188.034C249.124 188.026 249.134 188.018 249.144 188.013C249.155 188.008 249.167 188.006 249.179 188.005C249.191 188.005 249.203 188.006 249.214 188.011C249.225 188.015 249.236 188.021 249.245 188.029C249.253 188.037 249.261 188.047 249.266 188.058C249.271 188.069 249.274 188.08 249.274 188.092Z" fill="#455A64"/>
<path d="M140.541 270.096C141.521 270.431 142.476 270.835 143.398 271.305C144.386 271.761 145.382 272.209 146.362 272.68C148.293 273.597 150.208 274.55 152.108 275.538C155.908 277.537 159.708 279.551 163.508 281.618C165.476 282.705 169.694 285.03 169.877 285.266C169.96 285.372 169.824 285.562 169.702 285.509C165.773 283.792 161.942 281.876 158.112 279.969C154.282 278.061 150.451 276.169 146.712 274.064C145.678 273.486 144.668 272.878 143.634 272.293C142.52 271.718 141.448 271.066 140.427 270.34C140.328 270.302 140.396 270.051 140.541 270.096Z" fill="#455A64"/>
<path d="M271.063 193.58C271.056 193.55 271.039 193.523 271.015 193.504C270.991 193.485 270.961 193.475 270.93 193.475C270.899 193.475 270.87 193.485 270.846 193.504C270.821 193.523 270.804 193.55 270.797 193.58C270.873 202.327 269.52 212.108 262.787 218.386C255.4 225.272 244.752 226.092 235.161 225.986C229.658 225.94 224.164 225.796 218.661 225.986C213.159 226.176 207.55 226.434 202.063 227.141C199.924 227.341 197.925 228.294 196.424 229.832C194.98 231.476 193.728 233.278 192.692 235.205C189.921 239.765 187.238 244.401 184.644 249.113C179.491 258.43 174.721 267.943 170.333 277.651C169.786 278.857 169.246 280.065 168.714 281.276C168.676 281.352 168.798 281.42 168.828 281.337C173.287 271.604 178.085 262.033 183.222 252.624C185.786 247.917 188.431 243.258 191.157 238.648C192.441 236.489 193.688 234.27 195.116 232.195C196.386 230.364 197.966 228.646 200.163 227.977C201.505 227.643 202.877 227.444 204.259 227.384C205.663 227.258 207.071 227.141 208.485 227.035C211.221 226.837 213.972 226.685 216.723 226.586C222.271 226.381 227.804 226.45 233.36 226.548C242.989 226.723 253.515 226.396 261.48 220.263C264.897 217.594 267.479 214.002 268.92 209.912C270.339 205.715 271.066 201.316 271.071 196.886C271.094 195.784 271.086 194.682 271.063 193.58Z" fill="#455A64"/>
<path d="M213.394 231.906C211.426 231.906 209.465 232.02 207.504 232.089C205.867 232.061 204.232 232.206 202.625 232.522C201.105 232.894 199.958 233.069 198.742 234.734C197.222 236.808 188.945 252.791 185.472 259.867C184.509 261.828 183.559 263.796 182.622 265.772C181.664 267.817 180.806 269.906 179.848 271.951C179.81 272.019 179.924 272.088 179.962 272.012C180.813 270.302 181.756 268.637 182.637 266.95C183.519 265.263 184.37 263.545 185.221 261.835C186.944 258.385 188.672 254.937 190.404 251.492C192.122 248.072 194.204 244.743 195.952 241.346C197.419 238.488 199.426 234.582 200.816 234.004C202.767 233.24 204.812 232.745 206.896 232.53C209.062 232.378 211.228 232.241 213.394 232.058C213.415 232.058 213.434 232.05 213.448 232.036C213.462 232.022 213.47 232.003 213.47 231.982C213.47 231.962 213.462 231.943 213.448 231.929C213.434 231.914 213.415 231.906 213.394 231.906Z" fill="#455A64"/>
<path d="M256.707 129.512C258.554 136.823 262.027 145.282 260.309 152.904C258.979 158.878 254.586 163.62 249.738 167.078C239.098 174.678 222.773 178.737 212.156 168.781C207.922 164.798 205.369 155.222 210.081 150.541C212.505 148.147 215.743 147.045 218.73 145.54C220.608 144.676 222.267 143.399 223.583 141.804C224.899 140.209 225.838 138.337 226.33 136.329C228.549 127.969 226.656 122.611 225.699 114.289C225.543 113.471 225.562 112.629 225.753 111.819C225.944 111.008 226.304 110.247 226.808 109.584C229.116 106.74 232.339 104.784 235.928 104.052C239.63 103.687 243.794 106.332 247.024 107.814C250.254 109.296 252.048 111.279 252.998 114.79C254.282 119.685 255.46 124.64 256.707 129.512Z" fill="#263238"/>
<path d="M258.333 132.802C256.205 126.213 253.956 119.685 251.744 113.126C251.744 113.126 251.668 113.126 251.676 113.126C253.34 118.575 254.928 124.032 256.661 129.466C258.364 134.786 260.461 140.106 261.7 145.586C264.459 157.814 252.854 165.406 242.29 166.957C241.811 167.025 241.978 167.785 242.457 167.717C251.691 166.068 262.012 160.679 262.734 150.13C263.129 144.354 260.066 138.191 258.333 132.802Z" fill="#263238"/>
<path d="M226.147 113.536C226.141 113.51 226.125 113.487 226.102 113.473C226.079 113.459 226.052 113.454 226.026 113.46C225.999 113.466 225.977 113.483 225.962 113.505C225.948 113.528 225.944 113.556 225.95 113.582C227.029 120.422 228.929 128.242 226.292 134.915C224.991 138.201 222.726 141.015 219.794 142.986C217.476 144.544 214.8 145.183 212.254 146.254C202.306 150.419 205.088 164.441 213.774 168.355C213.949 168.431 214.101 168.127 213.919 168.036C207.748 164.897 204.426 157.578 207.588 151.05C210.126 145.806 217.088 145.874 221.321 142.462C230.054 135.386 228.374 123.302 226.147 113.536Z" fill="#263238"/>
<path d="M244.509 141.102C239.949 150.982 224.338 173.873 216.814 174.914C210.164 175.834 193.703 172.011 188.155 168.963C185.601 167.565 192.016 148.664 196.302 149.56C201.622 150.685 208.888 153.36 213.85 153.634C215.606 153.74 224.057 147.706 238.93 137.902C244.478 134.254 247.078 135.546 244.509 141.102Z" fill="#D3766A"/>
<path d="M187.684 151.916C187.684 151.916 174.444 149.872 173.76 149.994C173.076 150.115 173.221 151.096 173.304 151.863C173.458 152.305 173.652 152.733 173.882 153.14C174.878 155.101 176.565 158.62 173.882 159.418C170.371 160.459 166.586 152.578 166.183 151.248C166.09 150.639 166.126 150.017 166.29 149.424C166.768 147.258 168.266 144.104 170.85 143.298C174.346 142.181 178.336 142.667 181.832 142.842L187.684 151.916Z" fill="#D3766A"/>
<path d="M187.684 151.916C187.684 151.916 174.444 149.872 173.76 149.994C173.076 150.115 173.221 151.096 173.304 151.863C173.458 152.305 173.652 152.733 173.882 153.14C171.176 151.825 168.197 150.366 166.282 149.424C166.761 147.258 168.258 144.104 170.842 143.298C174.338 142.181 178.328 142.667 181.824 142.842L187.684 151.916Z" fill="#263238"/>
<path d="M188.155 168.963C187.463 168.591 183.899 167.542 179.088 165.878C177.796 162.154 174.353 155.055 173.449 153.17C172.803 150.89 170.128 146.422 169.915 146.52C169.527 146.71 168.152 147.379 166.411 148.04C164.131 148.93 161.19 149.849 159.1 149.712C158.613 149.738 158.128 149.629 157.698 149.399C157.268 149.168 156.909 148.825 156.66 148.405C155.9 146.885 159.206 145.084 162.93 142.629C168 139.278 174.406 135.44 177.538 136.367C182.174 137.727 186.741 143.397 188.299 144.924C189.857 146.452 196.302 149.545 196.302 149.545C194.98 156.514 189.12 169.48 188.155 168.963Z" fill="#D3766A"/>
<path d="M172.924 151.757C172.864 151.666 172.81 151.711 172.856 151.825C172.985 152.19 173.563 153.824 173.206 154.006C172.582 154.31 168.881 152.312 167.179 151.726C167.088 151.726 167.034 151.825 167.126 151.848C167.979 152.203 168.814 152.601 169.626 153.041C170.386 153.429 172.666 154.782 173.472 154.394C173.996 154.151 173.16 152.122 172.924 151.757Z" fill="#263238"/>
<path d="M154.776 160.664C154.312 161.112 153.81 161.47 153.59 161.264C153.392 161.044 153.772 160.55 154.228 160.102L154.776 160.664Z" fill="#263238"/>
<path d="M160.073 160.033C159.594 160.504 155.969 160.877 154.624 160.793C154.483 160.772 154.353 160.705 154.253 160.604C154.153 160.503 154.088 160.372 154.069 160.231C154.069 158.908 154.502 155.268 154.981 154.797C155.308 154.478 156.812 153.695 158.287 152.775C160.21 151.59 180.851 132.453 181.193 132.362C181.535 132.27 182.151 132.78 182.455 133.122C182.759 133.464 183.268 134.079 183.169 134.414C183.07 134.748 163.409 154.934 162.178 156.796C161.22 158.232 160.4 159.722 160.073 160.033Z" fill="#37474F"/>
<path d="M160.073 160.041C160.02 160.089 159.958 160.125 159.89 160.147C158.755 159.436 157.707 158.594 156.767 157.639C156.006 156.877 155.357 156.013 154.836 155.07C154.861 154.973 154.911 154.884 154.981 154.812C155.053 154.744 155.132 154.683 155.216 154.63C155.65 155.519 156.98 157.67 160.278 159.782C160.217 159.874 160.149 159.961 160.073 160.041Z" fill="#A6A6A6"/>
<path d="M166.46 148.98L166.184 148.697C165.97 148.477 165.619 148.473 165.399 148.686L159.608 154.33C159.389 154.544 159.384 154.895 159.598 155.115L159.874 155.398C160.088 155.617 160.439 155.622 160.658 155.408L166.45 149.764C166.669 149.55 166.673 149.199 166.46 148.98Z" fill="#263238"/>
<path d="M164.284 150.977L164.13 150.819C164.004 150.69 163.797 150.687 163.668 150.813L159.957 154.431C159.827 154.557 159.825 154.764 159.951 154.893L160.105 155.051C160.231 155.18 160.437 155.183 160.567 155.057L164.278 151.439C164.407 151.313 164.41 151.106 164.284 150.977Z" fill="#A6A6A6"/>
<path d="M161.307 153.133L161.122 153.313L161.732 153.939L161.917 153.759L161.307 153.133Z" fill="#263238"/>
<path d="M179.088 165.878C177.439 165.308 175.972 164.821 174.961 164.525C171.892 163.712 169.249 161.757 167.574 159.06C165.993 156.735 157.899 154.242 161.836 151.795C165.773 149.348 172.826 155.336 173.51 154.303C173.629 153.931 173.607 153.528 173.449 153.17C174.353 155.04 177.796 162.154 179.088 165.878Z" fill="#D3766A"/>
<path d="M221.853 147.06L238.216 153.619C238.216 153.619 243.384 146.422 245.679 142.029C248.719 136.222 247.275 133.737 239.789 136.64C234.773 138.586 221.853 147.06 221.853 147.06Z" fill="#404099"/>
<path d="M236.24 152.821C236.919 153.04 237.586 153.294 238.239 153.581C238.832 152.722 239.402 151.848 240.002 150.997C240.298 150.564 240.602 150.146 240.914 149.728C241.226 149.31 241.621 148.724 241.925 148.314C241.978 148.253 242.062 148.314 242.016 148.375C241.674 148.945 241.408 149.355 241.104 149.849C240.8 150.343 240.557 150.716 240.276 151.141C239.668 152.046 239.06 153.034 238.414 153.9C237.66 153.618 236.926 153.285 236.217 152.904L236.24 152.821Z" fill="#263238"/>
<path d="M224.133 146.171C226.58 146.931 229.012 147.782 231.414 148.717C232.61 149.178 233.798 149.662 234.978 150.168C236.156 150.662 237.258 151.286 238.474 151.772C238.535 151.772 238.474 151.901 238.429 151.871C237.266 151.331 236.027 150.936 234.842 150.457L231.27 149.028C228.883 148.094 226.497 147.151 224.088 146.27C224.019 146.247 224.08 146.148 224.133 146.171Z" fill="#263238"/>
<path d="M227.318 186.056L273.799 189.81C273.799 189.81 261.905 149.256 252.322 139.019C247.959 134.36 243.703 135.067 240.086 138.069C239.189 138.829 228.017 152.996 227.067 157.936C226.231 162.306 229.78 167.154 229.78 167.154L227.318 186.056Z" fill="#404099"/>
<path d="M234.196 145.586C232.797 147.82 231.277 149.971 229.864 152.198C229.14 153.286 228.485 154.418 227.903 155.587C227.305 156.753 226.978 158.039 226.945 159.349C226.869 158.688 226.892 158.02 227.014 157.366C227.144 156.71 227.346 156.07 227.614 155.458C228.159 154.248 228.797 153.082 229.522 151.97C230.19 150.959 230.874 149.948 231.589 148.975C231.703 148.626 231.847 148.284 231.976 147.942C232.199 147.447 232.453 146.967 232.736 146.505C232.594 147.025 232.414 147.533 232.197 148.025L232.014 148.443C232.708 147.465 233.436 146.513 234.196 145.586Z" fill="#263238"/>
<path d="M264.542 162.64C262.716 163.414 260.82 164.012 258.88 164.426C258.309 164.532 257.725 164.555 257.148 164.494C256.558 164.442 256.002 164.196 255.567 163.795C254.796 162.913 254.325 161.808 254.222 160.641C254.045 159.302 253.936 157.955 253.895 156.606C253.899 156.54 253.899 156.474 253.895 156.408C253.895 155.526 253.811 154.645 253.72 153.771C253.625 152.634 253.421 151.509 253.112 150.412C252.823 149.303 252.305 148.268 251.592 147.372C250.876 146.489 249.933 145.818 248.864 145.434C247.779 145.087 246.641 144.943 245.504 145.008C243.93 145.093 242.364 145.304 240.823 145.639H240.656L238.725 146.049C236.878 146.437 235.032 146.809 233.147 147.052C233.185 146.999 233.223 146.946 233.253 146.893C235.085 146.68 236.886 146.285 238.695 145.897L240.709 145.472H240.868C242.391 145.129 243.939 144.916 245.497 144.833C246.656 144.769 247.816 144.913 248.924 145.259C250.026 145.657 251.001 146.344 251.744 147.25C252.47 148.158 253 149.206 253.302 150.328C253.614 151.438 253.817 152.576 253.91 153.725C253.994 154.554 254.039 155.382 254.077 156.21C254.077 156.279 254.077 156.347 254.077 156.408C254.111 157.803 254.217 159.196 254.396 160.58C254.497 161.704 254.949 162.768 255.688 163.62C256.509 164.426 257.778 164.38 258.873 164.221C260.803 163.814 262.691 163.226 264.512 162.465L264.542 162.64ZM237 182.491C236.191 181.63 235.124 181.054 233.96 180.85C233.368 180.803 232.777 180.956 232.28 181.283C231.792 181.597 231.349 181.978 230.966 182.415C229.979 183.573 229.101 184.82 228.344 186.139H228.496C229.242 184.85 230.105 183.632 231.072 182.499C231.832 181.678 232.805 180.865 233.945 180.979C235.064 181.187 236.087 181.749 236.863 182.582C238.383 183.988 239.63 185.622 241.036 187.142H241.302C239.865 185.645 238.558 183.92 237 182.491ZM269.391 176.016L268.905 176.054C266.605 176.419 264.478 177.499 262.825 179.14C261.152 180.717 259.603 182.419 258.189 184.232C257.041 185.607 255.909 187.006 254.64 188.26H254.86C256.099 187.013 257.193 185.653 258.31 184.308C259.718 182.502 261.258 180.802 262.916 179.223C264.547 177.611 266.641 176.549 268.905 176.183L269.429 176.145L269.391 176.016ZM260.309 152.524C258.14 153.005 256.159 154.109 254.609 155.701C254.419 155.876 254.237 156.058 254.054 156.241L253.887 156.408C252.519 157.814 251.303 159.364 250.087 160.892C248.978 162.29 247.883 163.704 246.644 164.988L246.5 165.133C246.204 165.444 245.884 165.748 245.558 166.045C244.723 166.818 243.754 167.433 242.7 167.861C241.631 168.246 240.479 168.335 239.364 168.12C238.25 167.885 237.195 167.428 236.263 166.774C235.322 166.129 234.446 165.393 233.648 164.578C232.007 162.982 230.608 161.166 228.86 159.63C228.307 159.122 227.682 158.697 227.006 158.369V158.536C227.656 158.847 228.256 159.254 228.784 159.744C230.487 161.264 231.908 163.088 233.542 164.707C234.351 165.53 235.236 166.273 236.187 166.926C237.136 167.601 238.215 168.069 239.356 168.302C240.504 168.526 241.691 168.434 242.791 168.036C243.865 167.598 244.849 166.967 245.694 166.174C246.052 165.847 246.401 165.513 246.728 165.171L246.872 165.026C248.081 163.75 249.152 162.359 250.239 160.991C251.391 159.466 252.621 158.002 253.925 156.606C253.977 156.546 254.033 156.49 254.092 156.438C254.298 156.226 254.51 156.013 254.731 155.808C256.261 154.221 258.225 153.121 260.378 152.646L260.309 152.524ZM255.384 167.762C254.595 166.899 253.552 166.308 252.405 166.075C250.574 165.581 248.696 165.361 246.85 165.026H246.644L245.641 164.821C244.521 164.596 243.424 164.265 242.366 163.833C241.309 163.411 240.349 162.777 239.546 161.971C238.754 161.157 238.197 160.143 237.935 159.038C237.717 157.919 237.704 156.771 237.897 155.648C238.319 153.399 238.932 151.189 239.728 149.044C240.093 147.942 240.488 146.832 240.8 145.707L240.846 145.54C241.156 144.514 241.41 143.471 241.606 142.416C241.966 140.659 241.943 138.844 241.537 137.096L241.423 137.165C241.812 138.892 241.825 140.683 241.461 142.416C241.265 143.491 241.012 144.554 240.701 145.601C240.679 145.655 240.661 145.711 240.648 145.768C240.321 146.855 239.956 147.942 239.592 149.021C238.791 151.177 238.17 153.396 237.737 155.656C237.541 156.799 237.554 157.968 237.775 159.106C238.037 160.251 238.608 161.302 239.424 162.146C240.247 162.971 241.23 163.617 242.312 164.046C243.38 164.481 244.487 164.811 245.618 165.034C245.915 165.102 246.219 165.163 246.515 165.216L246.72 165.254C248.613 165.604 250.52 165.817 252.375 166.311C253.492 166.529 254.509 167.099 255.278 167.937C255.985 168.849 255.818 170.111 255.514 171.175C254.765 173.341 253.821 175.434 252.694 177.43C251.588 179.444 250.65 181.546 249.89 183.715C249.52 184.807 249.332 185.952 249.335 187.104C249.344 187.38 249.372 187.654 249.418 187.925H249.525C249.471 187.652 249.441 187.375 249.434 187.097C249.434 185.954 249.624 184.819 249.996 183.738C250.762 181.578 251.703 179.483 252.808 177.475C253.941 175.474 254.892 173.376 255.65 171.205C255.821 170.651 255.913 170.075 255.924 169.495C255.947 168.872 255.753 168.26 255.377 167.762H255.384Z" fill="white"/>
<path d="M242.252 166.174C240.446 166.225 238.648 166.413 236.871 166.736C235.989 166.904 235.123 167.116 234.256 167.344C233.823 167.458 233.39 167.557 232.957 167.656C232.502 167.77 232.035 167.831 231.566 167.838C231.528 167.838 231.52 167.899 231.566 167.899C232.005 167.947 232.447 167.965 232.888 167.952C233.317 167.929 233.744 167.876 234.165 167.793C235.054 167.626 235.944 167.42 236.84 167.246C238.642 166.896 240.443 166.539 242.267 166.318C242.282 166.312 242.294 166.301 242.302 166.287C242.311 166.273 242.314 166.257 242.312 166.241C242.311 166.224 242.304 166.209 242.293 166.197C242.282 166.185 242.268 166.177 242.252 166.174Z" fill="#263238"/>
<path d="M246.599 168.021C245.129 167.78 243.648 167.623 242.16 167.55C241.4 167.512 240.64 167.55 239.926 167.55L238.862 167.603C238.467 167.603 238.102 167.709 237.692 167.732V167.793C238.056 167.793 238.452 167.838 238.801 167.854H239.911L242.138 167.93C243.658 167.968 245.109 168.021 246.591 168.104C246.675 168.15 246.675 168.036 246.599 168.021Z" fill="#263238"/>
<path d="M246.234 136.891C246.28 137.727 244.038 143.936 240.397 144.826C239.212 145.114 237.357 138.708 237.357 138.708L237.114 138.267L233.679 132.088L239.979 124.807L240.906 123.812C240.906 123.812 241.735 125.567 242.746 127.764C242.791 127.862 242.844 127.961 242.89 128.075C242.936 128.189 243.012 128.311 243.057 128.425C243.217 128.752 243.369 129.086 243.521 129.42C243.673 129.755 243.749 129.922 243.855 130.18C243.962 130.439 244.083 130.712 244.205 130.986C245.011 132.907 245.689 134.88 246.234 136.891Z" fill="#D3766A"/>
<path d="M242.73 127.764C242.61 129.818 242.044 131.822 241.071 133.635C240.099 135.449 238.743 137.03 237.099 138.267L233.664 132.088L239.964 124.807L240.891 123.812C240.891 123.812 241.72 125.567 242.73 127.764Z" fill="#263238"/>
<path d="M222.051 122.755C222.454 135.151 229.924 136.314 232.6 136.222C235.024 136.146 243.285 135.561 244.167 123.181C245.048 110.8 239.151 107.069 233.595 106.962C228.04 106.856 221.648 110.352 222.051 122.755Z" fill="#D3766A"/>
<path d="M223.73 120.551C224.011 120.497 224.288 120.423 224.559 120.331C224.862 120.299 225.144 120.161 225.357 119.943C225.418 119.867 225.451 119.771 225.451 119.673C225.451 119.575 225.418 119.48 225.357 119.404C225.209 119.279 225.03 119.195 224.839 119.162C224.648 119.128 224.452 119.146 224.27 119.214C223.877 119.293 223.528 119.515 223.29 119.837C223.244 119.911 223.221 119.996 223.221 120.083C223.221 120.17 223.246 120.255 223.291 120.329C223.337 120.403 223.402 120.463 223.479 120.502C223.557 120.541 223.644 120.558 223.73 120.551Z" fill="#263238"/>
<path d="M232.227 120.08C231.941 120.052 231.657 120.009 231.376 119.951C231.072 119.946 230.779 119.842 230.54 119.654C230.481 119.577 230.45 119.482 230.45 119.385C230.45 119.287 230.481 119.193 230.54 119.115C230.673 118.972 230.842 118.867 231.029 118.811C231.216 118.755 231.414 118.75 231.604 118.796C232.003 118.832 232.375 119.017 232.645 119.312C232.705 119.385 232.742 119.474 232.751 119.567C232.759 119.661 232.74 119.755 232.695 119.837C232.65 119.92 232.582 119.987 232.498 120.03C232.415 120.073 232.321 120.091 232.227 120.08Z" fill="#263238"/>
<path d="M230.426 123.211C230.426 123.211 230.494 123.211 230.494 123.287C230.494 124.131 230.639 125.096 231.406 125.354C231.406 125.354 231.406 125.408 231.406 125.4C230.464 125.301 230.289 124.017 230.426 123.211Z" fill="#263238"/>
<path d="M231.156 122.307C232.508 122.162 232.676 124.883 231.444 125.02C230.213 125.157 230.016 122.428 231.156 122.307Z" fill="#263238"/>
<path d="M231.68 122.413C231.931 122.55 232.182 122.808 232.44 122.816C232.698 122.824 233.002 122.52 233.2 122.231C233.2 122.231 233.246 122.231 233.253 122.231C233.299 122.755 233.132 123.302 232.577 123.416C232.022 123.53 231.68 123.09 231.513 122.573C231.528 122.512 231.596 122.36 231.68 122.413Z" fill="#263238"/>
<path d="M225.729 123.363C225.729 123.363 225.668 123.409 225.668 123.447C225.767 124.283 225.729 125.263 224.992 125.598V125.651C225.919 125.446 225.95 124.146 225.729 123.363Z" fill="#263238"/>
<path d="M224.908 122.542C223.548 122.542 223.654 125.271 224.908 125.271C226.162 125.271 226.056 122.542 224.908 122.542Z" fill="#263238"/>
<path d="M224.346 122.748C224.141 122.9 223.936 123.166 223.677 123.196C223.419 123.226 223.153 122.938 222.917 122.664H222.879C222.879 123.188 223.077 123.72 223.578 123.804C224.08 123.888 224.338 123.416 224.46 122.892C224.513 122.824 224.43 122.687 224.346 122.748Z" fill="#263238"/>
<path d="M227.667 128.942C228.027 129.41 228.5 129.779 229.043 130.013C229.343 130.133 229.673 130.154 229.985 130.074C230.662 129.899 230.684 129.276 230.563 128.736C230.494 128.454 230.392 128.181 230.259 127.923C229.526 128.531 228.618 128.888 227.667 128.942Z" fill="#263238"/>
<path d="M229.043 130.013C229.342 130.133 229.673 130.154 229.985 130.074C230.662 129.899 230.684 129.276 230.563 128.736C230.203 128.749 229.858 128.881 229.583 129.113C229.307 129.344 229.117 129.661 229.043 130.013Z" fill="#FF9CBD"/>
<path d="M227.302 127.285C227.302 127.285 227.204 128.554 227.242 129.147C227.242 129.2 227.386 129.223 227.591 129.223C228.106 129.287 228.629 129.208 229.102 128.995C229.575 128.782 229.981 128.443 230.274 128.014C230.312 127.954 230.228 127.893 230.183 127.931C229.455 128.494 228.564 128.806 227.644 128.82C227.591 128.66 227.888 126.654 227.796 126.654C227.339 126.723 226.892 126.851 226.466 127.034C226.596 124.389 227.15 121.775 227.226 119.138C227.226 119.117 227.218 119.098 227.204 119.084C227.19 119.07 227.171 119.062 227.15 119.062C227.13 119.062 227.111 119.07 227.097 119.084C227.082 119.098 227.074 119.117 227.074 119.138C226.39 121.915 225.985 124.754 225.866 127.612C225.874 127.916 227.074 127.399 227.302 127.285Z" fill="#263238"/>
<path d="M243.278 124.169C241.925 124.085 238.429 120.369 238.345 113.848C238.345 113.848 238.824 119.692 239.257 120.551C239.69 121.41 237.304 118.454 237.167 113.202C235.508 114.381 233.688 115.315 231.764 115.976C229.278 116.66 227.758 116.63 227.584 116.455C227.409 116.28 231.064 115.132 232.052 114C232.052 114 225.44 117.04 222.4 117.268C222.051 117.268 221.64 110.048 226.368 107C231.095 103.953 238.528 107.289 240.519 109.235C240.519 109.235 242.867 109.577 245.413 113.035C247.959 116.493 244.729 124.26 243.278 124.169Z" fill="#263238"/>
<path d="M232.06 127.247C231.03 127.16 230.077 126.667 229.41 125.878C228.743 125.088 228.417 124.066 228.503 123.036C228.566 122.311 228.831 121.618 229.267 121.036C229.704 120.454 230.295 120.006 230.974 119.743C231.653 119.48 232.391 119.413 233.106 119.549C233.821 119.684 234.484 120.018 235.019 120.512C235.553 121.005 235.939 121.639 236.132 122.341C236.325 123.042 236.317 123.784 236.109 124.482C235.902 125.179 235.503 125.804 234.958 126.286C234.412 126.769 233.743 127.088 233.025 127.209C232.706 127.256 232.382 127.268 232.06 127.247ZM229.02 123.082C228.956 123.748 229.092 124.417 229.409 125.006C229.727 125.595 230.212 126.076 230.803 126.388C231.395 126.7 232.066 126.83 232.731 126.76C233.396 126.69 234.025 126.424 234.539 125.996C235.053 125.568 235.428 124.997 235.617 124.355C235.805 123.714 235.799 123.03 235.598 122.392C235.398 121.754 235.012 121.19 234.49 120.772C233.969 120.353 233.334 120.099 232.668 120.042C232.388 120.008 232.105 120.008 231.824 120.042C231.081 120.169 230.4 120.54 229.892 121.098C229.384 121.656 229.077 122.368 229.02 123.12V123.082Z" fill="#404099"/>
<path d="M223.844 127.619C222.248 127.703 220.865 126.016 220.759 123.872C220.693 122.904 220.932 121.939 221.443 121.114C221.641 120.746 221.931 120.435 222.285 120.212C222.639 119.989 223.044 119.862 223.462 119.842C223.879 119.822 224.295 119.911 224.668 120.099C225.042 120.287 225.36 120.568 225.592 120.916C226.185 121.685 226.52 122.621 226.55 123.591C226.649 125.62 225.57 127.346 224.095 127.596C224.012 127.611 223.929 127.619 223.844 127.619ZM221.884 121.402C221.431 122.135 221.218 122.99 221.276 123.85C221.367 125.704 222.507 127.163 223.822 127.102C225.136 127.042 226.102 125.476 226.033 123.614C226.004 122.753 225.709 121.922 225.19 121.235C224.997 120.964 224.741 120.742 224.445 120.59C224.149 120.438 223.82 120.36 223.487 120.361H223.29C222.995 120.427 222.718 120.553 222.476 120.732C222.234 120.912 222.032 121.14 221.884 121.402Z" fill="#404099"/>
<path d="M228.64 123.485L228.952 123.067C228.344 122.603 226.945 122.003 226.041 123.067L226.444 123.401C227.264 122.451 228.64 123.439 228.64 123.485Z" fill="#404099"/>
<path d="M246.036 123.637L246.485 123.371C246.363 123.166 245.261 121.319 244.091 121.19C242.92 121.06 236.058 122.064 235.731 122.102L235.807 122.618C237.798 122.33 243.156 121.608 244 121.706C244.843 121.805 245.74 123.12 246.036 123.637Z" fill="#404099"/>
<path d="M244.334 127.756C244.158 127.849 243.972 127.92 243.779 127.969C243.592 128.025 243.397 128.053 243.202 128.052C242.941 128.062 242.681 128.013 242.442 127.908C242.258 127.831 242.087 127.729 241.932 127.604C241.713 127.426 241.528 127.21 241.385 126.966L241.674 123.599C241.674 123.599 243.908 119.426 245.763 120.179C247.617 120.931 246.295 126.745 244.334 127.756Z" fill="#D3766A"/>
<path d="M245.36 121.836C245.36 121.836 245.406 121.874 245.36 121.889C243.992 122.649 243.399 124.062 243.034 125.506C243.101 125.353 243.199 125.216 243.324 125.104C243.448 124.993 243.595 124.91 243.755 124.861C243.915 124.812 244.083 124.798 244.249 124.82C244.414 124.842 244.573 124.9 244.714 124.99C244.752 124.99 244.714 125.073 244.714 125.073C244.452 125.021 244.181 125.052 243.938 125.162C243.695 125.273 243.493 125.457 243.361 125.689C243.137 126.073 242.956 126.481 242.822 126.905C242.768 127.042 242.525 127.004 242.556 126.852C242.32 124.99 243.414 122.254 245.36 121.836Z" fill="#263238"/>
<path d="M244.106 127.254C244.1 127.33 244.08 127.404 244.045 127.471C244.01 127.539 243.963 127.599 243.905 127.648C243.847 127.696 243.779 127.733 243.707 127.756C243.634 127.778 243.558 127.786 243.483 127.779C243.332 127.767 243.191 127.695 243.093 127.58C242.995 127.464 242.946 127.314 242.958 127.163C242.97 127.012 243.042 126.872 243.158 126.774C243.273 126.675 243.423 126.627 243.574 126.639C243.65 126.644 243.723 126.663 243.791 126.697C243.859 126.731 243.92 126.778 243.969 126.835C244.019 126.892 244.056 126.959 244.08 127.031C244.103 127.103 244.112 127.179 244.106 127.254Z" fill="white"/>
<path d="M245.17 126.251C245.164 126.331 245.134 126.406 245.085 126.469C245.036 126.531 244.969 126.578 244.894 126.603C244.818 126.627 244.737 126.629 244.66 126.608C244.583 126.586 244.515 126.543 244.463 126.482C244.411 126.422 244.378 126.348 244.369 126.269C244.359 126.19 244.373 126.11 244.409 126.039C244.444 125.967 244.501 125.909 244.57 125.869C244.639 125.83 244.718 125.812 244.798 125.818C244.851 125.821 244.903 125.834 244.951 125.858C244.999 125.882 245.042 125.915 245.076 125.955C245.111 125.996 245.137 126.043 245.153 126.094C245.17 126.144 245.175 126.198 245.17 126.251Z" fill="white"/>
<path d="M254.48 141.238C262.931 154.333 274.05 176.244 268 180.447C258.044 187.355 230.411 189.567 224.088 189.81C221.359 189.916 217.377 171.828 219.368 169.693C221.359 167.557 250.323 168.272 250.665 166.516C250.862 165.52 249.213 156.727 247.26 145.783C244.988 133.167 252.033 137.492 254.48 141.238Z" fill="#D3766A"/>
<path d="M224.186 168.621C224.186 168.621 215.918 167.861 210.506 167.664C207.466 167.542 202.26 167.785 199.996 168.712C196.606 170.103 183.276 178.06 185.16 181.328C186.848 184.285 197.404 176.008 197.404 176.008C197.404 176.008 186.004 183.434 188.694 186.648C191.385 189.863 202.04 178.843 202.04 178.843C202.04 178.843 190.503 186.732 193.786 189.582C196.272 191.733 206.509 182.362 206.509 182.362C206.509 182.362 196.629 189.202 199.099 191.535C201.82 194.104 211.806 186.04 211.806 186.04C219.056 190.897 224.49 190.251 228.306 189.324C229.225 189.103 224.186 168.621 224.186 168.621Z" fill="#D3766A"/>
<path d="M201.158 173.174C199.79 174.002 198.4 174.823 197.108 175.765C195.816 176.708 194.554 177.696 193.353 178.752C191.759 180.102 190.325 181.633 189.082 183.312C191.506 180.492 196.082 177.05 197.374 176.107C198.666 175.165 199.912 174.154 201.174 173.212C201.227 173.196 201.196 173.158 201.158 173.174Z" fill="#263238"/>
<path d="M204.647 177.779C202.944 178.904 201.212 179.96 199.555 181.169C197.898 182.377 196.454 183.646 194.896 184.969C194.774 185.068 194.896 185.098 194.995 184.969C196.598 183.73 198.187 182.689 199.813 181.48C201.44 180.272 203.013 178.965 204.677 177.802C204.708 177.84 204.677 177.764 204.647 177.779Z" fill="#263238"/>
<path d="M208.356 181.192C205.699 182.858 203.221 184.793 200.961 186.968C200.847 187.074 200.961 187.097 201.098 186.968C203.522 185.007 205.407 183.441 208.409 181.252C208.454 181.252 208.409 181.161 208.356 181.192Z" fill="#263238"/>
<path d="M225.76 168.348C223.837 168.18 221.747 168.279 219.771 168.203C218.046 168.135 216.427 167.907 214.747 167.793C211.304 167.565 206.22 167.246 202.8 167.793C200.315 168.188 197.244 170.21 195.496 171.03C195.42 171.068 195.496 171.175 195.557 171.152C198.833 169.974 200.809 168.568 203.773 168.112C207.185 167.618 216.092 168.287 219.52 168.484C221.526 168.598 223.746 168.393 225.752 168.484C225.763 168.491 225.776 168.494 225.789 168.494C225.802 168.494 225.814 168.491 225.825 168.484C225.837 168.478 225.846 168.469 225.853 168.458C225.86 168.447 225.864 168.435 225.865 168.422C225.865 168.409 225.863 168.396 225.857 168.385C225.852 168.373 225.843 168.363 225.833 168.356C225.822 168.348 225.81 168.344 225.797 168.342C225.784 168.341 225.771 168.343 225.76 168.348Z" fill="#263238"/>
<path d="M265.257 157.86L247.693 156.34C247.693 156.34 246.318 147.584 246.242 142.66C246.143 136.108 248.522 134.535 253.933 140.494C257.52 144.476 265.257 157.86 265.257 157.86Z" fill="#404099"/>
<path d="M249.836 156.56C249.654 156.507 247.853 156.294 247.716 156.317C247.587 155.283 247.465 154.25 247.313 153.216C247.237 152.699 247.161 152.182 247.07 151.696C246.979 151.21 246.888 150.48 246.796 149.978C246.796 149.902 246.682 149.91 246.69 149.978C246.736 150.64 246.796 151.126 246.842 151.704C246.888 152.281 246.941 152.722 247.002 153.224C247.138 154.303 247.237 155.458 247.427 156.522C248.227 156.612 249.032 156.645 249.836 156.621C249.836 156.621 249.867 156.56 249.836 156.56Z" fill="#263238"/>
<path d="M263.6 156.043C261.054 155.648 258.516 155.283 255.954 155.04C254.678 154.918 253.401 154.82 252.154 154.728C250.908 154.637 249.578 154.728 248.309 154.592C248.233 154.592 248.233 154.698 248.309 154.706C249.586 154.706 250.87 154.949 252.147 155.055C253.424 155.162 254.708 155.268 255.947 155.39C258.493 155.625 261.046 155.861 263.592 156.15C263.691 156.165 263.691 156.051 263.6 156.043Z" fill="#263238"/>
<path d="M307.984 187.598H52.016V196.703H307.984V187.598Z" fill="#37474F"/>
<path d="M298.826 196.703H61.1816V205.8H298.826V196.703Z" fill="#455A64"/>
<path d="M61.1968 333.526H57.5184L68.2268 205.808H77.6204L61.1968 333.526Z" fill="#455A64"/>
<path d="M77.6203 205.808L76.5183 214.35H67.5123L68.2267 205.808H77.6203Z" fill="#263238"/>
<path d="M298.803 333.526H302.482L291.773 205.808H282.38L298.803 333.526Z" fill="#455A64"/>
<path d="M282.38 205.808L283.482 214.35H292.488L291.773 205.808H282.38Z" fill="#263238"/>
<path d="M116.388 187.598H169.185L156.364 152.365H103.567L116.388 187.598Z" fill="#263238"/>
<path d="M114.518 187.598H167.315L154.494 152.365H101.696L114.518 187.598Z" fill="#37474F"/>
<path d="M101.69 152.365L114.518 187.598H135.874L106.637 152.365H101.69Z" fill="#263238"/>
<path d="M105.11 187.598H111.539L117.3 177.604H110.878L105.11 187.598Z" fill="#455A64"/>
<path d="M117.3 177.604V187.598H111.539L117.3 177.604Z" fill="#37474F"/>
<path d="M141.156 187.598H147.578L153.347 177.604H146.925L141.156 187.598Z" fill="#455A64"/>
<path d="M153.347 177.604V187.598H147.578L153.347 177.604Z" fill="#263238"/>
<path d="M233.626 185.683H190.952V187.598H233.626V185.683Z" fill="#C7C7C7"/>
<path d="M212.429 185.683H190.952V187.598H212.429V185.683Z" fill="#A6A6A6"/>
<path d="M210.119 187.598H168.532L163.09 159.349H204.685L210.119 187.598Z" fill="#C7C7C7"/>
<path d="M189.12 173.478C189.155 173.797 189.123 174.121 189.024 174.427C188.925 174.734 188.763 175.016 188.548 175.255C188.332 175.494 188.069 175.684 187.775 175.814C187.48 175.944 187.162 176.01 186.84 176.008C186.151 175.997 185.49 175.733 184.983 175.266C184.476 174.8 184.158 174.163 184.089 173.478C184.052 173.157 184.084 172.833 184.182 172.526C184.28 172.218 184.442 171.935 184.658 171.696C184.873 171.456 185.137 171.264 185.432 171.134C185.727 171.003 186.046 170.937 186.369 170.939C187.058 170.953 187.719 171.218 188.226 171.686C188.733 172.154 189.051 172.791 189.12 173.478Z" fill="#A6A6A6"/>
<path d="M83.4572 182.924L82.0892 182.75L89.1344 129.185L114.693 115.155L115.354 116.364L90.4112 130.059L83.4572 182.924Z" fill="#263238"/>
<path d="M87.8271 129.618C87.8271 130.003 87.9413 130.379 88.155 130.699C88.3688 131.019 88.6727 131.268 89.0282 131.415C89.3837 131.563 89.7749 131.601 90.1523 131.526C90.5297 131.451 90.8764 131.266 91.1485 130.994C91.4206 130.722 91.6059 130.375 91.6809 129.998C91.756 129.62 91.7175 129.229 91.5702 128.873C91.423 128.518 91.1736 128.214 90.8536 128C90.5337 127.786 90.1575 127.672 89.7727 127.672C89.2567 127.672 88.7619 127.877 88.397 128.242C88.0321 128.607 87.8271 129.102 87.8271 129.618Z" fill="#404099"/>
<path d="M112.808 115.763C112.808 116.148 112.922 116.524 113.136 116.844C113.35 117.164 113.654 117.413 114.009 117.561C114.365 117.708 114.756 117.746 115.134 117.671C115.511 117.596 115.858 117.411 116.13 117.139C116.402 116.867 116.587 116.52 116.662 116.143C116.737 115.765 116.699 115.374 116.551 115.019C116.404 114.663 116.155 114.359 115.835 114.145C115.515 113.932 115.139 113.818 114.754 113.818C114.238 113.818 113.743 114.023 113.378 114.387C113.013 114.752 112.808 115.247 112.808 115.763Z" fill="#404099"/>
<path d="M127.834 117.542L118.691 127.748L114.465 122.535L111.896 119.358L118.752 111.712L122.194 113.924L127.834 117.542Z" fill="#404099"/>
<path opacity="0.1" d="M127.834 117.542L118.691 127.748L114.465 122.535L122.194 113.924L127.834 117.542Z" fill="black"/>
<path d="M141.088 122.58L125.143 140.372L114.556 126.867L126.504 113.529L141.088 122.58Z" fill="#404099"/>
<path d="M95.298 187.598H71.7076L73.1516 180.188H93.8464L95.298 187.598Z" fill="#404099"/>
</svg>
