<svg width="344" height="344" viewBox="0 0 344 344" fill="none" xmlns="http://www.w3.org/2000/svg">
<path d="M274.89 82.3811L273.466 80.0419C261.488 60.3032 239.83 48.3939 217.002 49.8456C214.061 50.03 211.139 50.4324 208.258 51.0496C187.501 55.4872 169.434 71.1873 161.948 91.2976C157.545 103.117 156.314 116.754 147.961 126.117C137.084 138.336 118.618 138.715 102.388 138.212C86.1582 137.71 67.6786 138.137 56.8563 150.404C50.0795 158.082 47.9123 168.98 48.4696 179.3C49.9144 206.531 68.8894 230.9 93.0245 242.981C117.16 255.062 145.567 256.156 172 250.831C208.973 243.373 244.157 222.912 265.307 191.264C286.456 159.616 291.808 116.527 274.89 82.3811Z" fill="#F5F5F5"/>
<path d="M51.6 264.226C55.185 260.644 59.6397 258.055 64.527 256.714C69.4144 255.373 74.5665 255.325 79.4778 256.576C71.157 262.246 61.3383 265.313 51.2698 265.389" fill="#FE4400"/>
<path d="M61.0738 230.741C59.9111 222.527 63.1378 213.287 69.2541 207.315C69.4605 215.454 66.0205 224.618 61.0738 230.741Z" fill="#FE4400"/>
<path d="M56.1545 246.263C60.5965 237.822 67.6686 231.059 76.2992 226.999C74.9514 231.728 72.3675 236.013 68.8135 239.413C65.2595 242.812 60.8638 245.202 56.0789 246.338" fill="#FE4400"/>
<path d="M55.1364 249.256C60.0969 249.393 65.1193 249.221 69.9215 247.948C74.7237 246.676 79.3127 244.24 82.505 240.442C72.785 240.468 63.2895 243.367 55.2121 248.774" fill="#FE4400"/>
<path d="M57.6544 239.424C55.1364 229.985 50.9808 223.456 43.5642 218.165C42.9973 222.806 44.1049 227.496 46.6878 231.393C49.2707 235.291 53.1594 238.138 57.6544 239.424Z" fill="#FE4400"/>
<path d="M38.9271 255.675C38.91 252.92 39.7067 250.222 41.217 247.919C42.7273 245.615 44.8842 243.809 47.417 242.726C47.0042 247.604 43.172 253.246 38.9271 255.675Z" fill="#FE4400"/>
<path d="M36.5535 247.714C36.2086 243.762 34.7421 239.99 32.3263 236.843C29.9106 233.696 26.6462 231.305 22.9173 229.95C24.6304 237.842 29.1919 244.398 36.5535 247.714Z" fill="#FE4400"/>
<path d="M40.1242 261.839C38.3767 259.335 35.5215 257.78 32.5562 257.023C29.57 256.368 26.5174 256.066 23.4608 256.122C25.5463 258.379 28.0961 260.157 30.9347 261.334C33.7734 262.511 36.8334 263.059 39.904 262.94" fill="#FE4400"/>
<path d="M43.6743 281.956C38.1058 280.239 32.096 280.67 26.8299 283.165C21.5638 285.66 17.4235 290.037 15.2255 295.434C25.5455 293.473 35.7554 288.884 43.6743 281.956Z" fill="#FE4400"/>
<path d="M55.04 274.966C53.2994 280.016 53.664 286.208 57.448 290.549C58.2095 287.934 58.3885 285.183 57.9725 282.491C57.5564 279.798 56.5555 277.23 55.04 274.966Z" fill="#FE4400"/>
<path d="M61.7205 272.145C61.9959 275.414 63.1084 278.556 64.9509 281.27C66.7934 283.984 69.3037 286.177 72.2401 287.639C72.3777 287.726 72.5315 287.785 72.6924 287.811C72.8532 287.837 73.0176 287.83 73.1757 287.79C73.6436 287.605 73.6849 286.965 73.6229 286.469C72.9281 279.968 68.112 273.68 61.7205 272.145Z" fill="#FE4400"/>
<path d="M66.0962 271.485C67.553 273.059 69.3178 274.317 71.281 275.181C73.2442 276.045 75.3639 276.497 77.5088 276.508C79.6537 276.519 81.778 276.089 83.7499 275.245C85.7218 274.401 87.4993 273.161 88.9722 271.602C81.7 270.811 73.3133 270.281 66.0962 271.485Z" fill="#FE4400"/>
<path d="M67.1901 213.369C67.1901 213.369 67.1901 213.445 67.1213 213.583C67.0525 213.72 66.9906 213.934 66.9012 214.195L66.048 216.548C65.6559 217.566 65.2087 218.825 64.672 220.284C64.4037 221.013 64.1285 221.791 63.8258 222.616C63.5231 223.442 63.241 224.322 62.9176 225.244C61.6311 228.925 60.1656 233.349 58.6589 238.268C57.1522 243.187 55.5492 248.636 53.9805 254.374C52.4119 260.112 51.0703 265.63 49.9007 270.652C48.7311 275.675 47.7954 280.222 47.0936 284.061C46.9079 285.018 46.7359 285.926 46.5776 286.813C46.4194 287.701 46.2887 288.492 46.158 289.256C45.8965 290.783 45.6695 292.097 45.5181 293.177C45.3668 294.258 45.2292 295.083 45.1397 295.661C45.0916 295.936 45.0572 296.15 45.0296 296.308C45.02 296.382 45.0062 296.455 44.9884 296.528C44.9807 296.452 44.9807 296.376 44.9884 296.301L45.0709 295.654C45.1466 295.069 45.2567 294.237 45.4012 293.164C45.5456 292.09 45.7452 290.763 45.9928 289.235L46.385 286.779C46.5432 285.919 46.7084 285.004 46.8804 284.027C47.5684 280.188 48.5178 275.64 49.6324 270.597C50.7469 265.554 52.1504 260.064 53.6916 254.312C55.2327 248.561 56.8632 243.125 58.3906 238.199C59.918 233.273 61.404 228.863 62.7112 225.189C63.0415 224.267 63.3511 223.394 63.64 222.561C63.929 221.729 64.2317 220.965 64.5069 220.236C65.0436 218.784 65.5045 217.532 65.8829 216.52C66.2613 215.509 66.5709 214.732 66.8117 214.181L67.0594 213.576C67.0939 213.502 67.1378 213.432 67.1901 213.369Z" fill="#263238"/>
<path d="M27.2517 234.161L27.3824 234.285L27.7264 234.649C28.0291 234.973 28.4695 235.454 29.0199 236.094C30.5777 237.893 32.0077 239.799 33.2992 241.798C35.226 244.769 36.7331 247.991 37.7781 251.375C38.9616 255.532 39.8581 259.767 40.4613 264.048C41.9405 273.115 43.7499 281.248 45.064 287.109C45.752 290.026 46.2612 292.4 46.6395 294.058C46.8184 294.863 46.956 295.503 47.0592 295.95C47.1005 296.156 47.1349 296.322 47.1624 296.445C47.1624 296.556 47.1624 296.611 47.1624 296.617C47.1349 296.566 47.1163 296.51 47.1074 296.452L46.9767 295.964L46.5088 294.086C46.1098 292.428 45.5456 290.061 44.8439 287.151C43.4679 281.289 41.6378 273.17 40.1586 264.096C39.5563 259.826 38.6691 255.601 37.5029 251.45C36.4812 248.083 35.002 244.872 33.1066 241.908C31.8332 239.904 30.4313 237.985 28.9098 236.163C28.3731 235.516 27.9466 235.021 27.6576 234.684L27.3343 234.298C27.3015 234.256 27.2738 234.21 27.2517 234.161Z" fill="#263238"/>
<path d="M68.2703 271.175C68.2703 271.175 68.1809 271.175 68.0089 271.223L67.259 271.313L66.7155 271.361L66.0687 271.457C65.6078 271.526 65.0849 271.595 64.507 271.726L63.6057 271.904L62.6425 272.145C61.9545 272.297 61.2665 272.544 60.5303 272.771C58.9428 273.32 57.4033 273.999 55.9276 274.801C54.4627 275.62 53.0803 276.578 51.7996 277.663C51.2461 278.142 50.7179 278.65 50.2172 279.183C49.7733 279.641 49.3552 280.124 48.9651 280.628C48.6314 281.037 48.3213 281.464 48.0363 281.908C47.8039 282.233 47.5903 282.57 47.3964 282.919C47.2451 283.181 47.1212 283.394 47.0111 283.573C46.971 283.653 46.9201 283.727 46.8598 283.793C46.8832 283.706 46.9179 283.623 46.963 283.545L47.307 282.857C47.4787 282.496 47.6788 282.148 47.9055 281.819C48.1803 281.363 48.4813 280.925 48.8068 280.504C49.1891 279.984 49.6026 279.488 50.0452 279.018C50.5477 278.473 51.0782 277.954 51.6345 277.463C52.9103 276.357 54.2931 275.379 55.7625 274.546C57.2555 273.741 58.8136 273.062 60.4203 272.517C61.1702 272.303 61.8719 272.063 62.5531 271.918L63.53 271.684L64.4451 271.519C65.023 271.409 65.5596 271.354 66.0206 271.299L66.7086 271.223H67.2521L68.0158 271.189L68.2703 271.175Z" fill="#263238"/>
<path d="M70.3412 234.34C70.185 234.525 70.0098 234.693 69.8183 234.842L68.3184 236.142C67.0525 237.229 65.2844 238.715 63.3167 240.346C61.349 241.976 59.5602 243.435 58.2599 244.474L56.705 245.705C56.5234 245.866 56.325 246.007 56.1133 246.125C56.2718 245.942 56.4468 245.774 56.6362 245.623L58.136 244.323C59.4088 243.236 61.177 241.749 63.1378 240.119C65.0986 238.488 66.8874 237.03 68.1946 235.991L69.7495 234.759C69.9334 234.602 70.1315 234.461 70.3412 234.34Z" fill="#263238"/>
<path d="M72.1299 243.958C72.1299 244.027 68.3322 245.224 63.6056 246.62C58.8791 248.017 55.04 249.09 54.9987 249.015C54.9575 248.939 58.7965 247.749 63.523 246.352C68.2496 244.956 72.1093 243.882 72.1299 243.958Z" fill="#263238"/>
<path d="M58.0328 240.112C57.8833 239.943 57.7519 239.758 57.6407 239.562L56.6362 238.048C55.7762 236.755 54.5722 234.993 53.1343 233.115C51.6964 231.237 50.3204 229.606 49.3021 228.444L48.0913 227.068C47.9331 226.909 47.7924 226.733 47.6716 226.545C47.8555 226.674 48.0241 226.824 48.1738 226.992C48.4834 227.295 48.9169 227.749 49.4466 228.32C50.5061 229.455 51.9165 231.072 53.3545 232.957C54.7924 234.842 55.9826 236.624 56.7945 237.945C57.2004 238.633 57.4825 239.149 57.7233 239.527C57.8464 239.711 57.9502 239.907 58.0328 240.112Z" fill="#263238"/>
<path d="M44.775 245.465C44.5119 245.976 44.2131 246.468 43.8806 246.937C43.3096 247.831 42.5047 249.077 41.7341 250.487C40.9635 251.897 40.2618 253.198 39.7802 254.147C39.5484 254.674 39.277 255.182 38.9684 255.668C39.1332 255.116 39.3449 254.58 39.6013 254.065C40.0347 253.088 40.6883 251.767 41.4933 250.349C42.2983 248.932 43.1032 247.701 43.7155 246.827C44.0267 246.342 44.3813 245.886 44.775 245.465Z" fill="#263238"/>
<path d="M40.2411 262.128C40.2411 262.162 39.4912 261.811 38.301 261.275C37.1107 260.738 35.4458 260.036 33.5675 259.376C31.6893 258.715 29.9418 258.227 28.6758 257.904C27.9785 257.76 27.2895 257.579 26.6118 257.36C26.8038 257.362 26.9951 257.382 27.1829 257.422C27.5475 257.477 28.0704 257.573 28.7102 257.711C30.3806 258.071 32.0278 258.53 33.6432 259.087C35.2576 259.651 36.8361 260.312 38.3698 261.068C38.9615 261.357 39.4293 261.605 39.7458 261.791C39.9245 261.882 40.091 261.995 40.2411 262.128Z" fill="#263238"/>
<path d="M43.8119 281.991C43.7369 282.024 43.6584 282.05 43.578 282.066L42.89 282.245L40.3512 282.83C37.5637 283.418 34.8081 284.148 32.0952 285.018C29.3828 285.924 26.7853 287.143 24.3552 288.65C23.4333 289.242 22.7109 289.765 22.2224 290.136C21.7339 290.508 21.4725 290.721 21.4587 290.708C21.445 290.694 21.5069 290.639 21.6239 290.522C21.7408 290.405 21.9197 290.247 22.1536 290.054C22.8216 289.49 23.5223 288.966 24.252 288.485C26.6667 286.92 29.2696 285.668 31.9989 284.756C34.7337 283.876 37.521 283.169 40.3444 282.637L42.9037 282.135C43.2023 282.064 43.5059 282.016 43.8119 281.991Z" fill="#263238"/>
<path d="M56.7256 286.896C56.65 286.896 56.1959 284.233 55.7074 280.917C55.2189 277.601 54.8956 274.911 54.9712 274.897C55.0469 274.884 55.501 277.56 55.9826 280.876C56.4642 284.192 56.8013 286.896 56.7256 286.896Z" fill="#263238"/>
<path d="M70.176 282.011C69.7401 281.56 69.3355 281.08 68.9652 280.573C68.2359 279.665 67.2314 278.42 66.0893 277.064C64.9472 275.709 63.9015 274.505 63.1309 273.624C62.6924 273.178 62.2877 272.7 61.92 272.193C61.92 272.193 62.0645 272.297 62.3053 272.524C62.5461 272.751 62.8695 273.081 63.2685 273.501C64.0735 274.34 65.1536 275.565 66.2957 276.886C67.4378 278.207 68.4216 279.514 69.1096 280.449C69.4536 280.917 69.7288 281.303 69.9077 281.571C70.0148 281.706 70.1049 281.854 70.176 282.011Z" fill="#263238"/>
<path d="M34.5927 294.478V301.124H36.2507L42.1538 319.755H55.2533L60.9706 301.303L63.1859 301.124V294.478H34.5927Z" fill="#455A64"/>
<path d="M62.0783 301.303C62.0783 301.378 56.2922 301.44 49.1645 301.44C42.0368 301.44 36.2507 301.378 36.2507 301.303C36.2507 301.227 42.0299 301.165 49.1645 301.165C56.2991 301.165 62.0783 301.227 62.0783 301.303Z" fill="#263238"/>
<path d="M71.497 258.578C71.2236 258.676 70.943 258.752 70.6576 258.805L68.3597 259.355C66.4196 259.837 63.757 260.566 60.8743 261.536C57.9916 262.506 55.4322 263.532 53.5952 264.323L51.428 265.272C51.1713 265.407 50.9016 265.515 50.6231 265.596C50.8671 265.435 51.1223 265.293 51.3868 265.169C51.8821 264.914 52.6114 264.557 53.5196 264.144C58.2623 261.972 63.2202 260.305 68.3116 259.17C69.2885 258.949 70.0797 258.791 70.6301 258.695C70.9155 258.633 71.2054 258.594 71.497 258.578Z" fill="#263238"/>
<path d="M57.7301 311.664C57.7301 311.74 53.6709 311.802 48.6691 311.802C43.6674 311.802 39.6082 311.74 39.6082 311.664C39.6082 311.588 43.6674 311.519 48.6691 311.519C53.6709 311.519 57.7301 311.575 57.7301 311.664Z" fill="white"/>
<path d="M58.2393 310.116C58.2393 310.192 53.9393 310.254 48.6073 310.254C43.2753 310.254 38.9753 310.192 38.9753 310.116C38.9753 310.04 43.2753 309.972 48.6073 309.972C53.9393 309.972 58.2393 310.033 58.2393 310.116Z" fill="white"/>
<path d="M326.752 319.672H325.954H323.608L314.595 319.707L281.426 319.762L172.034 319.817L62.5942 319.762L29.4326 319.707L20.4198 319.672H18.0737H17.2757H18.0737H20.4198H29.4326L62.608 319.548L172 319.493L281.392 319.548L314.554 319.604H323.573H325.919L326.752 319.672Z" fill="#263238"/>
<path d="M284.502 196.568V208.657H282.61V209.971H284.502V218.096H319.92V210.734H317.306V209.131H319.92V206.723H321.09V205.629H319.714V196.568H284.502Z" fill="#F5F5F5"/>
<path d="M310.522 196.603V217.924H319.927V210.562H317.306V209.097L319.927 209.145V206.737H321.117L321.096 205.499L319.714 205.457V196.568L310.522 196.603Z" fill="#E0E0E0"/>
<path d="M311.196 209.792C311.196 209.868 304.784 209.929 296.879 209.929C288.974 209.929 282.562 209.868 282.562 209.792C282.562 209.716 288.967 209.661 296.879 209.661C304.791 209.661 311.196 209.723 311.196 209.792Z" fill="#E0E0E0"/>
<path d="M311.196 208.567C311.196 208.643 304.784 208.698 296.879 208.698C288.974 208.698 282.562 208.643 282.562 208.567C282.562 208.492 288.967 208.43 296.879 208.43C304.791 208.43 311.196 208.464 311.196 208.567Z" fill="#E0E0E0"/>
<path d="M313.04 205.265C313.04 205.334 306.628 205.396 298.723 205.396C290.818 205.396 284.405 205.334 284.405 205.265C284.405 205.196 290.811 205.127 298.723 205.127C306.635 205.127 313.04 205.189 313.04 205.265Z" fill="#E0E0E0"/>
<path d="M313.205 214.271C313.205 214.34 306.8 214.401 298.895 214.401C290.99 214.401 284.577 214.34 284.577 214.271C284.577 214.202 290.983 214.133 298.895 214.133C306.807 214.133 313.205 214.195 313.205 214.271Z" fill="#E0E0E0"/>
<path d="M233.755 131.112C235.131 130.376 236.762 129.777 237.628 128.45C238.426 127.232 238.495 125.539 239.617 124.604C240.993 123.462 243.208 124.101 244.722 123.138C245.451 122.677 245.933 121.879 246.662 121.411C247.9 120.606 249.579 120.916 250.893 121.59C252.207 122.264 253.335 123.283 254.677 123.909C256.514 124.776 258.702 124.92 260.305 126.165C262.073 127.541 262.603 129.791 263.243 132.007L264.165 134.655C264.377 135.138 264.635 135.598 264.935 136.031C265.542 136.713 266.083 137.45 266.552 138.233C266.735 138.679 266.826 139.156 266.821 139.638C266.815 140.119 266.713 140.595 266.521 141.036C266.328 141.478 266.049 141.876 265.7 142.207C265.351 142.539 264.939 142.797 264.488 142.966C265.114 143.498 265.554 144.217 265.742 145.017C265.93 145.816 265.857 146.656 265.534 147.411C265.09 148.197 264.554 148.926 263.938 149.585C263.319 150.251 262.956 151.113 262.912 152.02C262.912 152.243 262.957 152.464 263.043 152.669C263.129 152.875 263.255 153.061 263.414 153.217C263.573 153.374 263.761 153.497 263.968 153.579C264.175 153.662 264.396 153.703 264.619 153.699C264.274 154.192 263.823 154.602 263.299 154.898C262.775 155.195 262.192 155.37 261.591 155.412C261.836 155.975 262.283 156.424 262.844 156.671C259.913 159.671 255.014 159.932 251.093 158.433C247.171 156.933 244.02 153.988 240.965 151.112L231.505 144.274C230.666 143.703 230.721 142.43 231.106 141.522C231.491 140.613 232.111 139.685 232.118 138.666C232.118 137.29 230.969 136.08 230.955 134.683C230.914 133.045 232.345 131.841 233.755 131.112Z" fill="#263238"/>
<path d="M254.897 150.424C256.645 148.39 258.213 146.208 259.582 143.902C260.958 141.586 261.734 138.964 261.839 136.272C261.839 135.866 261.639 133.052 261.247 132.942C260.965 132.867 260.807 135.357 260.559 135.536C258.441 137.356 256.927 139.777 256.218 142.478C255.479 145.069 255.029 147.734 254.876 150.424" fill="#263238"/>
<path d="M258.826 140.978C261.447 134.786 260.03 128.106 253.769 125.656L253.177 125.464C250.305 124.531 247.187 124.713 244.442 125.973C241.698 127.234 239.528 129.481 238.364 132.268C236.128 137.641 233.72 143.613 232.792 146.585C230.872 152.736 236.672 155.694 236.672 155.694L234.883 160.572L249.455 165.877L258.826 140.978Z" fill="#FFBE9D"/>
<path d="M236.672 155.694C239.507 156.605 242.544 156.687 245.423 155.928C245.423 155.928 242.059 159.767 236.115 157.229L236.672 155.694Z" fill="#EB996E"/>
<path d="M238.364 137.387C238.289 137.614 238.305 137.862 238.409 138.077C238.513 138.293 238.697 138.46 238.922 138.543C239.03 138.587 239.146 138.61 239.263 138.609C239.38 138.608 239.496 138.584 239.604 138.538C239.711 138.491 239.809 138.424 239.89 138.34C239.971 138.256 240.035 138.156 240.078 138.047C240.155 137.82 240.142 137.571 240.039 137.354C239.936 137.137 239.752 136.968 239.527 136.884C239.418 136.84 239.301 136.818 239.183 136.819C239.065 136.82 238.949 136.845 238.84 136.892C238.732 136.938 238.634 137.006 238.553 137.091C238.471 137.176 238.407 137.277 238.364 137.387Z" fill="#263238"/>
<path d="M238.853 135.233C238.922 135.385 239.747 135.109 240.69 135.419C241.632 135.729 242.162 136.424 242.307 136.341C242.451 136.258 242.307 136.066 242.1 135.749C241.786 135.339 241.355 135.034 240.863 134.875C240.371 134.717 239.843 134.712 239.348 134.862C238.977 134.992 238.812 135.164 238.853 135.233Z" fill="#263238"/>
<path d="M246.689 140.579C246.614 140.806 246.63 141.054 246.734 141.27C246.838 141.486 247.022 141.652 247.247 141.735C247.355 141.781 247.472 141.804 247.59 141.804C247.708 141.803 247.824 141.779 247.933 141.733C248.041 141.687 248.139 141.619 248.221 141.535C248.303 141.45 248.367 141.35 248.409 141.24C248.485 141.012 248.469 140.764 248.365 140.549C248.261 140.333 248.077 140.166 247.852 140.084C247.743 140.038 247.627 140.015 247.509 140.015C247.391 140.015 247.274 140.039 247.166 140.085C247.057 140.132 246.959 140.199 246.878 140.284C246.796 140.369 246.732 140.469 246.689 140.579Z" fill="#263238"/>
<path d="M247.955 138.618C248.031 138.77 248.85 138.494 249.792 138.804C250.735 139.114 251.271 139.808 251.416 139.726C251.56 139.643 251.416 139.451 251.203 139.134C250.89 138.717 250.455 138.409 249.957 138.254C249.468 138.093 248.94 138.093 248.451 138.254C248.086 138.377 247.921 138.556 247.955 138.618Z" fill="#263238"/>
<path d="M242.217 144.762C241.772 144.446 241.289 144.187 240.779 143.992C240.545 143.888 240.332 143.764 240.346 143.586C240.401 143.321 240.538 143.08 240.738 142.898C241.158 142.388 241.591 141.859 242.045 141.295C243.889 139.01 245.3 137.098 245.203 137.022C243.938 138.266 242.771 139.607 241.715 141.033L240.428 142.657C240.185 142.898 240.032 143.217 239.995 143.558C240.003 143.654 240.033 143.748 240.081 143.831C240.13 143.914 240.197 143.986 240.277 144.04C240.399 144.119 240.531 144.181 240.669 144.225C241.159 144.472 241.68 144.653 242.217 144.762Z" fill="#263238"/>
<path d="M244.784 146.317C244.632 146.255 244.295 147.28 243.187 147.693C242.08 148.106 241.02 147.693 240.965 147.81C240.91 147.927 241.144 148.085 241.598 148.25C242.196 148.453 242.847 148.438 243.435 148.209C243.999 147.991 244.456 147.562 244.708 147.012C244.887 146.627 244.852 146.331 244.784 146.317Z" fill="#263238"/>
<path d="M249.256 134.848C249.256 135.137 250.246 135.323 251.32 135.811C252.393 136.3 253.177 136.898 253.384 136.719C253.487 136.63 253.384 136.334 253.129 135.969C252.752 135.504 252.268 135.136 251.719 134.896C251.176 134.645 250.582 134.525 249.985 134.545C249.524 134.545 249.256 134.683 249.256 134.848Z" fill="#263238"/>
<path d="M240.256 132.234C240.353 132.502 241.075 132.488 241.86 132.729C242.644 132.97 243.236 133.341 243.483 133.169C243.58 133.08 243.545 132.832 243.325 132.536C243.015 132.169 242.604 131.901 242.142 131.767C241.681 131.632 241.19 131.636 240.731 131.779C240.38 131.91 240.222 132.096 240.256 132.234Z" fill="#263238"/>
<path d="M256.844 145.361C256.961 145.361 261.461 145.484 259.968 149.633C258.475 153.782 254.608 151.422 254.649 151.298C254.691 151.174 256.844 145.361 256.844 145.361Z" fill="#FFBE9D"/>
<path d="M256.48 150.184C256.48 150.184 256.535 150.259 256.638 150.362C256.784 150.497 256.976 150.571 257.174 150.569C257.67 150.569 258.289 150.005 258.55 149.262C258.692 148.911 258.751 148.531 258.722 148.154C258.731 148.01 258.704 147.867 258.644 147.736C258.584 147.605 258.493 147.491 258.378 147.404C258.304 147.353 258.214 147.329 258.123 147.336C258.033 147.344 257.948 147.382 257.883 147.445C257.787 147.542 257.78 147.638 257.759 147.638C257.739 147.638 257.69 147.535 257.759 147.376C257.821 147.281 257.913 147.208 258.021 147.17C258.165 147.13 258.32 147.144 258.454 147.211C258.613 147.306 258.745 147.439 258.836 147.6C258.928 147.76 258.977 147.942 258.977 148.126C259.025 148.549 258.969 148.977 258.812 149.372C258.694 149.742 258.47 150.07 258.168 150.314C257.866 150.559 257.499 150.709 257.112 150.748C256.989 150.741 256.869 150.706 256.76 150.647C256.652 150.587 256.558 150.504 256.486 150.404C256.452 150.287 256.466 150.19 256.48 150.184Z" fill="#EB996E"/>
<path d="M243.586 126.406C243.057 125.787 245.864 124.342 247.79 124.232C250.693 124.026 254.746 124.741 256.796 126.241C259.266 128.044 261.048 130.273 261.502 133.293C261.888 136.346 261.456 139.447 260.25 142.278C259.956 143.17 259.431 143.967 258.729 144.59C257.807 145.278 256.486 145.457 256.067 146.737C255.997 146.97 255.883 147.187 255.729 147.376C255.576 147.565 255.387 147.722 255.172 147.837C254.113 148.36 253.473 147.26 253.329 146.344C253.019 144.391 253.631 142.416 254.244 140.531C254.604 139.166 255.185 137.869 255.964 136.692C256.425 136.08 256.989 135.55 257.415 134.91C257.646 134.603 257.808 134.25 257.888 133.874C257.969 133.499 257.967 133.11 257.883 132.736C257.828 132.577 257.759 132.422 257.677 132.275C257.288 131.557 256.714 130.955 256.015 130.533C255.316 130.111 254.517 129.883 253.7 129.874C251.065 129.832 246.627 129.585 245.884 128.408C245.324 127.643 244.931 126.769 244.729 125.842L243.586 126.406Z" fill="#263238"/>
<path d="M256.789 125.601C255.806 124.78 254.67 124.161 253.447 123.781C252.223 123.401 250.937 123.267 249.661 123.386C248.983 123.439 248.322 123.627 247.718 123.941C247.115 124.254 246.58 124.685 246.146 125.209C245.733 125.749 245.523 126.417 245.553 127.097C245.584 127.776 245.852 128.423 246.311 128.924L246.373 129.007C247.921 130.252 249.125 130.445 251.141 130.486C252.812 130.527 254.464 130.101 256.136 130.142C257.924 130.197 259.656 130.784 261.11 131.828C260.24 129.409 258.75 127.262 256.789 125.601Z" fill="#263238"/>
<path d="M260.374 158.02C260.374 158.02 260.222 157.979 259.961 157.855C259.583 157.657 259.268 157.356 259.053 156.988C258.709 156.413 258.58 155.736 258.688 155.075C258.855 154.199 259.238 153.378 259.803 152.688C260.401 151.89 261.179 151.133 261.908 150.156C262.275 149.648 262.56 149.087 262.754 148.491C262.962 147.845 262.981 147.153 262.809 146.496C262.58 145.826 262.181 145.227 261.653 144.755C261.133 144.286 260.656 143.77 260.229 143.214C259.476 141.953 259.196 140.466 259.438 139.017C259.589 137.504 260.023 136.066 260.236 134.621C260.519 133.224 260.421 131.777 259.954 130.431C259.439 129.231 258.498 128.266 257.312 127.72C256.302 127.229 255.187 126.993 254.065 127.032C252.458 127.142 250.899 127.63 249.517 128.456C249.029 128.732 248.664 128.979 248.423 129.144C248.297 129.229 248.177 129.323 248.065 129.427C248.203 129.364 248.334 129.288 248.457 129.2C248.712 129.048 249.084 128.821 249.579 128.56C250.961 127.797 252.496 127.353 254.072 127.259C255.153 127.235 256.224 127.471 257.195 127.947C258.314 128.476 259.2 129.396 259.686 130.534C260.124 131.833 260.207 133.225 259.926 134.566C259.713 135.983 259.273 137.428 259.121 138.976C258.873 140.501 259.176 142.064 259.975 143.386C260.411 143.958 260.902 144.485 261.44 144.962C261.93 145.4 262.303 145.953 262.527 146.572C262.689 147.173 262.675 147.808 262.486 148.402C262.311 148.975 262.041 149.514 261.688 149.998C261 150.947 260.222 151.725 259.624 152.55C259.044 153.271 258.66 154.129 258.509 155.041C258.41 155.742 258.566 156.455 258.949 157.05C259.183 157.428 259.526 157.725 259.933 157.903C260.071 157.971 260.221 158.01 260.374 158.02Z" fill="#455A64"/>
<path d="M252.579 123.668C252.181 123.443 251.735 123.32 251.278 123.31C250.169 123.203 249.054 123.462 248.105 124.047C247.157 124.632 246.425 125.511 246.022 126.551C245.829 126.963 245.74 127.417 245.76 127.872C245.815 127.872 245.891 127.369 246.235 126.64C246.669 125.68 247.379 124.871 248.275 124.317C249.171 123.763 250.212 123.489 251.264 123.53C252.076 123.558 252.565 123.723 252.579 123.668Z" fill="#455A64"/>
<path d="M242.685 124.088C242.251 124.437 241.919 124.897 241.723 125.418C241.527 125.94 241.474 126.504 241.571 127.053C241.667 127.053 241.715 126.365 242.025 125.532C242.334 124.7 242.754 124.15 242.685 124.088Z" fill="#455A64"/>
<path d="M252.407 152.805L252.138 147.452L234.629 141.26C234.629 141.26 230.996 146.076 232.399 151.291C232.984 153.424 235.2 155.488 237.312 156.162C239.844 156.974 244.034 157.958 247.48 156.217C251.161 154.367 252.407 152.805 252.407 152.805Z" fill="#EBEBEB"/>
<path d="M252.235 149.358L233.459 143.262C233.807 142.574 234.198 141.907 234.629 141.267L252.138 147.459L252.235 149.358Z" fill="#E0E0E0"/>
<path d="M236.067 150.94C236.067 150.844 238.213 151.277 240.834 151.752C242.434 151.982 244.02 152.292 245.588 152.681C245.113 152.719 244.634 152.695 244.164 152.612C243.291 152.516 242.1 152.344 240.772 152.103C239.445 151.862 238.268 151.601 237.422 151.381C236.952 151.298 236.496 151.149 236.067 150.94Z" fill="#263238"/>
<path d="M235.647 148.711C237.049 148.848 238.432 149.132 239.775 149.557C241.14 149.871 242.466 150.332 243.731 150.933C242.36 150.674 241.006 150.33 239.679 149.901C238.31 149.592 236.964 149.195 235.647 148.711Z" fill="#263238"/>
<path d="M235.227 146.909C236.84 147.18 238.432 147.568 239.988 148.071C241.58 148.458 243.142 148.962 244.66 149.578C243.045 149.303 241.452 148.914 239.892 148.415C238.302 148.028 236.743 147.524 235.227 146.909Z" fill="#263238"/>
<path d="M252.18 152.805C252.138 152.715 252.709 152.351 253.459 151.986C253.893 151.711 254.386 151.542 254.897 151.491C254.938 151.58 254.367 151.945 253.617 152.309C253.183 152.584 252.691 152.754 252.18 152.805Z" fill="white"/>
<path d="M251.987 147.48C251.987 147.425 252.303 147.356 252.799 147.184C253.439 146.941 254.054 146.637 254.636 146.276C255.234 145.892 255.889 145.604 256.576 145.423C256.86 145.33 257.164 145.313 257.457 145.374C257.457 145.429 257.14 145.498 256.645 145.67C256.005 145.912 255.392 146.218 254.815 146.585C254.212 146.964 253.556 147.249 252.868 147.431C252.583 147.524 252.28 147.541 251.987 147.48Z" fill="#E0E0E0"/>
<path d="M220.511 150.878L193.995 141.934L187.315 152.076L208.918 167.439C210.093 169.248 210.71 171.363 210.693 173.52L215.544 208.739L258.674 209.427L261.88 175.756L262.768 171.842L250.349 163.503C243.841 164.267 239.679 162.196 235.901 157.745L225.451 153.575C223.92 152.479 222.261 151.574 220.511 150.878Z" fill="#455A64"/>
<path d="M264.103 208.189H260.938C260.938 208.189 253.796 205.609 252.331 205.856C251.01 206.077 246.139 209.296 245.217 209.929C245.111 210 245.031 210.104 244.99 210.225C244.897 210.476 244.905 210.754 245.013 210.999C245.121 211.245 245.32 211.438 245.568 211.539L245.664 211.581L245.623 211.725C245.565 211.912 245.542 212.108 245.554 212.303C245.559 212.454 245.614 212.599 245.71 212.716C245.806 212.833 245.938 212.915 246.085 212.95C246.232 212.984 246.387 212.969 246.524 212.907C246.662 212.845 246.776 212.739 246.848 212.606L246.669 212.929C246.593 213.061 246.558 213.211 246.565 213.363V213.658C246.579 213.815 246.638 213.964 246.736 214.086C246.834 214.209 246.966 214.299 247.116 214.346C247.259 214.394 247.414 214.4 247.56 214.362C247.707 214.324 247.839 214.245 247.941 214.133C248.561 213.445 249.882 212.104 250.783 211.952C251.755 211.835 252.735 211.787 253.714 211.808C253.913 211.809 254.107 211.87 254.272 211.983C254.436 212.096 254.563 212.255 254.636 212.441C254.099 212.482 250.391 214.415 249.077 215.103C248.874 215.206 248.698 215.355 248.566 215.54C248.433 215.724 248.346 215.938 248.313 216.163C248.265 216.576 248.478 217.002 249.29 216.816C250.958 216.316 252.588 215.697 254.168 214.966C254.168 214.966 255.792 214.498 256.837 215.241C258.31 216.28 258.991 216.665 260.277 216.245C261.048 215.988 261.786 215.644 262.479 215.22L264.969 214.972C264.969 214.972 267.329 209.09 264.103 208.189Z" fill="#FFBE9D"/>
<path d="M254.67 209.393C254.67 209.393 254.168 209.262 253.335 209.207C252.247 209.135 251.158 209.32 250.155 209.748C249.152 210.176 248.264 210.835 247.563 211.67C247.28 212.023 247.016 212.39 246.772 212.771C246.81 212.654 246.863 212.543 246.93 212.441C247.091 212.148 247.278 211.869 247.487 211.608C248.183 210.743 249.081 210.062 250.102 209.627C251.123 209.191 252.236 209.014 253.342 209.111C253.674 209.141 254.003 209.199 254.326 209.283C254.444 209.307 254.56 209.344 254.67 209.393Z" fill="#EB996E"/>
<path d="M253.92 207.659C253.472 207.527 253.01 207.446 252.544 207.418C251.396 207.411 250.27 207.731 249.297 208.34C248.33 208.958 247.449 209.701 246.676 210.549L245.988 211.312C245.908 211.414 245.816 211.504 245.712 211.581C245.786 211.474 245.866 211.373 245.953 211.278C246.104 211.085 246.338 210.817 246.641 210.487C247.401 209.609 248.284 208.847 249.262 208.223C250.255 207.603 251.409 207.289 252.579 207.322C252.932 207.339 253.281 207.404 253.617 207.515C253.709 207.543 253.799 207.577 253.886 207.618L253.92 207.659Z" fill="#EB996E"/>
<path d="M264.268 173.211C264.722 173.796 286.442 203.854 286.827 205.423C287.212 206.992 290.35 213.376 282.527 215.33C274.705 217.284 263.642 216.534 263.642 216.534L262.857 208.237L272.359 206.173L259.837 188.973L262.279 171.573C263.007 172.035 263.675 172.585 264.268 173.211Z" fill="#455A64"/>
<path d="M216.465 153.204C216.465 153.204 195.007 139.059 192.874 138.976C190.741 138.893 188.003 139.114 186.297 142.739C184.591 146.365 184.996 149.385 185.533 150.555C186.07 151.725 191.12 155.488 194.298 156.747C197.477 158.006 204.481 158.04 207.804 160.366C207.941 160.462 212.014 162.636 212.014 162.636L215.956 154.594L216.465 153.204Z" fill="#455A64"/>
<path d="M229.104 165.973C229.401 165.911 229.667 165.746 229.853 165.507C230.04 165.267 230.135 164.969 230.122 164.666C230.04 162.719 229.82 158.825 229.434 158.474C228.396 157.828 227.241 157.394 226.036 157.194C225.272 157.194 218.02 156.341 218.02 156.341L215.716 155.144L212.915 160.861C212.915 160.861 216.631 162.925 218.873 164.129C219.621 164.482 220.42 164.714 221.24 164.817C221.24 164.817 222.286 165.416 222.926 165.719C224.118 166.044 225.329 166.294 226.552 166.468L229.104 165.973Z" fill="#FFBE9D"/>
<path d="M221.653 162.065C221.121 162.732 220.37 163.19 219.534 163.359C218.949 163.527 218.33 163.527 217.745 163.359C217.298 163.214 217.057 163.022 217.098 162.987C217.14 162.953 217.38 163.042 217.786 163.118C218.335 163.2 218.894 163.17 219.431 163.028C220.19 162.752 220.932 162.431 221.653 162.065Z" fill="#EB996E"/>
<path d="M222.699 163.338C222.699 163.434 222.176 163.338 221.818 162.884C221.46 162.43 221.515 161.914 221.612 161.921C221.708 161.928 221.811 162.299 222.107 162.671C222.403 163.042 222.733 163.242 222.699 163.338Z" fill="#EB996E"/>
<path d="M222.692 164.184C222.602 164.226 222.41 163.833 222.616 163.393C222.823 162.953 223.229 162.836 223.263 162.925C223.297 163.015 223.077 163.221 222.94 163.538C222.802 163.854 222.788 164.157 222.692 164.184Z" fill="#EB996E"/>
<path d="M223.456 158.467C223.645 158.444 223.836 158.458 224.02 158.508C224.242 158.548 224.458 158.62 224.66 158.722C224.947 158.869 225.173 159.112 225.299 159.41C225.422 159.752 225.492 160.112 225.506 160.476C225.547 160.854 225.588 161.253 225.63 161.666C225.671 162.079 225.712 162.54 225.753 162.994C225.818 163.477 225.836 163.966 225.809 164.453C225.776 164.726 225.669 164.986 225.499 165.203C225.324 165.402 225.105 165.558 224.859 165.657C224.419 165.817 223.947 165.869 223.483 165.808C223.084 165.76 222.704 165.612 222.378 165.378C222.052 165.143 221.79 164.83 221.619 164.466C221.482 164.187 221.428 163.874 221.46 163.565C221.469 163.438 221.516 163.317 221.596 163.219C221.676 163.12 221.785 163.049 221.908 163.015C221.984 162.999 222.063 163.002 222.138 163.025C222.212 163.048 222.28 163.089 222.334 163.145C222.396 163.235 222.382 163.297 222.375 163.297C222.328 163.228 222.259 163.177 222.179 163.151C222.1 163.125 222.014 163.125 221.935 163.152C221.85 163.188 221.778 163.248 221.729 163.326C221.68 163.403 221.656 163.494 221.66 163.586C221.653 163.855 221.717 164.12 221.846 164.356C222.01 164.669 222.249 164.935 222.542 165.131C222.836 165.327 223.173 165.446 223.524 165.478C223.936 165.532 224.355 165.483 224.742 165.333C224.939 165.263 225.112 165.139 225.241 164.974C225.37 164.81 225.45 164.612 225.471 164.405C225.499 163.945 225.483 163.485 225.423 163.028C225.387 162.57 225.352 162.129 225.32 161.708C225.32 161.288 225.258 160.889 225.231 160.504C225.231 160.168 225.182 159.834 225.086 159.513C224.983 159.299 224.832 159.112 224.644 158.967C224.457 158.821 224.238 158.721 224.006 158.673C223.814 158.629 223.629 158.559 223.456 158.467Z" fill="#EB996E"/>
<path d="M226.902 166.413C226.902 166.413 227.033 166.352 227.191 166.18C227.399 165.921 227.507 165.596 227.494 165.264C227.494 164.377 227.604 163.139 227.611 161.824C227.623 161.207 227.515 160.592 227.295 160.015C227.099 159.561 226.771 159.177 226.352 158.914C225.951 158.679 225.486 158.578 225.024 158.625C225.024 158.625 225.134 158.522 225.396 158.481C225.769 158.438 226.147 158.512 226.476 158.694C226.967 158.955 227.359 159.371 227.59 159.877C227.853 160.49 227.982 161.151 227.969 161.818C227.969 162.506 227.921 163.152 227.879 163.744C227.838 164.336 227.804 164.865 227.749 165.313C227.73 165.692 227.565 166.05 227.288 166.31C227.04 166.455 226.902 166.434 226.902 166.413Z" fill="#EB996E"/>
<path d="M229.104 159.121C229.747 161.331 229.718 163.683 229.021 165.877C228.918 165.877 229.187 164.356 229.207 162.499C229.228 160.641 229.021 159.134 229.104 159.121Z" fill="#EB996E"/>
<path d="M283.291 203.648C283.257 203.71 282.672 203.338 281.612 203.098C280.999 202.96 280.368 202.912 279.741 202.953C278.971 203.021 278.218 203.216 277.512 203.531C276.005 204.219 274.76 205.107 273.769 205.595C273.261 205.924 272.696 206.157 272.104 206.283C272.104 206.235 272.716 205.973 273.645 205.396C274.838 204.582 276.084 203.848 277.374 203.201C278.115 202.87 278.91 202.674 279.72 202.623C280.382 202.595 281.043 202.671 281.681 202.85C282.106 202.97 282.515 203.141 282.899 203.359C283.046 203.43 283.179 203.528 283.291 203.648Z" fill="#263238"/>
<path d="M214.821 218.997H261.688C262.33 218.998 262.947 218.751 263.411 218.307C263.875 217.864 264.15 217.258 264.178 216.617L265.568 184.384C265.583 184.049 265.53 183.714 265.412 183.4C265.293 183.086 265.113 182.799 264.881 182.556C264.649 182.314 264.37 182.121 264.061 181.989C263.752 181.858 263.42 181.79 263.084 181.79H213.507C213.172 181.79 212.84 181.857 212.531 181.989C212.223 182.12 211.944 182.312 211.711 182.553C211.478 182.795 211.297 183.081 211.178 183.394C211.058 183.708 211.004 184.042 211.017 184.377L212.331 216.637C212.364 217.275 212.641 217.875 213.105 218.315C213.568 218.754 214.183 218.998 214.821 218.997Z" fill="#E0E0E0"/>
<path d="M214.821 218.997H214.704C214.59 219.008 214.475 219.008 214.36 218.997C213.917 218.915 213.503 218.716 213.163 218.419C212.887 218.177 212.666 217.879 212.516 217.544C212.365 217.209 212.288 216.846 212.289 216.479C212.255 215.612 212.214 214.622 212.159 213.507C211.973 209.035 211.698 202.575 211.354 194.594C211.271 192.599 211.184 190.51 211.092 188.326C211.044 187.239 211.003 186.125 210.955 184.989C210.955 184.707 210.92 184.432 210.955 184.129C210.975 183.831 211.045 183.538 211.161 183.263C211.399 182.7 211.831 182.241 212.379 181.969C212.652 181.83 212.948 181.741 213.252 181.708C213.562 181.708 213.851 181.708 214.154 181.708H227.384H261.784H262.926C263.319 181.692 263.712 181.753 264.082 181.887C264.451 182.031 264.783 182.257 265.052 182.547C265.322 182.838 265.521 183.186 265.637 183.565C265.743 183.941 265.776 184.333 265.733 184.721L265.637 185.76L265.534 187.996C265.401 190.964 265.274 193.885 265.155 196.761C264.901 202.506 264.653 208.044 264.426 213.328C264.426 214.016 264.364 214.642 264.336 215.296L264.295 216.266C264.296 216.598 264.252 216.929 264.164 217.25C263.966 217.893 263.524 218.434 262.933 218.756C262.645 218.914 262.33 219.017 262.004 219.059C261.667 219.094 261.364 219.059 261.048 219.059H253.762H240.69L221.763 219.025H216.617H215.241H214.787H215.241H216.617H221.763L240.69 218.99H253.762H261.048C261.357 218.99 261.681 218.99 261.977 218.99C262.278 218.955 262.571 218.862 262.837 218.715C263.377 218.418 263.783 217.926 263.972 217.339C264.05 217.036 264.089 216.724 264.089 216.41L264.13 215.433C264.13 214.787 264.185 214.126 264.213 213.466C264.44 208.189 264.68 202.644 264.901 196.899C265.024 194.032 265.153 191.11 265.286 188.134C265.286 187.391 265.348 186.648 265.382 185.904L265.43 184.776C265.474 184.416 265.444 184.051 265.341 183.703C265.239 183.355 265.058 183.036 264.812 182.77C264.566 182.504 264.262 182.298 263.924 182.169C263.581 182.04 263.216 181.984 262.85 182.004H214.126C213.83 182.004 213.521 182.004 213.246 182.004C212.962 182.032 212.687 182.114 212.434 182.244C211.925 182.493 211.524 182.919 211.305 183.441C211.197 183.697 211.132 183.969 211.113 184.246C211.113 184.515 211.113 184.811 211.113 185.086C211.161 186.221 211.202 187.336 211.244 188.423C211.331 190.606 211.413 192.695 211.491 194.69C211.801 202.671 212.055 209.138 212.227 213.61C212.269 214.725 212.31 215.716 212.337 216.576C212.331 216.935 212.402 217.292 212.546 217.622C212.689 217.952 212.902 218.248 213.17 218.488C213.501 218.787 213.908 218.989 214.346 219.073C214.507 219.062 214.665 219.036 214.821 218.997Z" fill="#263238"/>
<path d="M235.736 200.951C235.736 201.459 235.887 201.955 236.169 202.377C236.451 202.799 236.852 203.128 237.321 203.322C237.789 203.516 238.305 203.567 238.803 203.468C239.301 203.369 239.758 203.125 240.117 202.766C240.476 202.407 240.72 201.949 240.819 201.452C240.918 200.954 240.868 200.438 240.673 199.969C240.479 199.5 240.15 199.099 239.728 198.817C239.306 198.535 238.81 198.385 238.303 198.385C237.622 198.385 236.969 198.655 236.488 199.136C236.007 199.618 235.736 200.27 235.736 200.951Z" fill="white"/>
<path d="M192.874 138.976C193.056 138.978 193.236 139.016 193.404 139.086C193.895 139.264 194.373 139.475 194.835 139.719C196.053 140.318 197.779 141.288 199.899 142.547C204.137 145.072 209.978 148.739 216.562 153.08L216.679 153.156L216.631 153.286L216.046 154.883C215.399 156.19 214.718 157.566 214.03 158.969L212.179 162.705L212.097 162.877L211.938 162.788L209.186 161.315C208.333 160.812 207.443 160.372 206.524 160.001C204.765 159.378 202.959 158.9 201.123 158.57C199.376 158.212 197.683 157.917 196.176 157.511C194.742 157.163 193.388 156.544 192.186 155.688C190.46 154.488 188.871 153.104 187.446 151.56C187.055 151.147 186.694 150.708 186.366 150.245C186.245 150.09 186.15 149.915 186.084 149.729C186.084 149.729 186.18 149.908 186.421 150.211C186.769 150.651 187.141 151.071 187.535 151.47C188.988 152.968 190.591 154.315 192.317 155.488C193.505 156.316 194.841 156.909 196.252 157.236C197.766 157.628 199.438 157.924 201.185 158.261C203.041 158.587 204.867 159.061 206.648 159.678C207.579 160.056 208.483 160.5 209.352 161.006L212.104 162.471L211.863 162.554L213.707 158.811L215.729 154.724C215.936 154.181 216.135 153.637 216.321 153.135L216.39 153.341C209.813 149.007 204.006 145.285 199.802 142.712C197.697 141.425 195.998 140.428 194.8 139.795C194.355 139.541 193.895 139.311 193.424 139.107C193.243 139.053 193.06 139.01 192.874 138.976Z" fill="#263238"/>
<path d="M257.36 244.13H223.978V252.159H257.36V244.13Z" fill="#455A64"/>
<path d="M226.586 252.159L208.67 319.727H212.331L231.89 252.159H226.586Z" fill="#455A64"/>
<path d="M253.858 252.159L271.801 319.727H268.134L248.554 252.159H253.858Z" fill="#455A64"/>
<path d="M248.609 252.358C248.664 252.42 243.731 256.851 237.601 262.245C231.471 267.639 226.448 271.973 226.393 271.911C226.338 271.849 231.271 267.419 237.401 262.025C243.531 256.631 248.554 252.296 248.609 252.358Z" fill="#263238"/>
<path d="M256.906 272.125C256.858 272.193 251.079 267.749 243.999 262.211C236.92 256.672 231.23 252.131 231.278 252.063C231.326 251.994 237.105 256.438 244.185 261.977C251.264 267.515 256.954 272.063 256.906 272.125Z" fill="#263238"/>
<path d="M257.202 252.159C257.202 252.235 249.916 252.303 240.924 252.303C231.932 252.303 224.639 252.235 224.639 252.159C224.639 252.083 231.932 252.008 240.924 252.008C249.916 252.008 257.202 252.076 257.202 252.159Z" fill="#263238"/>
<path d="M242.988 294.581L236.163 305.534L257.016 318.661C258.144 316.597 249.882 305.802 249.882 305.802L253.191 300.938L242.988 294.581Z" fill="#FE4400"/>
<g opacity="0.3">
<path opacity="0.3" d="M242.94 294.581L236.122 305.534L256.975 318.661C258.103 316.597 249.84 305.802 249.84 305.802L253.15 300.938L242.94 294.581Z" fill="black"/>
</g>
<path d="M243.958 300.842C243.72 300.775 243.465 300.8 243.244 300.91C243.023 301.021 242.851 301.21 242.761 301.44C242.685 301.677 242.704 301.933 242.813 302.156C242.922 302.379 243.113 302.552 243.346 302.637C243.599 302.704 243.869 302.675 244.102 302.556C244.336 302.436 244.517 302.235 244.612 301.991C244.663 301.736 244.614 301.47 244.474 301.251C244.334 301.032 244.115 300.875 243.862 300.814" fill="white"/>
<path d="M236.163 305.472L237.216 303.766L256.782 317.168C256.782 317.168 257.47 318.159 256.927 318.743L236.163 305.472Z" fill="#263238"/>
<path d="M250.239 305.912C250.177 306.009 249.634 305.733 248.932 305.747C248.23 305.761 247.687 306.016 247.618 305.919C247.549 305.823 248.072 305.328 248.925 305.328C249.778 305.328 250.322 305.83 250.239 305.912Z" fill="#263238"/>
<path d="M251.856 308.224C251.822 308.341 251.271 308.224 250.652 308.444C250.033 308.664 249.648 309.05 249.551 308.981C249.455 308.912 249.751 308.293 250.521 308.052C251.292 307.811 251.918 308.093 251.856 308.224Z" fill="#263238"/>
<path d="M251.45 311.588C251.347 311.554 251.526 310.955 252.138 310.563C252.751 310.171 253.363 310.247 253.356 310.357C253.349 310.467 252.861 310.584 252.365 310.914C251.87 311.244 251.56 311.664 251.45 311.588Z" fill="#263238"/>
<path d="M251.608 303.339C251.505 303.401 251.127 302.968 250.528 302.651C249.93 302.335 249.366 302.225 249.366 302.108C249.366 301.991 250.054 301.894 250.742 302.287C251.43 302.679 251.705 303.291 251.608 303.339Z" fill="#263238"/>
<path d="M244.57 294.705L251.368 305.279L230.728 318.709C229.565 316.645 237.676 305.747 237.676 305.747L234.484 301.2L244.57 294.705Z" fill="#FE4400"/>
<g opacity="0.6">
<path opacity="0.6" d="M243.463 300.697C243.701 300.631 243.955 300.654 244.178 300.761C244.401 300.869 244.577 301.054 244.673 301.282C244.752 301.518 244.736 301.774 244.63 301.999C244.523 302.223 244.334 302.398 244.102 302.486C243.85 302.558 243.581 302.533 243.346 302.417C243.111 302.302 242.927 302.103 242.83 301.86C242.767 301.605 242.808 301.335 242.943 301.109C243.078 300.884 243.297 300.721 243.552 300.656" fill="white"/>
</g>
<g opacity="0.6">
<path opacity="0.6" d="M251.326 305.211L250.253 303.525L230.879 317.168C230.879 317.168 230.225 318.172 230.748 318.744L251.326 305.211Z" fill="white"/>
</g>
<path d="M237.25 305.857C237.319 305.96 237.855 305.678 238.564 305.678C239.273 305.678 239.809 305.933 239.878 305.83C239.947 305.727 239.417 305.245 238.557 305.259C237.697 305.273 237.174 305.782 237.25 305.857Z" fill="#263238"/>
<path d="M235.668 308.162C235.709 308.279 236.259 308.162 236.878 308.369C237.498 308.575 237.89 308.96 237.986 308.891C238.082 308.823 237.78 308.203 237.002 307.969C236.225 307.736 235.606 308.066 235.668 308.162Z" fill="#263238"/>
<path d="M236.122 311.554C236.232 311.554 236.039 310.921 235.434 310.543C234.828 310.164 234.195 310.24 234.209 310.357C234.223 310.474 234.704 310.57 235.207 310.893C235.709 311.217 236.018 311.616 236.122 311.554Z" fill="#263238"/>
<path d="M235.853 303.305C235.957 303.374 236.328 302.933 236.92 302.617C237.511 302.3 238.082 302.176 238.076 302.06C238.069 301.943 237.388 301.853 236.7 302.259C236.012 302.665 235.75 303.257 235.853 303.305Z" fill="#263238"/>
<path d="M216.975 219.685C216.975 219.685 198.825 237.573 202.644 250.384C205.664 260.504 231.89 302.947 231.89 302.947L247.639 292.627L227.143 254.457C226.926 252.591 226.539 250.749 225.987 248.953L227.143 247.425C227.143 247.425 233.941 244.212 239.644 244.591L240.153 219.864L216.975 219.685Z" fill="#263238"/>
<path d="M239.644 244.598C239.644 244.598 250.253 247.212 252.455 247.247C253.831 247.247 253.095 251.437 253.831 253.15V253.521L238.942 292.971L254.305 302.032C254.305 302.032 265.912 272.813 268.389 267.866C270.866 262.919 274.842 251.436 276.363 248.017C277.883 244.598 275.792 238.688 273.129 233.569C270.467 228.45 262.121 219.885 262.121 219.885H240.153L239.644 244.598Z" fill="#263238"/>
<path d="M270.384 237.965C269.459 237.669 268.514 237.439 267.556 237.277C265.234 236.923 262.858 237.273 260.737 238.283C258.615 239.292 256.844 240.914 255.654 242.94C255.177 243.784 254.763 244.663 254.416 245.568C254.453 245.307 254.517 245.051 254.608 244.804C254.825 244.117 255.116 243.455 255.475 242.83C256.645 240.73 258.441 239.046 260.613 238.014C262.784 236.982 265.223 236.653 267.591 237.071C268.297 237.19 268.988 237.381 269.655 237.642C269.91 237.719 270.155 237.828 270.384 237.965Z" fill="#455A64"/>
<path d="M261.536 247.247C261.121 247.525 260.689 247.777 260.243 248.003C259.202 248.605 258.204 249.278 257.257 250.019C256.312 250.761 255.425 251.573 254.601 252.448C254.276 252.828 253.927 253.186 253.556 253.521C253.798 253.079 254.096 252.669 254.443 252.303C256.031 250.452 257.966 248.931 260.14 247.824C260.577 247.57 261.047 247.376 261.536 247.247Z" fill="#455A64"/>
<path d="M227.184 247.419C227.136 247.453 226.634 246.641 225.581 245.533C224.965 244.888 224.29 244.301 223.566 243.779C222.678 243.143 221.728 242.599 220.731 242.155C219.724 241.728 218.678 241.399 217.608 241.172C216.733 240.992 215.844 240.884 214.952 240.848C213.431 240.8 212.482 240.944 212.475 240.883C212.699 240.815 212.93 240.774 213.163 240.759C213.423 240.716 213.685 240.688 213.947 240.676C214.293 240.646 214.64 240.635 214.986 240.642C215.894 240.64 216.8 240.728 217.69 240.903C218.783 241.117 219.851 241.444 220.876 241.88C221.891 242.336 222.855 242.899 223.751 243.559C224.48 244.101 225.153 244.714 225.76 245.389C226.004 245.645 226.233 245.914 226.448 246.194C226.612 246.399 226.762 246.615 226.896 246.841C227.013 247.022 227.11 247.216 227.184 247.419Z" fill="#455A64"/>
<path d="M227.184 247.419C227.136 247.419 227.074 246.903 226.868 246.091C226.598 245.034 226.225 244.006 225.753 243.022C225.032 241.654 224.214 240.339 223.304 239.087C223.68 239.38 224.011 239.725 224.288 240.112C224.981 240.981 225.574 241.925 226.056 242.926C226.543 243.926 226.897 244.985 227.109 246.077C227.206 246.517 227.231 246.97 227.184 247.419Z" fill="#455A64"/>
<path d="M231.89 302.947C231.89 302.947 231.89 302.947 231.959 302.892L232.166 302.741L232.991 302.176L236.142 300.071L247.439 292.627L247.391 292.792C244.866 287.976 241.887 282.362 238.702 276.342C234.175 267.715 230.053 259.83 227.006 254.03C226.613 252.166 226.263 250.515 225.953 249.063C225.374 247.444 224.291 246.052 222.864 245.093C222.487 244.835 222.091 244.605 221.68 244.405L221.357 244.268L221.254 244.212C221.844 244.387 222.406 244.649 222.919 244.99C224.39 245.933 225.511 247.332 226.111 248.973C226.428 250.418 226.792 252.069 227.205 253.927L238.991 276.204L247.646 292.668L247.701 292.778L247.604 292.84L236.252 300.195L233.06 302.259L232.214 302.789L231.994 302.92L231.89 302.947Z" fill="#455A64"/>
<path d="M239.321 238.254C239.321 238.303 238.495 238.254 237.181 238.323C235.465 238.433 233.764 238.714 232.104 239.163C230.441 239.6 228.838 240.237 227.329 241.061C226.18 241.708 225.554 242.245 225.52 242.197C225.639 242.047 225.778 241.912 225.932 241.798C226.103 241.648 226.283 241.508 226.469 241.378C226.71 241.199 226.96 241.034 227.219 240.883C228.721 239.989 230.343 239.312 232.035 238.874C233.713 238.414 235.441 238.159 237.181 238.117C237.709 238.097 238.238 238.113 238.764 238.165C238.952 238.169 239.14 238.199 239.321 238.254Z" fill="#455A64"/>
<path d="M239.108 235.09C238.987 234.924 238.887 234.744 238.812 234.553L238.124 233.053C237.371 231.4 236.421 229.843 235.296 228.416C234.165 226.997 232.686 225.895 231.003 225.217C230.29 224.98 229.558 224.803 228.815 224.687C229.018 224.657 229.224 224.657 229.427 224.687C229.988 224.729 230.541 224.844 231.072 225.031C232.823 225.665 234.364 226.772 235.523 228.23C236.654 229.684 237.579 231.286 238.275 232.991C238.557 233.638 238.764 234.161 238.901 234.532C238.991 234.709 239.061 234.896 239.108 235.09Z" fill="#455A64"/>
<path d="M252.455 226.256C252.455 226.318 251.622 226.359 250.336 226.71C249.581 226.913 248.846 227.185 248.141 227.522C246.409 228.337 244.868 229.509 243.621 230.962C243.108 231.556 242.647 232.193 242.245 232.867C241.557 234.03 241.316 234.828 241.261 234.808C241.285 234.61 241.338 234.418 241.419 234.236C241.486 234.015 241.569 233.799 241.667 233.59C241.783 233.307 241.916 233.031 242.066 232.764C242.441 232.061 242.886 231.397 243.394 230.783C244.019 230.023 244.723 229.332 245.492 228.719C246.272 228.127 247.114 227.622 248.003 227.212C248.728 226.881 249.484 226.623 250.26 226.441C250.59 226.352 250.893 226.318 251.161 226.269C251.389 226.23 251.619 226.207 251.849 226.201C252.053 226.188 252.257 226.207 252.455 226.256Z" fill="#455A64"/>
<path d="M254.993 243.153C254.952 243.194 254.388 242.568 253.267 241.846C251.787 240.92 250.197 240.185 248.533 239.658C246.881 239.099 245.175 238.716 243.442 238.516L242.548 238.454H241.86C241.665 238.477 241.469 238.477 241.275 238.454C241.458 238.382 241.65 238.335 241.846 238.316C242.038 238.316 242.265 238.282 242.534 238.268C242.802 238.254 243.105 238.268 243.449 238.268C245.209 238.413 246.944 238.773 248.616 239.341C250.304 239.871 251.906 240.645 253.37 241.639C253.612 241.808 253.842 241.995 254.058 242.197C254.241 242.337 254.411 242.494 254.567 242.664C254.729 242.809 254.872 242.973 254.993 243.153Z" fill="#455A64"/>
<path d="M255.434 247.838C255.434 247.838 255.227 247.756 255.021 247.494C254.764 247.146 254.605 246.735 254.56 246.304C254.516 245.869 254.587 245.43 254.766 245.031C254.911 244.729 255.069 244.591 255.097 244.612C254.922 245.149 254.841 245.712 254.856 246.276C254.958 246.826 255.153 247.355 255.434 247.838Z" fill="#455A64"/>
<path d="M254.691 251.051C254.656 251.051 254.533 250.92 254.416 250.638C254.27 250.262 254.223 249.855 254.278 249.455C254.327 249.053 254.476 248.67 254.711 248.34C254.89 248.093 255.055 247.99 255.083 248.017C254.855 248.486 254.685 248.98 254.574 249.489C254.549 250.013 254.588 250.537 254.691 251.051Z" fill="#455A64"/>
<path d="M239.768 234.835C239.898 236.465 239.925 238.101 239.851 239.734C239.879 241.369 239.808 243.005 239.637 244.632C239.512 243 239.484 241.362 239.555 239.727C239.526 238.093 239.597 236.46 239.768 234.835Z" fill="#455A64"/>
<path d="M181.494 319.727H179.045L177.648 217.222H182.884L181.494 319.727Z" fill="#455A64"/>
<path d="M305.479 319.727H303.085L302.644 217.841H307.77L305.479 319.727Z" fill="#455A64"/>
<path d="M328.589 217.346H164.948V224.233H328.589V217.346Z" fill="#455A64"/>
<path d="M203.132 217.449L203.077 217.525L202.884 217.731C202.615 217.987 202.309 218.2 201.976 218.364C201.428 218.629 200.84 218.801 200.236 218.873C199.431 218.978 198.618 219.01 197.807 218.97C196.828 218.922 195.852 218.823 194.883 218.674C193.781 218.494 192.669 218.379 191.553 218.33C189.003 218.337 186.472 218.765 184.061 219.596C181.488 220.401 179.086 221.316 176.788 221.873C175.698 222.143 174.59 222.334 173.472 222.444C172.493 222.537 171.507 222.537 170.528 222.444C169.119 222.333 167.745 221.95 166.482 221.316C166.033 221.096 165.612 220.821 165.23 220.497L165.32 220.545L165.56 220.704C165.87 220.906 166.192 221.09 166.524 221.254C167.786 221.851 169.148 222.21 170.541 222.313C171.509 222.402 172.484 222.402 173.452 222.313C174.558 222.198 175.655 222.002 176.733 221.729C179.011 221.164 181.405 220.249 183.992 219.444C186.426 218.601 188.984 218.173 191.56 218.179C192.685 218.234 193.806 218.355 194.917 218.543C195.877 218.698 196.843 218.804 197.814 218.86C198.613 218.898 199.413 218.873 200.208 218.784C200.801 218.72 201.38 218.559 201.921 218.309C202.37 218.092 202.779 217.801 203.132 217.449Z" fill="#263238"/>
<path d="M183.414 217.552C183.245 217.703 183.063 217.839 182.87 217.958C182.345 218.306 181.795 218.616 181.226 218.887C180.359 219.283 179.459 219.603 178.536 219.844C177.384 220.126 176.206 220.288 175.02 220.325C172.87 220.398 170.728 220.011 168.739 219.19C168.153 218.956 167.634 218.583 167.225 218.103C167.122 217.978 167.036 217.839 166.971 217.69C166.948 217.64 166.934 217.587 166.929 217.532C167.034 217.72 167.156 217.897 167.294 218.062C167.718 218.505 168.235 218.848 168.808 219.066C170.778 219.838 172.885 220.198 175 220.126C176.159 220.091 177.311 219.938 178.44 219.672C179.367 219.454 180.274 219.157 181.15 218.784C181.724 218.531 182.28 218.242 182.815 217.917C183.194 217.669 183.407 217.546 183.414 217.552Z" fill="#263238"/>
<path d="M225.705 221.921C225.802 221.943 225.896 221.973 225.987 222.011C226.261 222.089 226.539 222.153 226.82 222.203C227.89 222.372 228.986 222.221 229.971 221.77V221.859C228.804 221.086 227.459 220.627 226.063 220.525C224.287 220.366 222.505 220.77 220.972 221.68C220.779 221.804 220.6 221.949 220.58 222.128C220.559 222.307 220.71 222.472 220.917 222.575C221.136 222.676 221.367 222.748 221.605 222.788L222.369 222.94C223.401 223.139 224.433 223.339 225.568 223.476C226.696 223.636 227.834 223.705 228.973 223.683C229.558 223.668 230.142 223.62 230.721 223.538C231.01 223.49 231.299 223.442 231.588 223.373C231.874 223.321 232.155 223.243 232.427 223.139C232.84 222.998 233.215 222.762 233.521 222.451C233.655 222.314 233.747 222.141 233.785 221.953C233.823 221.765 233.805 221.57 233.734 221.392C233.543 221.028 233.242 220.735 232.874 220.552C232.492 220.346 232.091 220.176 231.677 220.043C230.058 219.51 228.372 219.204 226.669 219.135C223.773 218.991 220.876 219.383 218.124 220.291C216.312 220.885 214.585 221.711 212.984 222.747C212.434 223.118 212.007 223.435 211.739 223.628L211.422 223.868L211.305 223.944L211.409 223.855L211.711 223.6C211.973 223.373 212.399 223.07 212.929 222.692C214.529 221.618 216.267 220.767 218.096 220.16C220.866 219.22 223.788 218.81 226.71 218.949C228.436 219.013 230.145 219.319 231.787 219.857C232.215 219.998 232.629 220.175 233.026 220.387C233.431 220.588 233.761 220.914 233.968 221.316C234.051 221.525 234.073 221.753 234.03 221.974C233.987 222.194 233.882 222.398 233.727 222.561C233.397 222.9 232.992 223.157 232.544 223.311C232.261 223.421 231.969 223.504 231.67 223.559C231.374 223.628 231.079 223.676 230.783 223.717C230.195 223.805 229.602 223.855 229.008 223.868C227.857 223.892 226.707 223.821 225.568 223.655C224.453 223.511 223.387 223.311 222.348 223.105L221.584 222.953C221.322 222.91 221.068 222.831 220.827 222.719C220.706 222.659 220.598 222.575 220.511 222.472C220.426 222.367 220.384 222.234 220.394 222.1C220.429 221.977 220.49 221.863 220.574 221.766C220.657 221.668 220.76 221.59 220.876 221.536C222.446 220.605 224.273 220.2 226.091 220.38C227.511 220.484 228.88 220.959 230.06 221.756L230.136 221.804L230.053 221.839C229.042 222.291 227.918 222.43 226.827 222.238C226.44 222.186 226.062 222.079 225.705 221.921Z" fill="#263238"/>
<path d="M248.905 217.628C248.985 217.73 249.043 217.847 249.077 217.972C249.196 218.305 249.238 218.66 249.2 219.011C249.003 220.194 248.379 221.264 247.446 222.018C246.947 222.486 246.395 222.895 245.802 223.235C244.948 223.707 244.015 224.019 243.05 224.157C242.906 224.177 242.76 224.177 242.616 224.157C242.616 224.123 243.222 224.047 244.144 223.744C244.672 223.566 245.181 223.336 245.664 223.056C246.237 222.716 246.77 222.312 247.253 221.852C248.158 221.125 248.78 220.106 249.015 218.97C249.07 218.52 249.033 218.063 248.905 217.628Z" fill="#263238"/>
<path d="M281.268 223.875C281.005 223.632 280.73 223.402 280.443 223.187C279.607 222.592 278.639 222.212 277.622 222.08C276.908 221.989 276.184 222.008 275.475 222.135C274.649 222.302 273.806 222.369 272.964 222.334C272.05 222.201 271.187 221.831 270.46 221.261C269.696 220.694 268.846 220.255 267.942 219.96C266.121 219.428 264.189 219.402 262.355 219.885C260.889 220.266 259.494 220.884 258.227 221.715C257.387 222.256 256.585 222.854 255.826 223.504L255.214 224.027C255.148 224.096 255.074 224.156 254.993 224.205C255.05 224.134 255.112 224.067 255.179 224.006C255.31 223.875 255.509 223.683 255.764 223.449C256.505 222.775 257.296 222.159 258.131 221.605C259.405 220.746 260.814 220.106 262.3 219.713C264.178 219.207 266.158 219.229 268.024 219.775C268.947 220.081 269.816 220.531 270.597 221.109C271.29 221.661 272.116 222.022 272.992 222.155C273.817 222.194 274.644 222.134 275.455 221.976C276.182 221.852 276.925 221.84 277.656 221.942C278.691 222.092 279.671 222.501 280.505 223.132C280.795 223.34 281.053 223.59 281.268 223.875Z" fill="#263238"/>
<path d="M310.171 217.408C310.111 217.491 310.044 217.569 309.972 217.642C309.834 217.786 309.648 218.02 309.359 218.282C308.555 219.06 307.672 219.751 306.724 220.346C305.293 221.253 303.762 221.994 302.163 222.554C301.203 222.903 300.219 223.179 299.218 223.38C298.134 223.607 297.03 223.732 295.923 223.751C293.79 223.736 291.676 223.349 289.676 222.609C288.078 222.043 286.553 221.288 285.135 220.36C284.2 219.756 283.324 219.065 282.52 218.296C282.231 218.034 282.046 217.8 281.901 217.656C281.757 217.511 281.702 217.422 281.702 217.422C281.787 217.482 281.865 217.551 281.936 217.628C282.087 217.766 282.286 217.993 282.582 218.24C283.402 218.985 284.286 219.655 285.224 220.243C286.645 221.144 288.163 221.881 289.751 222.437C291.736 223.162 293.831 223.537 295.943 223.545C297.035 223.529 298.122 223.409 299.191 223.187C300.179 222.99 301.152 222.721 302.101 222.382C303.695 221.837 305.222 221.114 306.655 220.229C307.602 219.652 308.491 218.986 309.311 218.24C309.614 217.993 309.806 217.766 309.958 217.628C310.021 217.547 310.092 217.474 310.171 217.408Z" fill="#263238"/>
<path d="M306.043 217.346C305.995 217.389 305.942 217.426 305.885 217.456C305.782 217.518 305.63 217.621 305.417 217.731C304.832 218.061 304.231 218.36 303.614 218.626C302.689 219.033 301.735 219.371 300.759 219.637C299.551 219.989 298.302 220.176 297.044 220.194C294.765 220.154 292.517 219.658 290.432 218.736C289.817 218.469 289.22 218.164 288.644 217.821C288.437 217.697 288.293 217.594 288.19 217.525L288.038 217.415C288.262 217.515 288.481 217.627 288.692 217.752C289.279 218.072 289.883 218.359 290.501 218.612C292.573 219.482 294.791 219.949 297.037 219.988C298.277 219.97 299.51 219.791 300.704 219.458C301.671 219.196 302.62 218.872 303.546 218.488C304.33 218.165 304.956 217.869 305.376 217.656C305.591 217.537 305.814 217.434 306.043 217.346Z" fill="#263238"/>
<path d="M324.365 218.055H324.158L323.566 218.02H323.147H322.672C322.307 218.02 321.895 218.02 321.434 218.02L320.746 218.055L319.92 218.096C319.383 218.096 318.826 218.247 318.228 218.33C316.95 218.573 315.691 218.901 314.457 219.314C313.249 219.741 312.07 220.246 310.928 220.827C310.426 221.116 309.923 221.371 309.497 221.653L308.864 222.052L308.307 222.451C307.983 222.664 307.671 222.893 307.371 223.139L306.993 223.435L306.697 223.703L306.277 224.068C306.232 224.113 306.181 224.152 306.126 224.185C306.159 224.13 306.201 224.082 306.25 224.04L306.635 223.648L306.917 223.366L307.288 223.056C307.55 222.836 307.846 222.575 308.203 222.32L308.761 221.914L309.387 221.502C309.813 221.213 310.316 220.951 310.825 220.655C311.971 220.056 313.16 219.541 314.382 219.114C315.623 218.693 316.895 218.367 318.186 218.137C318.792 218.055 319.363 217.945 319.899 217.91L320.684 217.841H321.406C321.867 217.841 322.287 217.841 322.651 217.841H323.161L323.587 217.883L324.179 217.952C324.246 217.976 324.308 218.011 324.365 218.055Z" fill="#263238"/>
<path d="M284.509 223.738C284.211 223.364 283.879 223.018 283.518 222.706C282.448 221.861 281.209 221.256 279.885 220.931C278.954 220.686 278.007 220.504 277.051 220.387C276.019 220.243 274.904 220.126 273.735 219.954C272.521 219.76 271.319 219.496 270.136 219.162C268.878 218.798 267.595 218.527 266.297 218.351C263.768 218.124 261.22 218.434 258.819 219.259C257.784 219.599 256.769 219.996 255.778 220.449C254.842 220.869 253.989 221.281 253.211 221.66C251.663 222.43 250.425 223.084 249.579 223.538L248.595 224.061L248.34 224.199L248.251 224.233L248.327 224.178L248.574 224.027C248.788 223.896 249.111 223.71 249.531 223.476C250.37 223.001 251.595 222.327 253.136 221.543C253.906 221.151 254.759 220.731 255.688 220.304C256.686 219.844 257.708 219.438 258.75 219.087C261.179 218.247 263.758 217.93 266.318 218.158C267.628 218.336 268.923 218.612 270.191 218.984C271.366 219.315 272.558 219.579 273.762 219.775C274.925 219.954 276.032 220.071 277.071 220.222C278.034 220.353 278.988 220.546 279.927 220.8C281.263 221.141 282.508 221.773 283.573 222.651C283.946 222.956 284.263 223.323 284.509 223.738Z" fill="#263238"/>
<path d="M243.91 217.449C243.933 217.595 243.933 217.744 243.91 217.89C243.847 218.291 243.729 218.683 243.559 219.052C242.981 220.343 242.02 221.424 240.807 222.148C239.497 222.851 238.112 223.405 236.679 223.8C236.128 223.958 235.674 224.075 235.365 224.144C235.204 224.195 235.038 224.225 234.869 224.233C235.02 224.165 235.177 224.112 235.337 224.075L236.624 223.669C238.021 223.24 239.373 222.678 240.662 221.99C241.849 221.279 242.805 220.24 243.414 218.997C243.628 218.498 243.793 217.98 243.91 217.449Z" fill="#263238"/>
<path d="M202.066 224.233C202.202 224.1 202.35 223.978 202.506 223.868C202.795 223.634 203.235 223.325 203.786 222.946C205.26 221.981 206.797 221.117 208.388 220.36C210.26 219.458 212.007 218.743 213.28 218.234C213.913 217.979 214.429 217.773 214.787 217.642C214.971 217.56 215.162 217.495 215.358 217.449C215.189 217.551 215.012 217.639 214.828 217.711L213.349 218.357C212.097 218.894 210.356 219.637 208.492 220.532C206.908 221.285 205.369 222.128 203.882 223.056C203.318 223.414 202.864 223.744 202.561 223.923C202.409 224.046 202.242 224.15 202.066 224.233Z" fill="#263238"/>
<path d="M210.528 217.731C210.528 217.731 210.115 217.683 209.365 217.731C208.325 217.827 207.308 218.099 206.359 218.536C204.998 219.19 203.694 219.954 202.458 220.82C201.704 221.318 200.918 221.764 200.105 222.155C199.202 222.568 198.259 222.886 197.291 223.105C195.395 223.488 193.467 223.691 191.532 223.71C189.75 223.751 188.147 223.71 186.806 223.772C185.749 223.797 184.694 223.887 183.648 224.04L182.802 224.192C182.702 224.215 182.601 224.229 182.499 224.233L182.788 224.15C182.98 224.095 183.263 224.04 183.634 223.965C184.68 223.781 185.738 223.67 186.799 223.634C188.175 223.566 189.75 223.586 191.525 223.531C193.444 223.504 195.356 223.297 197.236 222.912C198.182 222.7 199.104 222.391 199.988 221.99C200.793 221.603 201.572 221.164 202.32 220.676C203.573 219.812 204.897 219.055 206.276 218.412C207.248 217.979 208.29 217.723 209.352 217.656C209.64 217.639 209.93 217.639 210.218 217.656C210.324 217.671 210.427 217.697 210.528 217.731Z" fill="#263238"/>
<path d="M322.975 217.319C322.975 217.374 315.441 217.415 306.153 217.415C296.865 217.415 289.325 217.374 289.325 217.319C289.325 217.264 296.893 217.222 306.153 217.222C315.414 217.222 322.975 217.264 322.975 217.319Z" fill="#263238"/>
<path d="M135.164 297.216L134.8 311.499C134.8 311.499 149.2 316.666 149.385 319.314L121.666 319.603L121.322 297.319L135.164 297.216Z" fill="#455A64"/>
<path d="M126.221 310.357C125.955 310.441 125.729 310.62 125.587 310.86C125.445 311.1 125.396 311.383 125.45 311.657C125.523 311.926 125.696 312.157 125.935 312.301C126.173 312.446 126.457 312.494 126.73 312.435C127.01 312.344 127.247 312.154 127.397 311.901C127.546 311.647 127.598 311.347 127.541 311.058C127.435 310.786 127.227 310.566 126.961 310.444C126.696 310.322 126.393 310.308 126.117 310.405" fill="#E0E0E0"/>
<path d="M121.666 319.576L121.721 317.326L148.278 317.89C148.278 317.89 149.516 318.413 149.385 319.266L121.666 319.576Z" fill="#263238"/>
<path d="M135.247 311.327C135.247 311.458 134.559 311.527 133.912 311.974C133.266 312.421 132.901 312.985 132.777 312.937C132.653 312.889 132.839 312.098 133.651 311.561C134.463 311.024 135.281 311.203 135.247 311.327Z" fill="white"/>
<path d="M138.171 312.496C138.171 312.627 137.621 312.868 137.167 313.439C136.713 314.01 136.582 314.629 136.479 314.622C136.375 314.615 136.252 313.852 136.829 313.143C137.407 312.434 138.164 312.352 138.171 312.496Z" fill="white"/>
<path d="M139.857 315.957C139.733 315.991 139.54 315.317 139.857 314.581C140.173 313.845 140.827 313.528 140.889 313.645C140.951 313.762 140.558 314.154 140.29 314.774C140.022 315.393 139.994 315.943 139.857 315.957Z" fill="white"/>
<path d="M134.972 308.059C134.917 308.183 134.284 308.004 133.527 308.059C132.77 308.114 132.151 308.361 132.096 308.251C132.041 308.141 132.598 307.646 133.472 307.563C134.346 307.481 135.041 307.956 134.972 308.059Z" fill="white"/>
<path d="M103.324 298.991L103.461 316.274L107.514 329.917C107.584 330.149 107.605 330.393 107.577 330.634C107.548 330.875 107.47 331.107 107.347 331.317C107.224 331.526 107.06 331.708 106.863 331.85C106.667 331.993 106.444 332.094 106.207 332.146C105.932 332.209 105.646 332.205 105.373 332.134C105.1 332.063 104.848 331.928 104.638 331.74C101.886 329.291 91.9787 320.237 92.0406 318.971C92.1094 317.505 90.6646 300.752 90.6646 300.752L103.324 298.991Z" fill="#455A64"/>
<path d="M106.207 332.146L92.0063 317.808V318.537C92.0276 319.171 92.2711 319.778 92.6943 320.25C93.8364 321.503 97.0494 324.901 104.569 331.74C104.786 331.936 105.047 332.075 105.33 332.146C105.613 332.217 105.91 332.217 106.193 332.146H106.207Z" fill="#263238"/>
<g opacity="0.6">
<path opacity="0.6" d="M95.3775 312.125C95.5912 312.274 95.7433 312.496 95.8053 312.749C95.8673 313.003 95.8351 313.27 95.7146 313.501C95.5738 313.725 95.3521 313.885 95.0957 313.949C94.8393 314.013 94.568 313.976 94.3386 313.845C94.108 313.687 93.9445 313.448 93.8796 313.176C93.8148 312.904 93.8533 312.618 93.9877 312.373C94.16 312.156 94.4094 312.014 94.6837 311.977C94.9581 311.94 95.2363 312.01 95.46 312.173" fill="white"/>
</g>
<path d="M102.024 324.736C102.421 324.187 102.921 323.719 103.496 323.36C104.121 323.09 104.79 322.938 105.47 322.913C105.47 322.871 105.264 322.748 104.858 322.699C104.324 322.655 103.788 322.767 103.317 323.023C102.844 323.272 102.452 323.651 102.189 324.117C101.996 324.454 101.982 324.736 102.024 324.736Z" fill="white"/>
<path d="M103.324 326.993C103.406 327.068 103.95 326.49 104.831 326.208C105.386 326.082 105.949 325.99 106.516 325.933C106.244 325.777 105.939 325.687 105.626 325.672C105.312 325.656 105 325.715 104.714 325.844C103.702 326.174 103.234 326.951 103.324 326.993Z" fill="white"/>
<path d="M99.6432 321.826C100.356 321.313 101.106 320.853 101.886 320.45C102.716 320.158 103.567 319.928 104.432 319.762C103.522 319.552 102.567 319.669 101.735 320.092C100.852 320.399 100.109 321.015 99.6432 321.826Z" fill="white"/>
<path d="M99.1615 316.576C99.2096 316.68 100.152 316.246 101.391 316.163C102.629 316.081 103.627 316.349 103.661 316.239C102.972 315.824 102.159 315.663 101.363 315.785C100.558 315.779 99.778 316.059 99.1615 316.576Z" fill="white"/>
<path d="M98.9894 311.499C99.7355 311.236 100.513 311.072 101.301 311.01C102.091 311.074 102.869 311.245 103.613 311.519C103.613 311.478 103.441 311.272 103.035 311.052C102.501 310.785 101.912 310.646 101.315 310.646C100.718 310.646 100.129 310.785 99.5949 311.052C99.1614 311.251 98.9619 311.464 98.9894 311.499Z" fill="white"/>
<path d="M101.239 310.047C101.287 309.832 101.287 309.609 101.239 309.394C101.162 308.798 100.968 308.223 100.668 307.701C100.478 307.302 100.165 306.974 99.7738 306.766C99.6392 306.706 99.489 306.691 99.3453 306.724C99.2017 306.756 99.0721 306.833 98.9757 306.945C98.7964 307.168 98.7079 307.45 98.7281 307.736C98.7848 308.315 99.0419 308.857 99.455 309.268C99.8682 309.678 100.412 309.932 100.992 309.985C101.565 310.025 102.138 309.892 102.636 309.606C103.135 309.319 103.537 308.891 103.792 308.376C103.851 308.244 103.882 308.101 103.882 307.956C103.882 307.811 103.851 307.668 103.792 307.536C103.721 307.407 103.611 307.304 103.477 307.242C103.343 307.18 103.193 307.162 103.049 307.192C102.626 307.297 102.239 307.514 101.927 307.818C101.468 308.203 101.083 308.67 100.792 309.194C100.667 309.376 100.582 309.582 100.544 309.8C100.973 309.135 101.497 308.537 102.099 308.025C102.381 307.775 102.719 307.596 103.083 307.502C103.162 307.487 103.243 307.497 103.316 307.53C103.388 307.563 103.449 307.618 103.489 307.688C103.52 307.777 103.533 307.872 103.526 307.967C103.519 308.062 103.492 308.154 103.448 308.238C103.214 308.678 102.859 309.041 102.425 309.285C101.991 309.529 101.496 309.643 100.998 309.614C100.508 309.567 100.047 309.355 99.6924 309.012C99.3375 308.67 99.1092 308.218 99.0445 307.729C99.0293 307.531 99.0827 307.334 99.1959 307.172C99.2497 307.111 99.3208 307.069 99.3997 307.05C99.4785 307.032 99.5612 307.038 99.6362 307.068C99.968 307.241 100.237 307.512 100.407 307.846C100.814 308.524 101.096 309.269 101.239 310.047Z" fill="white"/>
<path d="M138.095 177.222C139.03 183.141 139.552 189.118 139.657 195.11C139.726 198.956 138.15 305.823 138.15 305.823L120.751 307.488L116.176 207.728L114.8 208.168C114.8 208.168 109.337 251.43 109.22 258.392C109.11 264.584 105.367 310.164 105.367 310.164L89.44 311.795L88.8758 252.083L88.064 194.346L90.699 176.08L138.095 177.222Z" fill="#263238"/>
<path d="M110.513 197.821C110.755 197.966 111.014 198.082 111.284 198.165C111.996 198.447 112.744 198.63 113.506 198.708C114.045 198.759 114.587 198.712 115.109 198.571C115.724 198.407 116.279 198.073 116.712 197.607C117.152 197.065 117.443 196.418 117.559 195.729C117.684 195.021 117.773 194.307 117.827 193.589C118.109 190.672 118.233 188.024 118.274 186.104C118.274 185.141 118.274 184.363 118.274 183.827C118.288 183.548 118.267 183.268 118.212 182.994C118.159 183.269 118.132 183.547 118.13 183.827C118.095 184.439 118.054 185.203 118.006 186.09C117.896 188.003 117.731 190.645 117.448 193.555C117.304 195 117.249 196.452 116.451 197.38C116.072 197.764 115.612 198.059 115.105 198.243C114.599 198.428 114.057 198.497 113.52 198.447C112.773 198.391 112.034 198.25 111.318 198.027C111.059 197.928 110.789 197.859 110.513 197.821Z" fill="#455A64"/>
<path d="M114.469 183.854C114.469 183.854 114.346 183.772 114.105 183.785C113.751 183.806 113.415 183.95 113.155 184.191C112.959 184.361 112.803 184.573 112.7 184.811C112.596 185.049 112.547 185.308 112.557 185.567C112.599 185.897 112.742 186.206 112.966 186.452C113.19 186.699 113.484 186.87 113.809 186.943C114.12 187.048 114.456 187.056 114.772 186.968C115.089 186.879 115.371 186.698 115.584 186.448C115.729 186.226 115.822 185.973 115.854 185.709C115.886 185.446 115.857 185.178 115.77 184.928C115.669 184.589 115.452 184.297 115.157 184.102C114.951 183.971 114.813 183.957 114.807 183.978C115.141 184.233 115.383 184.591 115.495 184.996C115.551 185.208 115.562 185.43 115.525 185.646C115.488 185.862 115.405 186.067 115.281 186.248C115.106 186.44 114.881 186.579 114.632 186.651C114.383 186.724 114.119 186.726 113.869 186.659C113.618 186.592 113.391 186.457 113.212 186.269C113.033 186.081 112.908 185.848 112.853 185.595C112.837 185.376 112.869 185.156 112.947 184.951C113.024 184.746 113.144 184.559 113.3 184.405C113.618 184.096 114.029 183.902 114.469 183.854Z" fill="#455A64"/>
<path d="M87.5756 193.644C87.7744 193.687 87.9786 193.699 88.181 193.679C88.7273 193.676 89.2725 193.63 89.8116 193.541C93.4228 192.993 96.7346 191.217 99.189 188.512C99.5579 188.107 99.8981 187.677 100.207 187.225C100.421 186.902 100.531 186.716 100.503 186.703C100.476 186.689 99.9527 187.356 99.0032 188.333C96.5004 190.887 93.2804 192.619 89.7703 193.3C88.4287 193.548 87.5756 193.583 87.5756 193.644Z" fill="#455A64"/>
<path d="M129.227 182.774C129.508 183.382 129.869 183.949 130.3 184.46C131.281 185.738 132.413 186.893 133.672 187.9C134.94 188.913 136.326 189.77 137.8 190.452C138.394 190.759 139.025 190.99 139.678 191.14C139.109 190.8 138.521 190.492 137.917 190.218C135.085 188.747 132.572 186.732 130.521 184.288C130.118 183.759 129.686 183.254 129.227 182.774Z" fill="#455A64"/>
<path d="M111.036 99.5536L121.404 100.104L126.076 96.0861L136.128 101.59L142.54 104.438L142.382 109.488L149.372 114.112L144.287 134.332L137.407 157.339C137.407 157.339 138.04 174.367 137.744 175.791C137.449 177.215 134.366 180.077 122.299 180.228C110.231 180.38 90.3 176.479 90.3 176.479C88.924 174.202 90.3 170.727 90.6509 168.092L94.6688 136.561L99.3678 110.974L111.036 99.5536Z" fill="#FE4400"/>
<path d="M99.705 101.232C96.4851 102.773 85.2019 119.12 77.9435 133.623C77.9435 133.623 72.4946 146.351 72.0749 147.466C71.6552 148.58 73.389 184.955 73.389 184.955L86.7568 185.395C86.8462 182.286 88.009 156.981 88.2429 151.897C88.2719 151.309 88.4194 150.733 88.6763 150.204L98.0125 131.298C98.0125 131.298 106.881 112.777 107.583 111.346C108.284 109.915 111.023 99.5192 111.023 99.5192C110.617 99.5536 102.918 99.6912 99.705 101.232Z" fill="#FE4400"/>
<path d="M131.91 114.105C131.79 113.978 131.686 113.837 131.601 113.685C131.408 113.396 131.14 112.997 130.83 112.426C129.99 110.936 129.266 109.383 128.663 107.782L128.862 107.885C128.277 108.079 127.734 108.385 127.266 108.787C126.734 109.192 126.27 109.68 125.89 110.231L125.842 110.3L125.677 110.555L125.533 110.293C124.313 108.005 123.254 105.635 122.361 103.2C122.024 102.264 121.776 101.501 121.618 100.964C121.519 100.692 121.447 100.411 121.405 100.125C121.55 100.376 121.665 100.644 121.749 100.923C121.976 101.508 122.258 102.237 122.602 103.111C123.557 105.513 124.645 107.861 125.863 110.142H125.553L125.601 110.066C125.997 109.482 126.485 108.967 127.046 108.539C127.555 108.11 128.144 107.787 128.78 107.589L128.924 107.548L128.979 107.686C129.558 109.284 130.236 110.844 131.009 112.357C131.341 112.923 131.642 113.506 131.91 114.105Z" fill="#263238"/>
<path d="M142.416 109.481C142.137 110.035 141.798 110.557 141.405 111.036C140.717 111.972 139.685 113.245 138.439 114.669L138.144 115.006V114.552C138.144 113.816 138.144 113.032 138.144 112.22C138.144 111.69 138.144 111.167 138.144 110.672L138.357 110.844C137.435 111.059 136.562 111.446 135.784 111.986C135.054 112.454 134.408 112.928 133.864 113.279C133.429 113.568 132.968 113.817 132.488 114.022C132.319 114.111 132.135 114.167 131.945 114.187C131.945 114.139 132.633 113.85 133.713 113.087C134.249 112.715 134.862 112.227 135.598 111.711C136.399 111.13 137.306 110.711 138.267 110.479L138.481 110.438V110.651C138.481 111.153 138.481 111.676 138.481 112.206V114.538L138.178 114.421C139.43 113.045 140.483 111.779 141.219 110.885C141.593 110.396 141.993 109.928 142.416 109.481Z" fill="#263238"/>
<path d="M116.829 180.187C116.819 180.128 116.819 180.068 116.829 180.008L116.877 179.499C116.939 179.024 117.022 178.364 117.118 177.538C117.215 176.713 117.366 175.646 117.545 174.436C117.724 173.225 117.923 171.856 118.178 170.342C119.148 164.274 120.744 155.935 122.877 146.812C125.01 137.689 127.252 129.495 128.972 123.599C129.832 120.655 130.555 118.274 131.071 116.637C131.325 115.839 131.525 115.212 131.676 114.752C131.738 114.559 131.793 114.401 131.841 114.27C131.858 114.213 131.879 114.158 131.903 114.105C131.914 114.162 131.914 114.22 131.903 114.277C131.869 114.408 131.821 114.573 131.773 114.779L131.236 116.678C130.754 118.357 130.08 120.737 129.248 123.668C127.59 129.578 125.388 137.772 123.248 146.895C121.109 156.018 119.485 164.336 118.432 170.383C118.164 171.89 117.951 173.266 117.744 174.47C117.538 175.674 117.387 176.706 117.256 177.559C117.125 178.412 117.029 179.038 116.953 179.513C116.919 179.713 116.884 179.884 116.864 180.015C116.861 180.074 116.85 180.132 116.829 180.187Z" fill="#263238"/>
<path d="M131.883 162.451C131.883 162.554 125.691 163.056 117.978 163.586C110.266 164.116 104.053 164.46 104.046 164.363C104.039 164.267 110.238 163.758 117.951 163.228C125.663 162.698 131.876 162.368 131.883 162.451Z" fill="#263238"/>
<path d="M126.723 160.455C126.723 160.552 123.537 160.38 119.629 160.07C115.722 159.76 112.557 159.43 112.564 159.334C114.933 159.341 117.3 159.467 119.657 159.712C122.023 159.837 124.382 160.085 126.723 160.455Z" fill="#263238"/>
<path d="M141.412 105.415L142.884 102.581C142.884 102.581 150.053 103.799 152.413 97.008C153.548 93.7331 155.344 86.7912 156.898 80.496C157.706 77.2282 157.252 73.7762 155.627 70.8281C154.003 67.88 151.327 65.6524 148.133 64.5894L147.48 64.3693C140.249 62.4154 134.552 67.4653 132.798 74.7512L126.262 97.008L132.096 113.286L141.412 105.415Z" fill="#BA7F72"/>
<path d="M142.884 102.581C139.738 101.528 136.961 99.5934 134.882 97.008C134.882 97.008 135.006 102.615 142.01 104.266L142.884 102.581Z" fill="#8B5D54"/>
<path d="M152.881 85.773C152.802 86.0311 152.626 86.2481 152.389 86.3769C152.152 86.5056 151.874 86.5359 151.615 86.461C151.489 86.4276 151.372 86.3696 151.269 86.2904C151.167 86.2112 151.081 86.1123 151.017 85.9996C150.953 85.8869 150.912 85.7626 150.896 85.6339C150.881 85.5052 150.891 85.3748 150.927 85.2501C151.005 84.9919 151.181 84.775 151.418 84.6462C151.655 84.5174 151.933 84.4872 152.193 84.5621C152.443 84.6328 152.656 84.7996 152.785 85.0262C152.914 85.2529 152.948 85.5212 152.881 85.773Z" fill="#263238"/>
<path d="M154.318 83.3306C154.16 83.42 153.63 82.6426 152.557 82.2848C151.484 81.9271 150.562 82.2022 150.493 82.0371C150.424 81.872 150.658 81.7757 151.071 81.6381C151.631 81.4771 152.226 81.4915 152.777 81.6794C153.331 81.8558 153.813 82.2055 154.153 82.677C154.367 83.0278 154.401 83.2962 154.318 83.3306Z" fill="#263238"/>
<path d="M143.572 82.7182C143.494 82.9764 143.317 83.1934 143.08 83.3221C142.843 83.4509 142.565 83.4811 142.306 83.4062C142.181 83.3728 142.063 83.3148 141.961 83.2356C141.858 83.1564 141.772 83.0576 141.708 82.9449C141.644 82.8322 141.603 82.7079 141.588 82.5792C141.572 82.4505 141.582 82.32 141.618 82.1954C141.696 81.9372 141.873 81.7202 142.11 81.5915C142.347 81.4627 142.625 81.4325 142.884 81.5074C143.135 81.5781 143.348 81.7448 143.476 81.9715C143.605 82.1982 143.64 82.4665 143.572 82.7182Z" fill="#263238"/>
<path d="M143.957 80.0901C143.799 80.1795 143.269 79.4021 142.189 79.0443C141.109 78.6866 140.201 78.9618 140.125 78.7966C140.049 78.6315 140.283 78.5352 140.703 78.3976C141.264 78.2316 141.862 78.2436 142.416 78.432C142.97 78.6075 143.453 78.9575 143.792 79.4296C144.005 79.808 144.04 80.0557 143.957 80.0901Z" fill="#263238"/>
<path d="M145.168 89.1304C145.778 89.14 146.383 89.2279 146.971 89.3918C147.253 89.4538 147.521 89.4813 147.624 89.3162C147.744 89.0486 147.775 88.7497 147.714 88.463C147.714 87.7338 147.638 86.9701 147.604 86.1651C147.473 82.8971 147.473 80.2483 147.604 80.2414C147.734 80.2346 147.948 82.8834 148.078 86.1514C148.078 86.9563 148.126 87.72 148.154 88.4493C148.213 88.8299 148.137 89.2191 147.941 89.5501C147.871 89.6321 147.783 89.6966 147.684 89.7384C147.585 89.7802 147.477 89.7982 147.37 89.7909C147.208 89.7823 147.048 89.7522 146.895 89.7015C146.297 89.5848 145.717 89.3929 145.168 89.1304Z" fill="#263238"/>
<path d="M145.601 76.079C145.402 76.3267 144.397 75.8451 143.125 75.5837C141.852 75.3222 140.737 75.3222 140.662 75.0126C140.662 74.8682 140.889 74.6549 141.384 74.5173C142.032 74.3588 142.707 74.3495 143.359 74.4901C144.011 74.6307 144.623 74.9176 145.147 75.3291C145.54 75.68 145.691 75.9552 145.601 76.079Z" fill="#263238"/>
<path d="M154.951 80.1727C154.683 80.3515 154.043 79.8631 153.183 79.5603C152.323 79.2576 151.525 79.1888 151.443 78.8723C151.408 78.7278 151.601 78.5283 152 78.4114C152.521 78.2854 153.068 78.3169 153.571 78.5018C154.075 78.6868 154.512 79.0168 154.828 79.4503C155.048 79.808 155.068 80.0832 154.951 80.1727Z" fill="#263238"/>
<path d="M157.284 77.1454C157.284 77.1454 156.912 72.2744 155.185 70.5888C153.121 68.5248 151.112 70.9328 148.959 69.4742C146.805 68.0157 144.831 66.0342 141.776 67.0938C138.446 68.2152 139.224 70.0384 138.047 73.0106C133.293 85.0506 129.894 87.775 131.167 81.7826C131.305 81.0946 129.716 80.035 130.349 77.2762C131.167 73.6986 132.413 69.4467 134.036 67.2451C135.412 65.3875 137.036 64.3486 139.685 63.4749C143.868 62.0989 148.477 63.5781 151.498 64.9334C154.518 66.2888 159.355 71.8891 157.284 77.1454Z" fill="#263238"/>
<path d="M131.683 81.7413C131.758 81.4901 131.782 81.2265 131.753 80.9659C131.724 80.7054 131.643 80.4534 131.515 80.2249C131.386 79.9963 131.213 79.796 131.006 79.6357C130.798 79.4755 130.561 79.3586 130.307 79.292C128.993 78.9893 127.335 79.237 126.544 81.8926C125.168 86.6055 130.156 87.0458 130.204 86.9151C130.252 86.7843 131.112 83.7158 131.683 81.7413Z" fill="#BA7F72"/>
<path d="M129.681 84.8373C129.681 84.8373 129.585 84.8373 129.427 84.8923C129.206 84.9157 128.984 84.8542 128.807 84.7203C128.561 84.4358 128.395 84.0909 128.326 83.7209C128.257 83.3509 128.288 82.9692 128.415 82.615C128.521 82.2088 128.719 81.8323 128.993 81.5142C129.081 81.3797 129.2 81.2686 129.34 81.1907C129.48 81.1127 129.638 81.0703 129.798 81.067C129.899 81.0703 129.996 81.1083 130.073 81.1748C130.149 81.2412 130.2 81.3319 130.218 81.4317C130.218 81.583 130.183 81.6725 130.218 81.6862C130.252 81.7 130.342 81.6381 130.362 81.4317C130.369 81.3074 130.335 81.1841 130.266 81.0808C130.162 80.9472 130.013 80.8566 129.846 80.8262C129.642 80.8066 129.435 80.8399 129.247 80.9231C129.059 81.0062 128.896 81.1364 128.773 81.301C128.448 81.6477 128.212 82.0679 128.085 82.5256C127.83 83.4888 128.085 84.5208 128.67 84.9198C128.786 84.9941 128.917 85.0412 129.054 85.0579C129.191 85.0746 129.33 85.0603 129.461 85.0162C129.64 84.9474 129.695 84.851 129.681 84.8373Z" fill="#8B5D54"/>
<path d="M160.221 72.5978C159.733 71.7928 158.797 71.3318 158.316 70.5338C157.435 69.0614 158.261 66.8323 157.008 65.6627C156.259 64.9747 155.103 64.9747 154.201 64.5275C152.743 63.7638 152.612 62.381 150.307 61.4522C149.522 61.0813 148.647 60.9451 147.787 61.0598C146.926 61.1746 146.117 61.5354 145.457 62.0989C145.006 61.6225 144.436 61.2741 143.807 61.0892C143.177 60.9044 142.51 60.8895 141.873 61.0462C141.319 61.2115 140.807 61.491 140.368 61.8667C139.93 62.2424 139.575 62.7059 139.327 63.2272C139.327 63.2272 138.942 62.8006 137.05 63.3648C135.72 63.919 134.561 64.8165 133.692 65.9654C132.536 67.4378 132.557 69.488 132.633 71.3594C132.674 72.3707 132.777 73.5059 133.548 74.1595C134.49 74.9645 136.025 74.593 136.878 73.6917C137.731 72.7904 138.825 71.9923 139.753 71.1736C141.357 69.7494 142.939 68.4216 142.636 67.0456C143.811 67.1006 144.939 67.527 145.856 68.2634C146.764 69.0202 147.404 70.059 148.298 70.8365C149.193 71.6139 150.514 72.123 151.553 71.5589C151.581 71.9197 151.691 72.2694 151.874 72.5819C152.056 72.8944 152.307 73.1618 152.607 73.3641C152.907 73.5664 153.249 73.6984 153.607 73.7504C153.966 73.8023 154.331 73.7729 154.676 73.6642C154.826 74.4937 155.282 75.2368 155.953 75.7464C156.624 76.2561 157.463 76.4951 158.302 76.4162C159.96 76.1685 161.095 74.0426 160.221 72.5978Z" fill="#263238"/>
<path d="M132.605 70.0935C132.684 70.506 132.721 70.9256 132.715 71.3456C132.729 71.7792 132.863 72.2006 133.1 72.5634C133.45 72.9718 133.942 73.2323 134.476 73.2926C135 73.4071 135.542 73.4071 136.066 73.2926C136.495 73.1749 136.908 73.0063 137.297 72.7904C137.655 72.5696 138.027 72.3742 138.412 72.2056C138.116 72.5107 137.775 72.7683 137.4 72.9693C137.007 73.2204 136.581 73.4171 136.135 73.5541C135.574 73.7078 134.984 73.7267 134.415 73.6091C133.821 73.5314 133.28 73.2254 132.908 72.756C132.653 72.3433 132.523 71.8651 132.536 71.38C132.502 70.95 132.525 70.5173 132.605 70.0935Z" fill="#455A64"/>
<path d="M131.408 73.6779C131.598 73.9916 131.83 74.2785 132.096 74.531C132.405 74.7816 132.764 74.9623 133.149 75.0608C133.622 75.1646 134.113 75.1646 134.587 75.0608C135.466 74.8551 136.294 74.4736 137.022 73.9394C137.32 73.7014 137.643 73.4961 137.985 73.327C137.743 73.6258 137.46 73.8897 137.146 74.1114C136.42 74.7157 135.562 75.14 134.642 75.3498C134.122 75.4548 133.585 75.4383 133.073 75.3016C132.657 75.1813 132.275 74.9644 131.958 74.6686C131.656 74.4203 131.459 74.0661 131.408 73.6779Z" fill="#455A64"/>
<path d="M130.5 76.368C130.719 76.6381 130.969 76.8828 131.243 77.0973C131.591 77.3218 131.981 77.4708 132.39 77.5348C132.799 77.5988 133.217 77.5763 133.616 77.4688C134.433 77.2513 135.203 76.8851 135.887 76.3886C136.167 76.1638 136.471 75.9722 136.795 75.8176C136.795 75.8176 136.527 76.141 136.011 76.5538C135.331 77.1187 134.535 77.5253 133.678 77.744C133.193 77.8503 132.691 77.8503 132.206 77.744C131.81 77.6543 131.439 77.4781 131.119 77.228C130.812 77.0291 130.591 76.7222 130.5 76.368Z" fill="#455A64"/>
<path d="M131.759 89.0616L136.059 85.7317L153.63 93.4992C153.63 93.4992 152.674 100.627 147.872 102.54C145.612 103.356 143.124 103.265 140.93 102.285C138.467 101.129 134.669 98.955 133.362 95.3155C132.558 93.3093 132.02 91.207 131.759 89.0616Z" fill="#F5F5F5"/>
<path d="M134.511 86.9288L153.087 95.6595C153.319 94.9531 153.5 94.2312 153.63 93.4992L136.038 85.6285L134.511 86.9288Z" fill="#E0E0E0"/>
<path d="M145.533 99.3472C145.072 99.2014 144.632 98.9955 144.225 98.7349C143.441 98.3083 142.375 97.6822 141.226 96.953C140.077 96.2237 139.065 95.515 138.35 94.9784C137.943 94.7135 137.569 94.4018 137.235 94.0496C137.297 93.967 139.127 95.1917 141.418 96.6502C143.709 98.1088 145.588 99.2578 145.533 99.3472Z" fill="#263238"/>
<path d="M147.418 98.0194C146.108 97.4684 144.835 96.8342 143.606 96.1205C142.318 95.5089 141.068 94.8197 139.863 94.0565C141.224 94.4906 142.534 95.0695 143.771 95.7834C145.063 96.3962 146.286 97.1458 147.418 98.0194Z" fill="#263238"/>
<path d="M149 97.008C147.446 96.4011 145.936 95.6885 144.48 94.8752C142.968 94.169 141.51 93.3527 140.118 92.4328C141.675 93.0304 143.185 93.741 144.638 94.5587C146.15 95.2672 147.608 96.0858 149 97.008Z" fill="#263238"/>
<path d="M132.096 89.3024C131.521 89.0478 130.998 88.6886 130.555 88.2429C129.764 87.5549 129.179 86.977 129.241 86.9013C129.819 87.1572 130.344 87.5188 130.789 87.9677C131.552 88.6282 132.144 89.2267 132.096 89.3024Z" fill="white"/>
<path d="M136.417 86.289C135.449 85.3744 134.565 84.3751 133.775 83.303C132.892 82.3069 132.1 81.2339 131.408 80.097C132.375 81.01 133.259 82.0069 134.05 83.076C134.932 84.0752 135.724 85.1504 136.417 86.289Z" fill="#E0E0E0"/>
<path d="M138.288 146.606H126.255C126.255 146.606 123.757 146.448 122.959 147.81C122.161 149.172 119.836 153.63 120.084 154.49C120.242 155.055 121.556 155.777 121.556 155.777C121.556 155.777 120.73 158.02 121.673 158.343C123.207 158.866 124.136 157.174 124.136 157.174L126.929 158.102L131.477 157.297C131.477 157.297 132.041 155.688 131.153 155.529C130.266 155.371 129.089 155.206 129.089 155.206L129.936 153.919L131.945 153.28C132.429 153.702 133.007 154.004 133.63 154.16C134.518 154.318 138.054 154.566 138.859 154.243C139.664 153.919 139.898 153.28 141.425 152.956L143.228 152.812V146.62L138.288 146.606Z" fill="#BA7F72"/>
<path d="M127.844 151.222C127.651 151.617 127.421 151.993 127.156 152.344C126.943 152.688 126.688 153.094 126.468 153.562C126.169 154.035 125.955 154.556 125.835 155.103C125.828 155.364 125.888 155.623 126.008 155.855C126.129 156.087 126.306 156.285 126.523 156.431C126.929 156.733 127.349 157.036 127.672 157.249C128.035 157.477 128.429 157.651 128.842 157.765C128.842 157.813 128.284 157.889 127.541 157.469C127.17 157.256 126.785 157.008 126.317 156.692C126.072 156.515 125.86 156.296 125.691 156.045C125.502 155.756 125.418 155.412 125.45 155.068C125.563 154.472 125.797 153.906 126.138 153.403C126.382 152.988 126.648 152.586 126.936 152.199C127.445 151.546 127.81 151.188 127.844 151.222Z" fill="#8B5D54"/>
<path d="M125.677 150.94C125.56 151.281 125.391 151.602 125.175 151.89C124.838 152.454 124.349 153.224 123.923 154.119C123.711 154.508 123.618 154.95 123.654 155.392C123.709 155.752 123.846 156.096 124.053 156.396C124.277 156.672 124.477 156.967 124.652 157.277C124.617 157.277 124.28 157.07 123.847 156.547C123.54 156.198 123.351 155.761 123.306 155.298C123.262 154.834 123.364 154.369 123.599 153.967C123.986 153.185 124.447 152.44 124.975 151.745C125.367 151.216 125.636 150.913 125.677 150.94Z" fill="#8B5D54"/>
<path d="M129.344 155.089C129.392 155.178 129.227 155.357 129.014 155.529C128.8 155.701 128.608 155.832 128.525 155.777C128.443 155.722 128.525 155.461 128.787 155.254C129.048 155.048 129.344 155.006 129.344 155.089Z" fill="#8B5D54"/>
<path d="M124.377 157.284C123.91 157.235 123.457 157.097 123.042 156.878C122.562 156.666 122.135 156.351 121.79 155.956C121.578 155.703 121.421 155.41 121.329 155.094C121.236 154.777 121.211 154.446 121.253 154.119C121.443 152.987 121.916 151.922 122.629 151.023C122.881 150.631 123.187 150.277 123.537 149.97C123.353 150.394 123.123 150.795 122.849 151.167C122.232 152.064 121.812 153.082 121.618 154.153C121.579 154.435 121.599 154.722 121.674 154.996C121.75 155.271 121.881 155.527 122.058 155.749C122.36 156.121 122.735 156.428 123.159 156.651C123.58 156.831 123.987 157.043 124.377 157.284Z" fill="#8B5D54"/>
<path d="M130.981 149.296C130.892 149.351 130.562 148.966 129.991 148.821C129.42 148.677 128.938 148.821 128.897 148.732C128.856 148.642 128.979 148.58 129.193 148.498C129.481 148.4 129.792 148.39 130.086 148.47C130.38 148.55 130.644 148.715 130.844 148.945C130.988 149.117 131.016 149.296 130.981 149.296Z" fill="#8B5D54"/>
<path d="M128.656 148.126C128.56 148.126 128.415 147.762 128.009 147.535C127.603 147.308 127.211 147.349 127.177 147.253C127.142 147.156 127.252 147.122 127.452 147.081C127.707 147.041 127.967 147.092 128.188 147.225C128.414 147.353 128.585 147.558 128.67 147.803C128.732 147.996 128.697 148.12 128.656 148.126Z" fill="#8B5D54"/>
<path d="M171.814 153.63C173.05 153.054 174.151 152.225 175.046 151.197C175.941 150.168 176.611 148.964 177.013 147.661C177.414 146.358 177.537 144.986 177.376 143.632C177.214 142.278 176.77 140.973 176.073 139.802C176.018 139.712 175.963 139.623 175.915 139.533C174.656 137.435 157.49 121.68 155.392 119.155C153.293 116.63 149.372 113.981 149.372 113.981L142.705 135.873L156.465 143.083L147.989 144.04L142.382 144.604L142.733 156.169C142.733 156.169 165.787 154.525 169.372 154.325C170.222 154.247 171.05 154.012 171.814 153.63Z" fill="#FE4400"/>
<path d="M170.184 140.056C169.841 139.912 169.486 139.797 169.124 139.712C168.128 139.549 167.106 139.655 166.166 140.022C164.782 140.633 163.444 141.344 162.162 142.148C161.765 142.366 161.338 142.526 160.896 142.622C160.455 142.732 160.001 142.808 159.52 142.891C158.598 143.049 157.635 143.18 156.651 143.304C152.722 143.785 149.152 144.081 146.565 144.301L143.51 144.542C143.136 144.59 142.759 144.611 142.382 144.604C142.472 144.565 142.567 144.54 142.664 144.528L143.489 144.404C144.177 144.308 145.257 144.191 146.544 144.047C149.117 143.764 152.688 143.427 156.609 142.946C157.586 142.822 158.543 142.698 159.458 142.547C160.334 142.458 161.189 142.225 161.99 141.859C163.29 141.067 164.649 140.377 166.056 139.795C167.042 139.433 168.112 139.361 169.138 139.588C169.411 139.659 169.674 139.763 169.922 139.898C170.108 139.987 170.191 140.042 170.184 140.056Z" fill="#263238"/>
<path d="M150.087 121.776C149.997 122.1 149.873 122.414 149.716 122.712C149.427 123.358 149.028 124.198 148.594 125.195C147.638 127.259 146.31 130.19 145.044 133.451C143.778 136.712 142.794 139.76 142.106 141.955C141.783 143.008 141.508 143.881 141.295 144.563C141.211 144.886 141.098 145.202 140.957 145.505C140.991 145.171 141.057 144.842 141.157 144.521C141.308 143.895 141.549 142.994 141.845 141.886C142.471 139.664 143.42 136.616 144.693 133.321C145.966 130.025 147.328 127.129 148.347 125.065C148.849 124.026 149.275 123.193 149.571 122.622C149.722 122.328 149.894 122.045 150.087 121.776Z" fill="#263238"/>
<path d="M104.046 118.88C104.015 118.998 103.974 119.113 103.922 119.224L103.516 120.18C103.152 121.012 102.608 122.203 101.927 123.675C100.551 126.606 98.5698 130.624 96.3269 135.02C94.0841 139.416 92.0614 143.414 90.6304 146.317L88.9448 149.757C88.7521 150.135 88.5939 150.445 88.4701 150.693C88.4236 150.804 88.361 150.909 88.2843 151.002C88.3114 150.883 88.353 150.767 88.4081 150.658L88.814 149.702C89.1787 148.869 89.7222 147.679 90.4033 146.207C91.7793 143.276 93.7607 139.258 96.0036 134.862C98.2464 130.465 100.269 126.468 101.693 123.565C102.381 122.148 102.966 120.985 103.386 120.125L103.86 119.189C103.907 119.077 103.97 118.973 104.046 118.88Z" fill="#263238"/>
<path d="M105.395 112.832C105.285 112.832 105.161 110.424 104.342 107.589C103.523 104.755 102.374 102.622 102.478 102.574C102.817 102.991 103.095 103.454 103.303 103.95C104.438 106.244 105.137 108.728 105.367 111.277C105.454 111.791 105.463 112.315 105.395 112.832Z" fill="#263238"/>
<g opacity="0.3">
<path opacity="0.3" d="M143.792 136.375C146.142 133.184 147.693 129.475 148.312 125.56C146.493 129.026 144.98 132.645 143.792 136.375Z" fill="black"/>
</g>
<g opacity="0.3">
<path opacity="0.3" d="M156.486 143.104C158.77 141.969 160.51 141.04 162.795 139.884C164.019 139.218 165.313 138.689 166.654 138.309C168.015 137.918 169.467 137.99 170.782 138.515C171.085 138.627 171.35 138.822 171.546 139.079C171.64 139.209 171.691 139.366 171.691 139.526C171.691 139.687 171.64 139.843 171.546 139.974C171.4 140.088 171.226 140.162 171.043 140.187C170.859 140.213 170.672 140.189 170.5 140.118C169.779 139.859 169.035 139.67 168.278 139.554C166.936 139.416 164.941 140.393 163.785 141.088C161.6 142.455 159.063 143.156 156.486 143.104Z" fill="black"/>
</g>
<g opacity="0.3">
<path opacity="0.3" d="M105.67 164.308C113.523 166.188 121.761 165.641 129.296 162.739C121.583 163.166 113.376 163.882 105.67 164.308Z" fill="black"/>
</g>
<g opacity="0.3">
<path opacity="0.3" d="M121.425 100.489C122.746 104.833 124.069 109.176 125.395 113.52C126.242 112.295 127.161 111.121 128.147 110.004C129.215 111.261 130.364 112.447 131.587 113.554C130.499 111.803 129.63 109.924 129 107.961C128.986 107.908 128.96 107.859 128.924 107.817C128.889 107.775 128.844 107.742 128.794 107.72C128.694 107.704 128.592 107.724 128.505 107.775C127.402 108.366 126.445 109.195 125.705 110.204C124.404 107.184 122.87 103.812 121.577 100.785" fill="black"/>
</g>
<g opacity="0.3">
<path opacity="0.3" d="M94.1115 139.086C98.428 134.64 101.233 128.947 102.127 122.815L94.1115 139.086Z" fill="black"/>
</g>
<path d="M75.5974 185.003L75.6731 186.902L74.4553 196.768L76.8289 202.788L78.4113 203.098C78.4113 203.098 79.2644 204.432 80.3584 204.315C81.4523 204.198 84.8648 204.921 85.0437 204.859C85.2225 204.797 85.7729 204.171 84.8029 203.703C84.0929 203.322 83.4203 202.875 82.7939 202.368L83.4819 197.497C83.4819 197.497 82.6632 202.912 85.3877 203.462C85.3877 203.462 86.344 203.641 86.5297 203.036C86.7155 202.43 85.9862 202.244 86.0137 200.284C86.0413 198.323 86.0137 193.892 86.0137 193.892L83.0416 186.888L83.1654 185.237L75.5974 185.003Z" fill="#BA7F72"/>
<path d="M86.9013 209.496C86.9013 209.496 86.6605 204.522 82.7733 202.279L83.1242 199.596C84.8429 200.65 86.2867 202.097 87.3369 203.818C88.3871 205.539 89.0136 207.485 89.1648 209.496H86.9013Z" fill="#455A64"/>
<path d="M71.3181 209.496C71.3181 209.496 72.6941 202.671 76.5882 202.183L75.5699 199.596C73.6926 200.527 72.0882 201.928 70.9127 203.663C69.7373 205.398 69.0308 207.407 68.8619 209.496H71.3181Z" fill="#455A64"/>
<path d="M104.218 208.127H56.7737V241.571H104.218V208.127Z" fill="#455A64"/>
<path d="M97.1042 241.571C97.001 241.571 97.2762 234.092 97.7097 224.873C98.1432 215.654 98.5698 208.182 98.6661 208.189C98.7624 208.196 98.4941 215.667 98.0675 224.887C97.6409 234.106 97.2006 241.577 97.1042 241.571Z" fill="#263238"/>
<path d="M98.6661 208.127C98.591 208.283 98.4987 208.431 98.3909 208.567C98.1914 208.849 97.9024 209.255 97.5103 209.778C96.4097 211.244 95.2147 212.637 93.9327 213.947C92.0371 215.916 89.8656 217.598 87.4861 218.942C84.5567 220.624 81.232 221.496 77.8541 221.467C74.4924 221.287 71.2155 220.346 68.2703 218.715C65.8414 217.472 63.5669 215.948 61.4934 214.174C60.0962 212.985 58.8528 211.626 57.792 210.129C57.5042 209.719 57.2378 209.294 56.9939 208.856C56.9029 208.71 56.8246 208.555 56.76 208.395C56.8762 208.524 56.9756 208.668 57.0558 208.822C57.2416 209.111 57.5237 209.51 57.9021 210.046C58.9968 211.506 60.2548 212.836 61.6517 214.009C63.7349 215.734 66.0032 217.222 68.4147 218.447C71.3237 220.026 74.5487 220.936 77.8541 221.109C81.1634 221.131 84.4205 220.284 87.3003 218.653C89.6614 217.335 91.8247 215.691 93.7262 213.768C95.0179 212.479 96.2353 211.116 97.3727 209.689L98.3015 208.526C98.4123 208.384 98.5343 208.25 98.6661 208.127Z" fill="#263238"/>
<path d="M100.778 234.656C100.329 235.85 99.7743 237.001 99.1201 238.096C98.5666 239.256 97.9055 240.362 97.1455 241.399C97.5872 240.191 98.1424 239.027 98.8036 237.924C99.3595 236.776 100.02 235.682 100.778 234.656Z" fill="#263238"/>
<path d="M104.211 241.488C103.484 240.436 102.855 239.319 102.333 238.151C101.706 237.038 101.185 235.867 100.778 234.656C101.509 235.706 102.138 236.823 102.656 237.993C103.285 239.106 103.806 240.276 104.211 241.488Z" fill="#263238"/>
<path d="M101.439 208.402C101.535 208.402 101.439 214.305 101.253 221.577C101.067 228.849 100.806 234.746 100.709 234.746C100.613 234.746 100.709 228.843 100.895 221.57C101.081 214.298 101.336 208.395 101.439 208.402Z" fill="#263238"/>
<path d="M77.5927 219.527C77.5927 219.527 77.7715 219.479 78.0743 219.527C78.5024 219.657 78.8766 219.923 79.1407 220.284C79.3489 220.554 79.4815 220.875 79.5251 221.214C79.5686 221.552 79.5214 221.896 79.3884 222.21C79.2382 222.609 78.9684 222.951 78.6161 223.19C78.2638 223.429 77.8462 223.553 77.4205 223.546C76.9948 223.538 76.5818 223.399 76.2382 223.148C75.8946 222.896 75.6371 222.545 75.5011 222.141C75.3805 221.821 75.3468 221.475 75.4036 221.138C75.4604 220.801 75.6056 220.485 75.8245 220.222C76.1041 219.879 76.4884 219.637 76.9184 219.534C77.0754 219.486 77.2431 219.486 77.4 219.534C77.4 219.568 77.2349 219.582 76.9597 219.685C76.5832 219.832 76.2578 220.085 76.024 220.415C75.8498 220.647 75.7386 220.921 75.7012 221.209C75.6638 221.497 75.7016 221.79 75.8107 222.059C75.9288 222.395 76.1468 222.687 76.4356 222.896C76.7245 223.105 77.0703 223.221 77.4267 223.228C77.7831 223.234 78.133 223.132 78.4295 222.934C78.726 222.736 78.955 222.452 79.0856 222.121C79.2062 221.856 79.2556 221.565 79.2291 221.275C79.2025 220.986 79.1009 220.708 78.9343 220.47C78.7106 220.132 78.3957 219.865 78.0261 219.699C77.8783 219.65 77.7336 219.593 77.5927 219.527Z" fill="#263238"/>
<path d="M104.218 208.189C104.218 208.292 93.6368 208.368 80.5923 208.368C67.5479 208.368 56.9733 208.292 56.9733 208.189C56.9733 208.086 67.5479 208.01 80.5923 208.01C93.6368 208.01 104.218 208.092 104.218 208.189Z" fill="#263238"/>
<path d="M83.5576 195.323C83.6112 196.508 83.542 197.696 83.3512 198.866C83.2838 200.049 83.0971 201.223 82.7939 202.368C82.8137 200 83.0695 197.64 83.5576 195.323Z" fill="#8B5D54"/>
<path d="M79.9594 195.433C79.9536 196.986 79.8317 198.536 79.5948 200.07C79.507 200.661 79.4518 201.256 79.4297 201.852C79.3992 202.31 79.4703 202.769 79.638 203.196C79.8057 203.623 80.0659 204.008 80.3997 204.322C80.3997 204.364 79.815 204.157 79.4228 203.345C79.2055 202.88 79.095 202.372 79.0994 201.859C79.1065 201.247 79.1524 200.636 79.237 200.029C79.3631 198.481 79.6045 196.945 79.9594 195.433Z" fill="#8B5D54"/>
<path d="M77.9436 195.764C78.0579 196.121 78.0954 196.498 78.0536 196.871C78.0536 197.559 77.9504 198.502 77.8954 199.527C77.8342 200.397 77.8897 201.272 78.0605 202.128C78.205 202.781 78.3908 203.16 78.3426 203.187C78.0803 202.911 77.8994 202.568 77.8197 202.196C77.562 201.327 77.4664 200.417 77.5376 199.513C77.5927 198.46 77.7303 197.532 77.7991 196.857C77.8047 196.488 77.8532 196.121 77.9436 195.764Z" fill="#8B5D54"/>
<path d="M76.024 195.323C76.2766 196.55 76.4376 197.794 76.5056 199.045C76.697 200.284 76.7959 201.535 76.8014 202.788C76.438 201.582 76.2186 200.337 76.1478 199.08C75.9613 197.837 75.9197 196.576 76.024 195.323Z" fill="#8B5D54"/>
</svg>
